%TF.GenerationSoftware,KiCad,Pcbnew,8.0.1-8.0.1-0~ubuntu23.10.1*%
%TF.CreationDate,2024-04-25T23:44:33+01:00*%
%TF.ProjectId,g5500-pidrive,67353530-302d-4706-9964-726976652e6b,rev?*%
%TF.SameCoordinates,Original*%
%TF.FileFunction,Legend,Bot*%
%TF.FilePolarity,Positive*%
%FSLAX46Y46*%
G04 Gerber Fmt 4.6, Leading zero omitted, Abs format (unit mm)*
G04 Created by KiCad (PCBNEW 8.0.1-8.0.1-0~ubuntu23.10.1) date 2024-04-25 23:44:33*
%MOMM*%
%LPD*%
G01*
G04 APERTURE LIST*
%ADD10C,0.150000*%
%ADD11C,0.120000*%
G04 APERTURE END LIST*
D10*
X46403333Y-40364819D02*
X46403333Y-41079104D01*
X46403333Y-41079104D02*
X46450952Y-41221961D01*
X46450952Y-41221961D02*
X46546190Y-41317200D01*
X46546190Y-41317200D02*
X46689047Y-41364819D01*
X46689047Y-41364819D02*
X46784285Y-41364819D01*
X45974761Y-40460057D02*
X45927142Y-40412438D01*
X45927142Y-40412438D02*
X45831904Y-40364819D01*
X45831904Y-40364819D02*
X45593809Y-40364819D01*
X45593809Y-40364819D02*
X45498571Y-40412438D01*
X45498571Y-40412438D02*
X45450952Y-40460057D01*
X45450952Y-40460057D02*
X45403333Y-40555295D01*
X45403333Y-40555295D02*
X45403333Y-40650533D01*
X45403333Y-40650533D02*
X45450952Y-40793390D01*
X45450952Y-40793390D02*
X46022380Y-41364819D01*
X46022380Y-41364819D02*
X45403333Y-41364819D01*
D11*
%TO.C,J2*%
X43470000Y-42350000D02*
X44800000Y-42350000D01*
X43470000Y-43680000D02*
X43470000Y-42350000D01*
X43470000Y-44950000D02*
X46070000Y-44950000D01*
X43470000Y-93270000D02*
X43470000Y-44950000D01*
X43470000Y-93270000D02*
X48670000Y-93270000D01*
X46070000Y-42350000D02*
X48670000Y-42350000D01*
X46070000Y-44950000D02*
X46070000Y-42350000D01*
X48670000Y-93270000D02*
X48670000Y-42350000D01*
%TD*%
M02*
