%TF.GenerationSoftware,KiCad,Pcbnew,8.0.1-8.0.1-0~ubuntu23.10.1*%
%TF.CreationDate,2024-04-25T23:44:33+01:00*%
%TF.ProjectId,g5500-pidrive,67353530-302d-4706-9964-726976652e6b,rev?*%
%TF.SameCoordinates,Original*%
%TF.FileFunction,Paste,Top*%
%TF.FilePolarity,Positive*%
%FSLAX46Y46*%
G04 Gerber Fmt 4.6, Leading zero omitted, Abs format (unit mm)*
G04 Created by KiCad (PCBNEW 8.0.1-8.0.1-0~ubuntu23.10.1) date 2024-04-25 23:44:33*
%MOMM*%
%LPD*%
G01*
G04 APERTURE LIST*
G04 Aperture macros list*
%AMRoundRect*
0 Rectangle with rounded corners*
0 $1 Rounding radius*
0 $2 $3 $4 $5 $6 $7 $8 $9 X,Y pos of 4 corners*
0 Add a 4 corners polygon primitive as box body*
4,1,4,$2,$3,$4,$5,$6,$7,$8,$9,$2,$3,0*
0 Add four circle primitives for the rounded corners*
1,1,$1+$1,$2,$3*
1,1,$1+$1,$4,$5*
1,1,$1+$1,$6,$7*
1,1,$1+$1,$8,$9*
0 Add four rect primitives between the rounded corners*
20,1,$1+$1,$2,$3,$4,$5,0*
20,1,$1+$1,$4,$5,$6,$7,0*
20,1,$1+$1,$6,$7,$8,$9,0*
20,1,$1+$1,$8,$9,$2,$3,0*%
G04 Aperture macros list end*
%ADD10RoundRect,0.237500X0.237500X-0.250000X0.237500X0.250000X-0.237500X0.250000X-0.237500X-0.250000X0*%
%ADD11RoundRect,0.237500X-0.250000X-0.237500X0.250000X-0.237500X0.250000X0.237500X-0.250000X0.237500X0*%
%ADD12RoundRect,0.237500X-0.237500X0.250000X-0.237500X-0.250000X0.237500X-0.250000X0.237500X0.250000X0*%
%ADD13RoundRect,0.237500X0.250000X0.237500X-0.250000X0.237500X-0.250000X-0.237500X0.250000X-0.237500X0*%
%ADD14RoundRect,0.250000X0.475000X-0.337500X0.475000X0.337500X-0.475000X0.337500X-0.475000X-0.337500X0*%
%ADD15RoundRect,0.250000X-0.412500X-0.650000X0.412500X-0.650000X0.412500X0.650000X-0.412500X0.650000X0*%
%ADD16RoundRect,0.237500X0.237500X-0.300000X0.237500X0.300000X-0.237500X0.300000X-0.237500X-0.300000X0*%
%ADD17R,0.600000X1.550000*%
%ADD18RoundRect,0.001000X-1.550000X1.200000X-1.550000X-1.200000X1.550000X-1.200000X1.550000X1.200000X0*%
%ADD19RoundRect,0.150000X-0.150000X0.825000X-0.150000X-0.825000X0.150000X-0.825000X0.150000X0.825000X0*%
%ADD20RoundRect,0.237500X0.300000X0.237500X-0.300000X0.237500X-0.300000X-0.237500X0.300000X-0.237500X0*%
%ADD21RoundRect,0.250000X-0.275000X-0.350000X0.275000X-0.350000X0.275000X0.350000X-0.275000X0.350000X0*%
%ADD22RoundRect,0.237500X-0.237500X0.300000X-0.237500X-0.300000X0.237500X-0.300000X0.237500X0.300000X0*%
%ADD23RoundRect,0.250000X0.275000X0.350000X-0.275000X0.350000X-0.275000X-0.350000X0.275000X-0.350000X0*%
%ADD24RoundRect,0.237500X-0.300000X-0.237500X0.300000X-0.237500X0.300000X0.237500X-0.300000X0.237500X0*%
%ADD25RoundRect,0.150000X0.512500X0.150000X-0.512500X0.150000X-0.512500X-0.150000X0.512500X-0.150000X0*%
%ADD26R,0.950000X0.400000*%
%ADD27RoundRect,0.150000X-0.512500X-0.150000X0.512500X-0.150000X0.512500X0.150000X-0.512500X0.150000X0*%
%ADD28R,0.600000X2.000000*%
G04 APERTURE END LIST*
D10*
%TO.C,R35*%
X71600000Y-88425000D03*
X71600000Y-86600000D03*
%TD*%
D11*
%TO.C,R34*%
X63800000Y-88600000D03*
X65625000Y-88600000D03*
%TD*%
D12*
%TO.C,R33*%
X71600000Y-81200000D03*
X71600000Y-83025000D03*
%TD*%
D13*
%TO.C,R32*%
X67425000Y-79600000D03*
X65600000Y-79600000D03*
%TD*%
D11*
%TO.C,R31*%
X60775000Y-79600000D03*
X62600000Y-79600000D03*
%TD*%
D10*
%TO.C,R30*%
X93000000Y-77000000D03*
X93000000Y-78825000D03*
%TD*%
D12*
%TO.C,R29*%
X95000000Y-77000000D03*
X95000000Y-78825000D03*
%TD*%
%TO.C,R28*%
X105800000Y-80975000D03*
X105800000Y-82800000D03*
%TD*%
D14*
%TO.C,C23*%
X78000000Y-111185000D03*
X78000000Y-109110000D03*
%TD*%
%TO.C,C22*%
X86870000Y-111085000D03*
X86870000Y-109010000D03*
%TD*%
%TO.C,C21*%
X103000000Y-110837500D03*
X103000000Y-108762500D03*
%TD*%
%TO.C,C20*%
X111800000Y-111110000D03*
X111800000Y-109035000D03*
%TD*%
D15*
%TO.C,C1*%
X62700000Y-123000000D03*
X65825000Y-123000000D03*
%TD*%
D12*
%TO.C,R2*%
X41000000Y-118775000D03*
X41000000Y-120600000D03*
%TD*%
D16*
%TO.C,C31*%
X105400000Y-88200000D03*
X105400000Y-86475000D03*
%TD*%
D17*
%TO.C,IC5*%
X92540000Y-105435000D03*
X91270000Y-105435000D03*
X90000000Y-105435000D03*
X88730000Y-105435000D03*
X88730000Y-110835000D03*
X90000000Y-110835000D03*
X91270000Y-110835000D03*
X92540000Y-110835000D03*
D18*
X90635000Y-108135000D03*
%TD*%
D19*
%TO.C,U4*%
X69670000Y-51250000D03*
X68400000Y-51250000D03*
X67130000Y-51250000D03*
X65860000Y-51250000D03*
X65860000Y-56200000D03*
X67130000Y-56200000D03*
X68400000Y-56200000D03*
X69670000Y-56200000D03*
%TD*%
D11*
%TO.C,R3*%
X43575000Y-117175000D03*
X45400000Y-117175000D03*
%TD*%
D10*
%TO.C,R12*%
X116415000Y-103060000D03*
X116415000Y-101235000D03*
%TD*%
D20*
%TO.C,C15*%
X59400000Y-46400000D03*
X57675000Y-46400000D03*
%TD*%
D10*
%TO.C,R17*%
X80870000Y-103035000D03*
X80870000Y-101210000D03*
%TD*%
D21*
%TO.C,FB5*%
X98950000Y-39000000D03*
X96650000Y-39000000D03*
%TD*%
D22*
%TO.C,C19*%
X71400000Y-36675000D03*
X71400000Y-38400000D03*
%TD*%
D11*
%TO.C,R24*%
X53575000Y-123200000D03*
X55400000Y-123200000D03*
%TD*%
D12*
%TO.C,R7*%
X64800000Y-44575000D03*
X64800000Y-46400000D03*
%TD*%
D16*
%TO.C,C13*%
X54800000Y-111400000D03*
X54800000Y-109675000D03*
%TD*%
%TO.C,C10*%
X53000000Y-111400000D03*
X53000000Y-109675000D03*
%TD*%
D10*
%TO.C,R19*%
X79070000Y-103035000D03*
X79070000Y-101210000D03*
%TD*%
D23*
%TO.C,FB2*%
X85400000Y-54000000D03*
X83100000Y-54000000D03*
%TD*%
D12*
%TO.C,R6*%
X76937500Y-44625000D03*
X76937500Y-46450000D03*
%TD*%
D22*
%TO.C,C5*%
X96860000Y-69280000D03*
X96860000Y-71005000D03*
%TD*%
D16*
%TO.C,C32*%
X83000000Y-88000000D03*
X83000000Y-86275000D03*
%TD*%
D22*
%TO.C,C8*%
X54800000Y-103075000D03*
X54800000Y-104800000D03*
%TD*%
D17*
%TO.C,U5*%
X103610000Y-82900000D03*
X102340000Y-82900000D03*
X101070000Y-82900000D03*
X99800000Y-82900000D03*
X98530000Y-82900000D03*
X97260000Y-82900000D03*
X95990000Y-82900000D03*
X95990000Y-88300000D03*
X97260000Y-88300000D03*
X98530000Y-88300000D03*
X99800000Y-88300000D03*
X101070000Y-88300000D03*
X102340000Y-88300000D03*
X103610000Y-88300000D03*
%TD*%
%TO.C,IC3*%
X117470000Y-105435000D03*
X116200000Y-105435000D03*
X114930000Y-105435000D03*
X113660000Y-105435000D03*
X113660000Y-110835000D03*
X114930000Y-110835000D03*
X116200000Y-110835000D03*
X117470000Y-110835000D03*
D18*
X115565000Y-108135000D03*
%TD*%
D11*
%TO.C,R10*%
X72612500Y-44650000D03*
X74437500Y-44650000D03*
%TD*%
D10*
%TO.C,R18*%
X82670000Y-103035000D03*
X82670000Y-101210000D03*
%TD*%
%TO.C,R16*%
X91470000Y-103035000D03*
X91470000Y-101210000D03*
%TD*%
D24*
%TO.C,C9*%
X99300000Y-51000000D03*
X101025000Y-51000000D03*
%TD*%
%TO.C,C12*%
X43675000Y-115575000D03*
X45400000Y-115575000D03*
%TD*%
D25*
%TO.C,U1*%
X78768750Y-55356250D03*
X78768750Y-54406250D03*
X78768750Y-53456250D03*
X76493750Y-53456250D03*
X76493750Y-55356250D03*
%TD*%
D10*
%TO.C,R20*%
X76670000Y-103060000D03*
X76670000Y-101235000D03*
%TD*%
D24*
%TO.C,C6*%
X61537500Y-95925000D03*
X63262500Y-95925000D03*
%TD*%
D11*
%TO.C,R23*%
X51800000Y-117175000D03*
X53625000Y-117175000D03*
%TD*%
D20*
%TO.C,C29*%
X50000000Y-115575000D03*
X48275000Y-115575000D03*
%TD*%
%TO.C,C16*%
X74400000Y-46400000D03*
X72675000Y-46400000D03*
%TD*%
D22*
%TO.C,C3*%
X90110000Y-68730000D03*
X90110000Y-70455000D03*
%TD*%
D16*
%TO.C,C4*%
X74293750Y-55656250D03*
X74293750Y-53931250D03*
%TD*%
D21*
%TO.C,FB3*%
X86000000Y-68600000D03*
X88300000Y-68600000D03*
%TD*%
D17*
%TO.C,IC6*%
X83670000Y-105435000D03*
X82400000Y-105435000D03*
X81130000Y-105435000D03*
X79860000Y-105435000D03*
X79860000Y-110835000D03*
X81130000Y-110835000D03*
X82400000Y-110835000D03*
X83670000Y-110835000D03*
D18*
X81765000Y-108135000D03*
%TD*%
D17*
%TO.C,U6*%
X81210000Y-82700000D03*
X79940000Y-82700000D03*
X78670000Y-82700000D03*
X77400000Y-82700000D03*
X76130000Y-82700000D03*
X74860000Y-82700000D03*
X73590000Y-82700000D03*
X73590000Y-88100000D03*
X74860000Y-88100000D03*
X76130000Y-88100000D03*
X77400000Y-88100000D03*
X78670000Y-88100000D03*
X79940000Y-88100000D03*
X81210000Y-88100000D03*
%TD*%
D10*
%TO.C,R11*%
X114615000Y-103060000D03*
X114615000Y-101235000D03*
%TD*%
D12*
%TO.C,R4*%
X45400000Y-118775000D03*
X45400000Y-120600000D03*
%TD*%
D13*
%TO.C,R25*%
X99312500Y-46400000D03*
X97487500Y-46400000D03*
%TD*%
D26*
%TO.C,IC2*%
X100100000Y-48150000D03*
X100100000Y-48800000D03*
X100100000Y-49450000D03*
X102300000Y-49450000D03*
X102300000Y-48800000D03*
X102300000Y-48150000D03*
%TD*%
D11*
%TO.C,R1*%
X39175000Y-117175000D03*
X41000000Y-117175000D03*
%TD*%
D27*
%TO.C,U2*%
X92460000Y-69230000D03*
X92460000Y-70180000D03*
X92460000Y-71130000D03*
X94735000Y-71130000D03*
X94735000Y-69230000D03*
%TD*%
D10*
%TO.C,R15*%
X89670000Y-103035000D03*
X89670000Y-101210000D03*
%TD*%
D23*
%TO.C,FB1*%
X85400000Y-56162500D03*
X83100000Y-56162500D03*
%TD*%
D11*
%TO.C,R8*%
X57625000Y-44600000D03*
X59450000Y-44600000D03*
%TD*%
D22*
%TO.C,C18*%
X56400000Y-36675000D03*
X56400000Y-38400000D03*
%TD*%
D10*
%TO.C,R14*%
X107615000Y-103060000D03*
X107615000Y-101235000D03*
%TD*%
D13*
%TO.C,R26*%
X99112500Y-43400000D03*
X97287500Y-43400000D03*
%TD*%
D12*
%TO.C,R9*%
X80035000Y-44587500D03*
X80035000Y-46412500D03*
%TD*%
D10*
%TO.C,R13*%
X105815000Y-103060000D03*
X105815000Y-101235000D03*
%TD*%
D11*
%TO.C,R22*%
X53600000Y-120175000D03*
X55425000Y-120175000D03*
%TD*%
D16*
%TO.C,C28*%
X71400000Y-55800000D03*
X71400000Y-54075000D03*
%TD*%
D12*
%TO.C,R27*%
X107400000Y-88175000D03*
X107400000Y-90000000D03*
%TD*%
D17*
%TO.C,IC4*%
X108670000Y-105435000D03*
X107400000Y-105435000D03*
X106130000Y-105435000D03*
X104860000Y-105435000D03*
X104860000Y-110835000D03*
X106130000Y-110835000D03*
X107400000Y-110835000D03*
X108670000Y-110835000D03*
D18*
X106765000Y-108135000D03*
%TD*%
D28*
%TO.C,IC1*%
X41920000Y-112000000D03*
X43190000Y-112000000D03*
X44460000Y-112000000D03*
X45730000Y-112000000D03*
X47000000Y-112000000D03*
X48270000Y-112000000D03*
X49540000Y-112000000D03*
X50810000Y-112000000D03*
X50810000Y-102700000D03*
X49540000Y-102700000D03*
X48270000Y-102700000D03*
X47000000Y-102700000D03*
X45730000Y-102700000D03*
X44460000Y-102700000D03*
X43190000Y-102700000D03*
X41920000Y-102700000D03*
%TD*%
D12*
%TO.C,R5*%
X61800000Y-44575000D03*
X61800000Y-46400000D03*
%TD*%
D22*
%TO.C,C14*%
X39800000Y-109675000D03*
X39800000Y-111400000D03*
%TD*%
D24*
%TO.C,C30*%
X51800000Y-115575000D03*
X53525000Y-115575000D03*
%TD*%
%TO.C,C11*%
X39275000Y-115575000D03*
X41000000Y-115575000D03*
%TD*%
D22*
%TO.C,C7*%
X53000000Y-103075000D03*
X53000000Y-104800000D03*
%TD*%
D16*
%TO.C,C2*%
X80843750Y-55843750D03*
X80843750Y-54118750D03*
%TD*%
D13*
%TO.C,R21*%
X50025000Y-117175000D03*
X48200000Y-117175000D03*
%TD*%
D22*
%TO.C,C17*%
X38250000Y-109675000D03*
X38250000Y-111400000D03*
%TD*%
D21*
%TO.C,FB4*%
X85985000Y-70630000D03*
X88285000Y-70630000D03*
%TD*%
M02*
