%TF.GenerationSoftware,KiCad,Pcbnew,8.0.1-8.0.1-0~ubuntu23.10.1*%
%TF.CreationDate,2024-04-25T23:44:30+01:00*%
%TF.ProjectId,g5500-pidrive,67353530-302d-4706-9964-726976652e6b,rev?*%
%TF.SameCoordinates,Original*%
%TF.FileFunction,Drillmap*%
%TF.FilePolarity,Positive*%
%FSLAX45Y45*%
G04 Gerber Fmt 4.5, Leading zero omitted, Abs format (unit mm)*
G04 Created by KiCad (PCBNEW 8.0.1-8.0.1-0~ubuntu23.10.1) date 2024-04-25 23:44:30*
%MOMM*%
%LPD*%
G01*
G04 APERTURE LIST*
%ADD10C,0.050000*%
%ADD11C,0.200000*%
%ADD12C,0.270000*%
G04 APERTURE END LIST*
D10*
X12400000Y-3400000D02*
X12400000Y-13800000D01*
X12200000Y-3200000D02*
G75*
G02*
X12400000Y-3400000I0J-200000D01*
G01*
X12400000Y-13800000D02*
G75*
G02*
X12200000Y-14000000I-200000J0D01*
G01*
X3600000Y-14000000D02*
X12200000Y-14000000D01*
X3600000Y-14000000D02*
G75*
G02*
X3400000Y-13800000I0J200000D01*
G01*
X3400000Y-3400000D02*
G75*
G02*
X3600000Y-3200000I200000J0D01*
G01*
X3400000Y-3400000D02*
X3400000Y-13800000D01*
X3600000Y-3200000D02*
X12200000Y-3200000D01*
D11*
D12*
X3585000Y-3745000D02*
X3855000Y-4015000D01*
X3855000Y-3745000D02*
X3585000Y-4015000D01*
X3585000Y-9545000D02*
X3855000Y-9815000D01*
X3855000Y-9545000D02*
X3585000Y-9815000D01*
X8485000Y-3745000D02*
X8755000Y-4015000D01*
X8755000Y-3745000D02*
X8485000Y-4015000D01*
X8485000Y-9545000D02*
X8755000Y-9815000D01*
X8755000Y-9545000D02*
X8485000Y-9815000D01*
D11*
X3658277Y-14313984D02*
X3658277Y-14113984D01*
X3658277Y-14113984D02*
X3705896Y-14113984D01*
X3705896Y-14113984D02*
X3734467Y-14123508D01*
X3734467Y-14123508D02*
X3753515Y-14142555D01*
X3753515Y-14142555D02*
X3763039Y-14161603D01*
X3763039Y-14161603D02*
X3772562Y-14199698D01*
X3772562Y-14199698D02*
X3772562Y-14228269D01*
X3772562Y-14228269D02*
X3763039Y-14266365D01*
X3763039Y-14266365D02*
X3753515Y-14285412D01*
X3753515Y-14285412D02*
X3734467Y-14304460D01*
X3734467Y-14304460D02*
X3705896Y-14313984D01*
X3705896Y-14313984D02*
X3658277Y-14313984D01*
X3858277Y-14313984D02*
X3858277Y-14180650D01*
X3858277Y-14218746D02*
X3867801Y-14199698D01*
X3867801Y-14199698D02*
X3877324Y-14190174D01*
X3877324Y-14190174D02*
X3896372Y-14180650D01*
X3896372Y-14180650D02*
X3915420Y-14180650D01*
X3982086Y-14313984D02*
X3982086Y-14180650D01*
X3982086Y-14113984D02*
X3972562Y-14123508D01*
X3972562Y-14123508D02*
X3982086Y-14133031D01*
X3982086Y-14133031D02*
X3991610Y-14123508D01*
X3991610Y-14123508D02*
X3982086Y-14113984D01*
X3982086Y-14113984D02*
X3982086Y-14133031D01*
X4105896Y-14313984D02*
X4086848Y-14304460D01*
X4086848Y-14304460D02*
X4077324Y-14285412D01*
X4077324Y-14285412D02*
X4077324Y-14113984D01*
X4210658Y-14313984D02*
X4191610Y-14304460D01*
X4191610Y-14304460D02*
X4182086Y-14285412D01*
X4182086Y-14285412D02*
X4182086Y-14113984D01*
X4439229Y-14313984D02*
X4439229Y-14113984D01*
X4439229Y-14113984D02*
X4505896Y-14256841D01*
X4505896Y-14256841D02*
X4572563Y-14113984D01*
X4572563Y-14113984D02*
X4572563Y-14313984D01*
X4753515Y-14313984D02*
X4753515Y-14209222D01*
X4753515Y-14209222D02*
X4743991Y-14190174D01*
X4743991Y-14190174D02*
X4724944Y-14180650D01*
X4724944Y-14180650D02*
X4686848Y-14180650D01*
X4686848Y-14180650D02*
X4667801Y-14190174D01*
X4753515Y-14304460D02*
X4734467Y-14313984D01*
X4734467Y-14313984D02*
X4686848Y-14313984D01*
X4686848Y-14313984D02*
X4667801Y-14304460D01*
X4667801Y-14304460D02*
X4658277Y-14285412D01*
X4658277Y-14285412D02*
X4658277Y-14266365D01*
X4658277Y-14266365D02*
X4667801Y-14247317D01*
X4667801Y-14247317D02*
X4686848Y-14237793D01*
X4686848Y-14237793D02*
X4734467Y-14237793D01*
X4734467Y-14237793D02*
X4753515Y-14228269D01*
X4848753Y-14180650D02*
X4848753Y-14380650D01*
X4848753Y-14190174D02*
X4867801Y-14180650D01*
X4867801Y-14180650D02*
X4905896Y-14180650D01*
X4905896Y-14180650D02*
X4924944Y-14190174D01*
X4924944Y-14190174D02*
X4934467Y-14199698D01*
X4934467Y-14199698D02*
X4943991Y-14218746D01*
X4943991Y-14218746D02*
X4943991Y-14275888D01*
X4943991Y-14275888D02*
X4934467Y-14294936D01*
X4934467Y-14294936D02*
X4924944Y-14304460D01*
X4924944Y-14304460D02*
X4905896Y-14313984D01*
X4905896Y-14313984D02*
X4867801Y-14313984D01*
X4867801Y-14313984D02*
X4848753Y-14304460D01*
X5029705Y-14294936D02*
X5039229Y-14304460D01*
X5039229Y-14304460D02*
X5029705Y-14313984D01*
X5029705Y-14313984D02*
X5020182Y-14304460D01*
X5020182Y-14304460D02*
X5029705Y-14294936D01*
X5029705Y-14294936D02*
X5029705Y-14313984D01*
X5029705Y-14190174D02*
X5039229Y-14199698D01*
X5039229Y-14199698D02*
X5029705Y-14209222D01*
X5029705Y-14209222D02*
X5020182Y-14199698D01*
X5020182Y-14199698D02*
X5029705Y-14190174D01*
X5029705Y-14190174D02*
X5029705Y-14209222D01*
X3197500Y-14542500D02*
X3397500Y-14742500D01*
X3397500Y-14542500D02*
X3197500Y-14742500D01*
X3648753Y-14553031D02*
X3658277Y-14543508D01*
X3658277Y-14543508D02*
X3677324Y-14533984D01*
X3677324Y-14533984D02*
X3724943Y-14533984D01*
X3724943Y-14533984D02*
X3743991Y-14543508D01*
X3743991Y-14543508D02*
X3753515Y-14553031D01*
X3753515Y-14553031D02*
X3763039Y-14572079D01*
X3763039Y-14572079D02*
X3763039Y-14591127D01*
X3763039Y-14591127D02*
X3753515Y-14619698D01*
X3753515Y-14619698D02*
X3639229Y-14733984D01*
X3639229Y-14733984D02*
X3763039Y-14733984D01*
X3848753Y-14714936D02*
X3858277Y-14724460D01*
X3858277Y-14724460D02*
X3848753Y-14733984D01*
X3848753Y-14733984D02*
X3839229Y-14724460D01*
X3839229Y-14724460D02*
X3848753Y-14714936D01*
X3848753Y-14714936D02*
X3848753Y-14733984D01*
X3924943Y-14533984D02*
X4058277Y-14533984D01*
X4058277Y-14533984D02*
X3972562Y-14733984D01*
X4172562Y-14533984D02*
X4191610Y-14533984D01*
X4191610Y-14533984D02*
X4210658Y-14543508D01*
X4210658Y-14543508D02*
X4220182Y-14553031D01*
X4220182Y-14553031D02*
X4229705Y-14572079D01*
X4229705Y-14572079D02*
X4239229Y-14610174D01*
X4239229Y-14610174D02*
X4239229Y-14657793D01*
X4239229Y-14657793D02*
X4229705Y-14695888D01*
X4229705Y-14695888D02*
X4220182Y-14714936D01*
X4220182Y-14714936D02*
X4210658Y-14724460D01*
X4210658Y-14724460D02*
X4191610Y-14733984D01*
X4191610Y-14733984D02*
X4172562Y-14733984D01*
X4172562Y-14733984D02*
X4153515Y-14724460D01*
X4153515Y-14724460D02*
X4143991Y-14714936D01*
X4143991Y-14714936D02*
X4134467Y-14695888D01*
X4134467Y-14695888D02*
X4124943Y-14657793D01*
X4124943Y-14657793D02*
X4124943Y-14610174D01*
X4124943Y-14610174D02*
X4134467Y-14572079D01*
X4134467Y-14572079D02*
X4143991Y-14553031D01*
X4143991Y-14553031D02*
X4153515Y-14543508D01*
X4153515Y-14543508D02*
X4172562Y-14533984D01*
X4363039Y-14533984D02*
X4382086Y-14533984D01*
X4382086Y-14533984D02*
X4401134Y-14543508D01*
X4401134Y-14543508D02*
X4410658Y-14553031D01*
X4410658Y-14553031D02*
X4420182Y-14572079D01*
X4420182Y-14572079D02*
X4429705Y-14610174D01*
X4429705Y-14610174D02*
X4429705Y-14657793D01*
X4429705Y-14657793D02*
X4420182Y-14695888D01*
X4420182Y-14695888D02*
X4410658Y-14714936D01*
X4410658Y-14714936D02*
X4401134Y-14724460D01*
X4401134Y-14724460D02*
X4382086Y-14733984D01*
X4382086Y-14733984D02*
X4363039Y-14733984D01*
X4363039Y-14733984D02*
X4343991Y-14724460D01*
X4343991Y-14724460D02*
X4334467Y-14714936D01*
X4334467Y-14714936D02*
X4324944Y-14695888D01*
X4324944Y-14695888D02*
X4315420Y-14657793D01*
X4315420Y-14657793D02*
X4315420Y-14610174D01*
X4315420Y-14610174D02*
X4324944Y-14572079D01*
X4324944Y-14572079D02*
X4334467Y-14553031D01*
X4334467Y-14553031D02*
X4343991Y-14543508D01*
X4343991Y-14543508D02*
X4363039Y-14533984D01*
X4515420Y-14733984D02*
X4515420Y-14600650D01*
X4515420Y-14619698D02*
X4524944Y-14610174D01*
X4524944Y-14610174D02*
X4543991Y-14600650D01*
X4543991Y-14600650D02*
X4572563Y-14600650D01*
X4572563Y-14600650D02*
X4591610Y-14610174D01*
X4591610Y-14610174D02*
X4601134Y-14629222D01*
X4601134Y-14629222D02*
X4601134Y-14733984D01*
X4601134Y-14629222D02*
X4610658Y-14610174D01*
X4610658Y-14610174D02*
X4629705Y-14600650D01*
X4629705Y-14600650D02*
X4658277Y-14600650D01*
X4658277Y-14600650D02*
X4677325Y-14610174D01*
X4677325Y-14610174D02*
X4686848Y-14629222D01*
X4686848Y-14629222D02*
X4686848Y-14733984D01*
X4782086Y-14733984D02*
X4782086Y-14600650D01*
X4782086Y-14619698D02*
X4791610Y-14610174D01*
X4791610Y-14610174D02*
X4810658Y-14600650D01*
X4810658Y-14600650D02*
X4839229Y-14600650D01*
X4839229Y-14600650D02*
X4858277Y-14610174D01*
X4858277Y-14610174D02*
X4867801Y-14629222D01*
X4867801Y-14629222D02*
X4867801Y-14733984D01*
X4867801Y-14629222D02*
X4877325Y-14610174D01*
X4877325Y-14610174D02*
X4896372Y-14600650D01*
X4896372Y-14600650D02*
X4924944Y-14600650D01*
X4924944Y-14600650D02*
X4943991Y-14610174D01*
X4943991Y-14610174D02*
X4953515Y-14629222D01*
X4953515Y-14629222D02*
X4953515Y-14733984D01*
X5343991Y-14524460D02*
X5172563Y-14781603D01*
X5601134Y-14533984D02*
X5620182Y-14533984D01*
X5620182Y-14533984D02*
X5639229Y-14543508D01*
X5639229Y-14543508D02*
X5648753Y-14553031D01*
X5648753Y-14553031D02*
X5658277Y-14572079D01*
X5658277Y-14572079D02*
X5667801Y-14610174D01*
X5667801Y-14610174D02*
X5667801Y-14657793D01*
X5667801Y-14657793D02*
X5658277Y-14695888D01*
X5658277Y-14695888D02*
X5648753Y-14714936D01*
X5648753Y-14714936D02*
X5639229Y-14724460D01*
X5639229Y-14724460D02*
X5620182Y-14733984D01*
X5620182Y-14733984D02*
X5601134Y-14733984D01*
X5601134Y-14733984D02*
X5582087Y-14724460D01*
X5582087Y-14724460D02*
X5572563Y-14714936D01*
X5572563Y-14714936D02*
X5563039Y-14695888D01*
X5563039Y-14695888D02*
X5553515Y-14657793D01*
X5553515Y-14657793D02*
X5553515Y-14610174D01*
X5553515Y-14610174D02*
X5563039Y-14572079D01*
X5563039Y-14572079D02*
X5572563Y-14553031D01*
X5572563Y-14553031D02*
X5582087Y-14543508D01*
X5582087Y-14543508D02*
X5601134Y-14533984D01*
X5753515Y-14714936D02*
X5763039Y-14724460D01*
X5763039Y-14724460D02*
X5753515Y-14733984D01*
X5753515Y-14733984D02*
X5743991Y-14724460D01*
X5743991Y-14724460D02*
X5753515Y-14714936D01*
X5753515Y-14714936D02*
X5753515Y-14733984D01*
X5953515Y-14733984D02*
X5839229Y-14733984D01*
X5896372Y-14733984D02*
X5896372Y-14533984D01*
X5896372Y-14533984D02*
X5877325Y-14562555D01*
X5877325Y-14562555D02*
X5858277Y-14581603D01*
X5858277Y-14581603D02*
X5839229Y-14591127D01*
X6077325Y-14533984D02*
X6096372Y-14533984D01*
X6096372Y-14533984D02*
X6115420Y-14543508D01*
X6115420Y-14543508D02*
X6124944Y-14553031D01*
X6124944Y-14553031D02*
X6134467Y-14572079D01*
X6134467Y-14572079D02*
X6143991Y-14610174D01*
X6143991Y-14610174D02*
X6143991Y-14657793D01*
X6143991Y-14657793D02*
X6134467Y-14695888D01*
X6134467Y-14695888D02*
X6124944Y-14714936D01*
X6124944Y-14714936D02*
X6115420Y-14724460D01*
X6115420Y-14724460D02*
X6096372Y-14733984D01*
X6096372Y-14733984D02*
X6077325Y-14733984D01*
X6077325Y-14733984D02*
X6058277Y-14724460D01*
X6058277Y-14724460D02*
X6048753Y-14714936D01*
X6048753Y-14714936D02*
X6039229Y-14695888D01*
X6039229Y-14695888D02*
X6029706Y-14657793D01*
X6029706Y-14657793D02*
X6029706Y-14610174D01*
X6029706Y-14610174D02*
X6039229Y-14572079D01*
X6039229Y-14572079D02*
X6048753Y-14553031D01*
X6048753Y-14553031D02*
X6058277Y-14543508D01*
X6058277Y-14543508D02*
X6077325Y-14533984D01*
X6315420Y-14533984D02*
X6277325Y-14533984D01*
X6277325Y-14533984D02*
X6258277Y-14543508D01*
X6258277Y-14543508D02*
X6248753Y-14553031D01*
X6248753Y-14553031D02*
X6229706Y-14581603D01*
X6229706Y-14581603D02*
X6220182Y-14619698D01*
X6220182Y-14619698D02*
X6220182Y-14695888D01*
X6220182Y-14695888D02*
X6229706Y-14714936D01*
X6229706Y-14714936D02*
X6239229Y-14724460D01*
X6239229Y-14724460D02*
X6258277Y-14733984D01*
X6258277Y-14733984D02*
X6296372Y-14733984D01*
X6296372Y-14733984D02*
X6315420Y-14724460D01*
X6315420Y-14724460D02*
X6324944Y-14714936D01*
X6324944Y-14714936D02*
X6334467Y-14695888D01*
X6334467Y-14695888D02*
X6334467Y-14648269D01*
X6334467Y-14648269D02*
X6324944Y-14629222D01*
X6324944Y-14629222D02*
X6315420Y-14619698D01*
X6315420Y-14619698D02*
X6296372Y-14610174D01*
X6296372Y-14610174D02*
X6258277Y-14610174D01*
X6258277Y-14610174D02*
X6239229Y-14619698D01*
X6239229Y-14619698D02*
X6229706Y-14629222D01*
X6229706Y-14629222D02*
X6220182Y-14648269D01*
X6401134Y-14533984D02*
X6524944Y-14533984D01*
X6524944Y-14533984D02*
X6458277Y-14610174D01*
X6458277Y-14610174D02*
X6486848Y-14610174D01*
X6486848Y-14610174D02*
X6505896Y-14619698D01*
X6505896Y-14619698D02*
X6515420Y-14629222D01*
X6515420Y-14629222D02*
X6524944Y-14648269D01*
X6524944Y-14648269D02*
X6524944Y-14695888D01*
X6524944Y-14695888D02*
X6515420Y-14714936D01*
X6515420Y-14714936D02*
X6505896Y-14724460D01*
X6505896Y-14724460D02*
X6486848Y-14733984D01*
X6486848Y-14733984D02*
X6429706Y-14733984D01*
X6429706Y-14733984D02*
X6410658Y-14724460D01*
X6410658Y-14724460D02*
X6401134Y-14714936D01*
X6601134Y-14533984D02*
X6601134Y-14572079D01*
X6677325Y-14533984D02*
X6677325Y-14572079D01*
X6972563Y-14810174D02*
X6963039Y-14800650D01*
X6963039Y-14800650D02*
X6943991Y-14772079D01*
X6943991Y-14772079D02*
X6934468Y-14753031D01*
X6934468Y-14753031D02*
X6924944Y-14724460D01*
X6924944Y-14724460D02*
X6915420Y-14676841D01*
X6915420Y-14676841D02*
X6915420Y-14638746D01*
X6915420Y-14638746D02*
X6924944Y-14591127D01*
X6924944Y-14591127D02*
X6934468Y-14562555D01*
X6934468Y-14562555D02*
X6943991Y-14543508D01*
X6943991Y-14543508D02*
X6963039Y-14514936D01*
X6963039Y-14514936D02*
X6972563Y-14505412D01*
X7134468Y-14600650D02*
X7134468Y-14733984D01*
X7086848Y-14524460D02*
X7039229Y-14667317D01*
X7039229Y-14667317D02*
X7163039Y-14667317D01*
X7391610Y-14733984D02*
X7391610Y-14533984D01*
X7477325Y-14733984D02*
X7477325Y-14629222D01*
X7477325Y-14629222D02*
X7467801Y-14610174D01*
X7467801Y-14610174D02*
X7448753Y-14600650D01*
X7448753Y-14600650D02*
X7420182Y-14600650D01*
X7420182Y-14600650D02*
X7401134Y-14610174D01*
X7401134Y-14610174D02*
X7391610Y-14619698D01*
X7601134Y-14733984D02*
X7582087Y-14724460D01*
X7582087Y-14724460D02*
X7572563Y-14714936D01*
X7572563Y-14714936D02*
X7563039Y-14695888D01*
X7563039Y-14695888D02*
X7563039Y-14638746D01*
X7563039Y-14638746D02*
X7572563Y-14619698D01*
X7572563Y-14619698D02*
X7582087Y-14610174D01*
X7582087Y-14610174D02*
X7601134Y-14600650D01*
X7601134Y-14600650D02*
X7629706Y-14600650D01*
X7629706Y-14600650D02*
X7648753Y-14610174D01*
X7648753Y-14610174D02*
X7658277Y-14619698D01*
X7658277Y-14619698D02*
X7667801Y-14638746D01*
X7667801Y-14638746D02*
X7667801Y-14695888D01*
X7667801Y-14695888D02*
X7658277Y-14714936D01*
X7658277Y-14714936D02*
X7648753Y-14724460D01*
X7648753Y-14724460D02*
X7629706Y-14733984D01*
X7629706Y-14733984D02*
X7601134Y-14733984D01*
X7782087Y-14733984D02*
X7763039Y-14724460D01*
X7763039Y-14724460D02*
X7753515Y-14705412D01*
X7753515Y-14705412D02*
X7753515Y-14533984D01*
X7934468Y-14724460D02*
X7915420Y-14733984D01*
X7915420Y-14733984D02*
X7877325Y-14733984D01*
X7877325Y-14733984D02*
X7858277Y-14724460D01*
X7858277Y-14724460D02*
X7848753Y-14705412D01*
X7848753Y-14705412D02*
X7848753Y-14629222D01*
X7848753Y-14629222D02*
X7858277Y-14610174D01*
X7858277Y-14610174D02*
X7877325Y-14600650D01*
X7877325Y-14600650D02*
X7915420Y-14600650D01*
X7915420Y-14600650D02*
X7934468Y-14610174D01*
X7934468Y-14610174D02*
X7943991Y-14629222D01*
X7943991Y-14629222D02*
X7943991Y-14648269D01*
X7943991Y-14648269D02*
X7848753Y-14667317D01*
X8020182Y-14724460D02*
X8039230Y-14733984D01*
X8039230Y-14733984D02*
X8077325Y-14733984D01*
X8077325Y-14733984D02*
X8096372Y-14724460D01*
X8096372Y-14724460D02*
X8105896Y-14705412D01*
X8105896Y-14705412D02*
X8105896Y-14695888D01*
X8105896Y-14695888D02*
X8096372Y-14676841D01*
X8096372Y-14676841D02*
X8077325Y-14667317D01*
X8077325Y-14667317D02*
X8048753Y-14667317D01*
X8048753Y-14667317D02*
X8029706Y-14657793D01*
X8029706Y-14657793D02*
X8020182Y-14638746D01*
X8020182Y-14638746D02*
X8020182Y-14629222D01*
X8020182Y-14629222D02*
X8029706Y-14610174D01*
X8029706Y-14610174D02*
X8048753Y-14600650D01*
X8048753Y-14600650D02*
X8077325Y-14600650D01*
X8077325Y-14600650D02*
X8096372Y-14610174D01*
X8172563Y-14810174D02*
X8182087Y-14800650D01*
X8182087Y-14800650D02*
X8201134Y-14772079D01*
X8201134Y-14772079D02*
X8210658Y-14753031D01*
X8210658Y-14753031D02*
X8220182Y-14724460D01*
X8220182Y-14724460D02*
X8229706Y-14676841D01*
X8229706Y-14676841D02*
X8229706Y-14638746D01*
X8229706Y-14638746D02*
X8220182Y-14591127D01*
X8220182Y-14591127D02*
X8210658Y-14562555D01*
X8210658Y-14562555D02*
X8201134Y-14543508D01*
X8201134Y-14543508D02*
X8182087Y-14514936D01*
X8182087Y-14514936D02*
X8172563Y-14505412D01*
X8534468Y-14810174D02*
X8524944Y-14800650D01*
X8524944Y-14800650D02*
X8505896Y-14772079D01*
X8505896Y-14772079D02*
X8496373Y-14753031D01*
X8496373Y-14753031D02*
X8486849Y-14724460D01*
X8486849Y-14724460D02*
X8477325Y-14676841D01*
X8477325Y-14676841D02*
X8477325Y-14638746D01*
X8477325Y-14638746D02*
X8486849Y-14591127D01*
X8486849Y-14591127D02*
X8496373Y-14562555D01*
X8496373Y-14562555D02*
X8505896Y-14543508D01*
X8505896Y-14543508D02*
X8524944Y-14514936D01*
X8524944Y-14514936D02*
X8534468Y-14505412D01*
X8610658Y-14600650D02*
X8610658Y-14733984D01*
X8610658Y-14619698D02*
X8620182Y-14610174D01*
X8620182Y-14610174D02*
X8639230Y-14600650D01*
X8639230Y-14600650D02*
X8667801Y-14600650D01*
X8667801Y-14600650D02*
X8686849Y-14610174D01*
X8686849Y-14610174D02*
X8696373Y-14629222D01*
X8696373Y-14629222D02*
X8696373Y-14733984D01*
X8820182Y-14733984D02*
X8801134Y-14724460D01*
X8801134Y-14724460D02*
X8791611Y-14714936D01*
X8791611Y-14714936D02*
X8782087Y-14695888D01*
X8782087Y-14695888D02*
X8782087Y-14638746D01*
X8782087Y-14638746D02*
X8791611Y-14619698D01*
X8791611Y-14619698D02*
X8801134Y-14610174D01*
X8801134Y-14610174D02*
X8820182Y-14600650D01*
X8820182Y-14600650D02*
X8848754Y-14600650D01*
X8848754Y-14600650D02*
X8867801Y-14610174D01*
X8867801Y-14610174D02*
X8877325Y-14619698D01*
X8877325Y-14619698D02*
X8886849Y-14638746D01*
X8886849Y-14638746D02*
X8886849Y-14695888D01*
X8886849Y-14695888D02*
X8877325Y-14714936D01*
X8877325Y-14714936D02*
X8867801Y-14724460D01*
X8867801Y-14724460D02*
X8848754Y-14733984D01*
X8848754Y-14733984D02*
X8820182Y-14733984D01*
X8943992Y-14600650D02*
X9020182Y-14600650D01*
X8972563Y-14533984D02*
X8972563Y-14705412D01*
X8972563Y-14705412D02*
X8982087Y-14724460D01*
X8982087Y-14724460D02*
X9001134Y-14733984D01*
X9001134Y-14733984D02*
X9020182Y-14733984D01*
X9239230Y-14600650D02*
X9239230Y-14800650D01*
X9239230Y-14610174D02*
X9258277Y-14600650D01*
X9258277Y-14600650D02*
X9296373Y-14600650D01*
X9296373Y-14600650D02*
X9315420Y-14610174D01*
X9315420Y-14610174D02*
X9324944Y-14619698D01*
X9324944Y-14619698D02*
X9334468Y-14638746D01*
X9334468Y-14638746D02*
X9334468Y-14695888D01*
X9334468Y-14695888D02*
X9324944Y-14714936D01*
X9324944Y-14714936D02*
X9315420Y-14724460D01*
X9315420Y-14724460D02*
X9296373Y-14733984D01*
X9296373Y-14733984D02*
X9258277Y-14733984D01*
X9258277Y-14733984D02*
X9239230Y-14724460D01*
X9448754Y-14733984D02*
X9429706Y-14724460D01*
X9429706Y-14724460D02*
X9420182Y-14705412D01*
X9420182Y-14705412D02*
X9420182Y-14533984D01*
X9610658Y-14733984D02*
X9610658Y-14629222D01*
X9610658Y-14629222D02*
X9601135Y-14610174D01*
X9601135Y-14610174D02*
X9582087Y-14600650D01*
X9582087Y-14600650D02*
X9543992Y-14600650D01*
X9543992Y-14600650D02*
X9524944Y-14610174D01*
X9610658Y-14724460D02*
X9591611Y-14733984D01*
X9591611Y-14733984D02*
X9543992Y-14733984D01*
X9543992Y-14733984D02*
X9524944Y-14724460D01*
X9524944Y-14724460D02*
X9515420Y-14705412D01*
X9515420Y-14705412D02*
X9515420Y-14686365D01*
X9515420Y-14686365D02*
X9524944Y-14667317D01*
X9524944Y-14667317D02*
X9543992Y-14657793D01*
X9543992Y-14657793D02*
X9591611Y-14657793D01*
X9591611Y-14657793D02*
X9610658Y-14648269D01*
X9677325Y-14600650D02*
X9753515Y-14600650D01*
X9705896Y-14533984D02*
X9705896Y-14705412D01*
X9705896Y-14705412D02*
X9715420Y-14724460D01*
X9715420Y-14724460D02*
X9734468Y-14733984D01*
X9734468Y-14733984D02*
X9753515Y-14733984D01*
X9896373Y-14724460D02*
X9877325Y-14733984D01*
X9877325Y-14733984D02*
X9839230Y-14733984D01*
X9839230Y-14733984D02*
X9820182Y-14724460D01*
X9820182Y-14724460D02*
X9810658Y-14705412D01*
X9810658Y-14705412D02*
X9810658Y-14629222D01*
X9810658Y-14629222D02*
X9820182Y-14610174D01*
X9820182Y-14610174D02*
X9839230Y-14600650D01*
X9839230Y-14600650D02*
X9877325Y-14600650D01*
X9877325Y-14600650D02*
X9896373Y-14610174D01*
X9896373Y-14610174D02*
X9905896Y-14629222D01*
X9905896Y-14629222D02*
X9905896Y-14648269D01*
X9905896Y-14648269D02*
X9810658Y-14667317D01*
X10077325Y-14733984D02*
X10077325Y-14533984D01*
X10077325Y-14724460D02*
X10058277Y-14733984D01*
X10058277Y-14733984D02*
X10020182Y-14733984D01*
X10020182Y-14733984D02*
X10001135Y-14724460D01*
X10001135Y-14724460D02*
X9991611Y-14714936D01*
X9991611Y-14714936D02*
X9982087Y-14695888D01*
X9982087Y-14695888D02*
X9982087Y-14638746D01*
X9982087Y-14638746D02*
X9991611Y-14619698D01*
X9991611Y-14619698D02*
X10001135Y-14610174D01*
X10001135Y-14610174D02*
X10020182Y-14600650D01*
X10020182Y-14600650D02*
X10058277Y-14600650D01*
X10058277Y-14600650D02*
X10077325Y-14610174D01*
X10153516Y-14810174D02*
X10163039Y-14800650D01*
X10163039Y-14800650D02*
X10182087Y-14772079D01*
X10182087Y-14772079D02*
X10191611Y-14753031D01*
X10191611Y-14753031D02*
X10201135Y-14724460D01*
X10201135Y-14724460D02*
X10210658Y-14676841D01*
X10210658Y-14676841D02*
X10210658Y-14638746D01*
X10210658Y-14638746D02*
X10201135Y-14591127D01*
X10201135Y-14591127D02*
X10191611Y-14562555D01*
X10191611Y-14562555D02*
X10182087Y-14543508D01*
X10182087Y-14543508D02*
X10163039Y-14514936D01*
X10163039Y-14514936D02*
X10153516Y-14505412D01*
M02*
