%TF.GenerationSoftware,KiCad,Pcbnew,8.0.1-8.0.1-0~ubuntu23.10.1*%
%TF.CreationDate,2024-04-25T23:44:30+01:00*%
%TF.ProjectId,g5500-pidrive,67353530-302d-4706-9964-726976652e6b,rev?*%
%TF.SameCoordinates,Original*%
%TF.FileFunction,Drillmap*%
%TF.FilePolarity,Positive*%
%FSLAX45Y45*%
G04 Gerber Fmt 4.5, Leading zero omitted, Abs format (unit mm)*
G04 Created by KiCad (PCBNEW 8.0.1-8.0.1-0~ubuntu23.10.1) date 2024-04-25 23:44:30*
%MOMM*%
%LPD*%
G01*
G04 APERTURE LIST*
%ADD10C,0.050000*%
%ADD11C,0.200000*%
%ADD12C,0.100000*%
%ADD13C,0.110000*%
%ADD14C,0.130000*%
G04 APERTURE END LIST*
D10*
X12400000Y-3400000D02*
X12400000Y-13800000D01*
X12200000Y-3200000D02*
G75*
G02*
X12400000Y-3400000I0J-200000D01*
G01*
X12400000Y-13800000D02*
G75*
G02*
X12200000Y-14000000I-200000J0D01*
G01*
X3600000Y-14000000D02*
X12200000Y-14000000D01*
X3600000Y-14000000D02*
G75*
G02*
X3400000Y-13800000I0J200000D01*
G01*
X3400000Y-3400000D02*
G75*
G02*
X3600000Y-3200000I200000J0D01*
G01*
X3400000Y-3400000D02*
X3400000Y-13800000D01*
X3600000Y-3200000D02*
X12200000Y-3200000D01*
D11*
D12*
X3785000Y-11885000D02*
X3815000Y-11915000D01*
X3815000Y-11885000D02*
X3785000Y-11915000D01*
X4345000Y-11885000D02*
X4375000Y-11915000D01*
X4375000Y-11885000D02*
X4345000Y-11915000D01*
X4425000Y-9725000D02*
X4455000Y-9755000D01*
X4455000Y-9725000D02*
X4425000Y-9755000D01*
X4425000Y-10945000D02*
X4455000Y-10975000D01*
X4455000Y-10945000D02*
X4425000Y-10975000D01*
X4685000Y-9985000D02*
X4715000Y-10015000D01*
X4715000Y-9985000D02*
X4685000Y-10015000D01*
X4885000Y-10005000D02*
X4915000Y-10035000D01*
X4915000Y-10005000D02*
X4885000Y-10035000D01*
X5125000Y-11885000D02*
X5155000Y-11915000D01*
X5155000Y-11885000D02*
X5125000Y-11915000D01*
X5445000Y-7025000D02*
X5475000Y-7055000D01*
X5475000Y-7025000D02*
X5445000Y-7055000D01*
X5445000Y-7165000D02*
X5475000Y-7195000D01*
X5475000Y-7165000D02*
X5445000Y-7195000D01*
X5465000Y-6645000D02*
X5495000Y-6675000D01*
X5495000Y-6645000D02*
X5465000Y-6675000D01*
X5465000Y-6765000D02*
X5495000Y-6795000D01*
X5495000Y-6765000D02*
X5465000Y-6795000D01*
X5745000Y-12285000D02*
X5775000Y-12315000D01*
X5775000Y-12285000D02*
X5745000Y-12315000D01*
X6405000Y-7945000D02*
X6435000Y-7975000D01*
X6435000Y-7945000D02*
X6405000Y-7975000D01*
X6565000Y-5865000D02*
X6595000Y-5895000D01*
X6595000Y-5865000D02*
X6565000Y-5895000D01*
X6605000Y-4685000D02*
X6635000Y-4715000D01*
X6635000Y-4685000D02*
X6605000Y-4715000D01*
X6705000Y-5865000D02*
X6735000Y-5895000D01*
X6735000Y-5865000D02*
X6705000Y-5895000D01*
X6725000Y-8505000D02*
X6755000Y-8535000D01*
X6755000Y-8505000D02*
X6725000Y-8535000D01*
X6725000Y-8845000D02*
X6755000Y-8875000D01*
X6755000Y-8845000D02*
X6725000Y-8875000D01*
X6825000Y-5865000D02*
X6855000Y-5895000D01*
X6855000Y-5865000D02*
X6825000Y-5895000D01*
X6945000Y-5285000D02*
X6975000Y-5315000D01*
X6975000Y-5285000D02*
X6945000Y-5315000D01*
X7125000Y-5005000D02*
X7155000Y-5035000D01*
X7155000Y-5005000D02*
X7125000Y-5035000D01*
X7125000Y-5225000D02*
X7155000Y-5255000D01*
X7155000Y-5225000D02*
X7125000Y-5255000D01*
X7245000Y-4765000D02*
X7275000Y-4795000D01*
X7275000Y-4765000D02*
X7245000Y-4795000D01*
X7345000Y-8985000D02*
X7375000Y-9015000D01*
X7375000Y-8985000D02*
X7345000Y-9015000D01*
X7405000Y-5225000D02*
X7435000Y-5255000D01*
X7435000Y-5225000D02*
X7405000Y-5255000D01*
X7485000Y-8065000D02*
X7515000Y-8095000D01*
X7515000Y-8065000D02*
X7485000Y-8095000D01*
X7485000Y-8425000D02*
X7515000Y-8455000D01*
X7515000Y-8425000D02*
X7485000Y-8455000D01*
X7485000Y-8625000D02*
X7515000Y-8655000D01*
X7515000Y-8625000D02*
X7485000Y-8655000D01*
X7685000Y-9785000D02*
X7715000Y-9815000D01*
X7715000Y-9785000D02*
X7685000Y-9815000D01*
X7725000Y-8985000D02*
X7755000Y-9015000D01*
X7755000Y-8985000D02*
X7725000Y-9015000D01*
X7832000Y-10528500D02*
X7862000Y-10558500D01*
X7862000Y-10528500D02*
X7832000Y-10558500D01*
X7865000Y-8065000D02*
X7895000Y-8095000D01*
X7895000Y-8065000D02*
X7865000Y-8095000D01*
X7914375Y-5190625D02*
X7944375Y-5220625D01*
X7944375Y-5190625D02*
X7914375Y-5220625D01*
X7914375Y-5670625D02*
X7944375Y-5700625D01*
X7944375Y-5670625D02*
X7914375Y-5700625D01*
X8065000Y-9685000D02*
X8095000Y-9715000D01*
X8095000Y-9685000D02*
X8065000Y-9715000D01*
X8225000Y-9565000D02*
X8255000Y-9595000D01*
X8255000Y-9565000D02*
X8225000Y-9595000D01*
X8265000Y-7865000D02*
X8295000Y-7895000D01*
X8295000Y-7865000D02*
X8265000Y-7895000D01*
X8265000Y-7985000D02*
X8295000Y-8015000D01*
X8295000Y-7985000D02*
X8265000Y-8015000D01*
X8385000Y-6845000D02*
X8415000Y-6875000D01*
X8415000Y-6845000D02*
X8385000Y-6875000D01*
X8391000Y-7048000D02*
X8421000Y-7078000D01*
X8421000Y-7048000D02*
X8391000Y-7078000D01*
X8665000Y-8785000D02*
X8695000Y-8815000D01*
X8695000Y-8785000D02*
X8665000Y-8815000D01*
X8681250Y-5601250D02*
X8711250Y-5631250D01*
X8711250Y-5601250D02*
X8681250Y-5631250D01*
X8705000Y-8545000D02*
X8735000Y-8575000D01*
X8735000Y-8545000D02*
X8705000Y-8575000D01*
X8732000Y-10528500D02*
X8762000Y-10558500D01*
X8762000Y-10528500D02*
X8732000Y-10558500D01*
X9125000Y-5385000D02*
X9155000Y-5415000D01*
X9155000Y-5385000D02*
X9125000Y-5415000D01*
X9144750Y-6763000D02*
X9174750Y-6793000D01*
X9174750Y-6763000D02*
X9144750Y-6793000D01*
X9144750Y-7223000D02*
X9174750Y-7253000D01*
X9174750Y-7223000D02*
X9144750Y-7253000D01*
X9485000Y-3885000D02*
X9515000Y-3915000D01*
X9515000Y-3885000D02*
X9485000Y-3915000D01*
X9584000Y-9004000D02*
X9614000Y-9034000D01*
X9614000Y-9004000D02*
X9584000Y-9034000D01*
X9585000Y-4305000D02*
X9615000Y-4335000D01*
X9615000Y-4305000D02*
X9585000Y-4335000D01*
X9585000Y-8545000D02*
X9615000Y-8575000D01*
X9615000Y-8545000D02*
X9585000Y-8575000D01*
X9705000Y-8045000D02*
X9735000Y-8075000D01*
X9735000Y-8045000D02*
X9705000Y-8075000D01*
X9705000Y-8445000D02*
X9735000Y-8475000D01*
X9735000Y-8445000D02*
X9705000Y-8475000D01*
X9705000Y-8645000D02*
X9735000Y-8675000D01*
X9735000Y-8645000D02*
X9705000Y-8675000D01*
X9725000Y-4505000D02*
X9755000Y-4535000D01*
X9755000Y-4505000D02*
X9725000Y-4535000D01*
X9929750Y-6924250D02*
X9959750Y-6954250D01*
X9959750Y-6924250D02*
X9929750Y-6954250D01*
X9965000Y-9005000D02*
X9995000Y-9035000D01*
X9995000Y-9005000D02*
X9965000Y-9035000D01*
X10085000Y-8045000D02*
X10115000Y-8075000D01*
X10115000Y-8045000D02*
X10085000Y-8075000D01*
X10325000Y-10528500D02*
X10355000Y-10558500D01*
X10355000Y-10528500D02*
X10325000Y-10558500D01*
X10346000Y-8646000D02*
X10376000Y-8676000D01*
X10376000Y-8646000D02*
X10346000Y-8676000D01*
X10566500Y-9626500D02*
X10596500Y-9656500D01*
X10596500Y-9626500D02*
X10566500Y-9656500D01*
X10745000Y-9625000D02*
X10775000Y-9655000D01*
X10775000Y-9625000D02*
X10745000Y-9655000D01*
X11205000Y-10528500D02*
X11235000Y-10558500D01*
X11235000Y-10528500D02*
X11205000Y-10558500D01*
X11445000Y-9365000D02*
X11475000Y-9395000D01*
X11475000Y-9365000D02*
X11445000Y-9395000D01*
X11626500Y-9626500D02*
X11656500Y-9656500D01*
X11656500Y-9626500D02*
X11626500Y-9656500D01*
X8096500Y-10766000D02*
G75*
G02*
X8066500Y-10766000I-15000J0D01*
G01*
X8066500Y-10766000D02*
G75*
G02*
X8096500Y-10766000I15000J0D01*
G01*
X8096500Y-10861000D02*
G75*
G02*
X8066500Y-10861000I-15000J0D01*
G01*
X8066500Y-10861000D02*
G75*
G02*
X8096500Y-10861000I15000J0D01*
G01*
X8191500Y-10766000D02*
G75*
G02*
X8161500Y-10766000I-15000J0D01*
G01*
X8161500Y-10766000D02*
G75*
G02*
X8191500Y-10766000I15000J0D01*
G01*
X8191500Y-10861000D02*
G75*
G02*
X8161500Y-10861000I-15000J0D01*
G01*
X8161500Y-10861000D02*
G75*
G02*
X8191500Y-10861000I15000J0D01*
G01*
X8286500Y-10766000D02*
G75*
G02*
X8256500Y-10766000I-15000J0D01*
G01*
X8256500Y-10766000D02*
G75*
G02*
X8286500Y-10766000I15000J0D01*
G01*
X8286500Y-10861000D02*
G75*
G02*
X8256500Y-10861000I-15000J0D01*
G01*
X8256500Y-10861000D02*
G75*
G02*
X8286500Y-10861000I15000J0D01*
G01*
X8983500Y-10766000D02*
G75*
G02*
X8953500Y-10766000I-15000J0D01*
G01*
X8953500Y-10766000D02*
G75*
G02*
X8983500Y-10766000I15000J0D01*
G01*
X8983500Y-10861000D02*
G75*
G02*
X8953500Y-10861000I-15000J0D01*
G01*
X8953500Y-10861000D02*
G75*
G02*
X8983500Y-10861000I15000J0D01*
G01*
X9078500Y-10766000D02*
G75*
G02*
X9048500Y-10766000I-15000J0D01*
G01*
X9048500Y-10766000D02*
G75*
G02*
X9078500Y-10766000I15000J0D01*
G01*
X9078500Y-10861000D02*
G75*
G02*
X9048500Y-10861000I-15000J0D01*
G01*
X9048500Y-10861000D02*
G75*
G02*
X9078500Y-10861000I15000J0D01*
G01*
X9173500Y-10766000D02*
G75*
G02*
X9143500Y-10766000I-15000J0D01*
G01*
X9143500Y-10766000D02*
G75*
G02*
X9173500Y-10766000I15000J0D01*
G01*
X9173500Y-10861000D02*
G75*
G02*
X9143500Y-10861000I-15000J0D01*
G01*
X9143500Y-10861000D02*
G75*
G02*
X9173500Y-10861000I15000J0D01*
G01*
X10596500Y-10766000D02*
G75*
G02*
X10566500Y-10766000I-15000J0D01*
G01*
X10566500Y-10766000D02*
G75*
G02*
X10596500Y-10766000I15000J0D01*
G01*
X10596500Y-10861000D02*
G75*
G02*
X10566500Y-10861000I-15000J0D01*
G01*
X10566500Y-10861000D02*
G75*
G02*
X10596500Y-10861000I15000J0D01*
G01*
X10691500Y-10766000D02*
G75*
G02*
X10661500Y-10766000I-15000J0D01*
G01*
X10661500Y-10766000D02*
G75*
G02*
X10691500Y-10766000I15000J0D01*
G01*
X10691500Y-10861000D02*
G75*
G02*
X10661500Y-10861000I-15000J0D01*
G01*
X10661500Y-10861000D02*
G75*
G02*
X10691500Y-10861000I15000J0D01*
G01*
X10786500Y-10766000D02*
G75*
G02*
X10756500Y-10766000I-15000J0D01*
G01*
X10756500Y-10766000D02*
G75*
G02*
X10786500Y-10766000I15000J0D01*
G01*
X10786500Y-10861000D02*
G75*
G02*
X10756500Y-10861000I-15000J0D01*
G01*
X10756500Y-10861000D02*
G75*
G02*
X10786500Y-10861000I15000J0D01*
G01*
X11476500Y-10766000D02*
G75*
G02*
X11446500Y-10766000I-15000J0D01*
G01*
X11446500Y-10766000D02*
G75*
G02*
X11476500Y-10766000I15000J0D01*
G01*
X11476500Y-10861000D02*
G75*
G02*
X11446500Y-10861000I-15000J0D01*
G01*
X11446500Y-10861000D02*
G75*
G02*
X11476500Y-10861000I15000J0D01*
G01*
X11571500Y-10766000D02*
G75*
G02*
X11541500Y-10766000I-15000J0D01*
G01*
X11541500Y-10766000D02*
G75*
G02*
X11571500Y-10766000I15000J0D01*
G01*
X11571500Y-10861000D02*
G75*
G02*
X11541500Y-10861000I-15000J0D01*
G01*
X11541500Y-10861000D02*
G75*
G02*
X11571500Y-10861000I15000J0D01*
G01*
X11666500Y-10766000D02*
G75*
G02*
X11636500Y-10766000I-15000J0D01*
G01*
X11636500Y-10766000D02*
G75*
G02*
X11666500Y-10766000I15000J0D01*
G01*
X11666500Y-10861000D02*
G75*
G02*
X11636500Y-10861000I-15000J0D01*
G01*
X11636500Y-10861000D02*
G75*
G02*
X11666500Y-10861000I15000J0D01*
G01*
X5984000Y-9987000D02*
X5984000Y-10057000D01*
X5949000Y-10022000D02*
X6019000Y-10022000D01*
X5984000Y-10241000D02*
X5984000Y-10311000D01*
X5949000Y-10276000D02*
X6019000Y-10276000D01*
X5984000Y-11765000D02*
X5984000Y-11835000D01*
X5949000Y-11800000D02*
X6019000Y-11800000D01*
X7000000Y-9987000D02*
X7000000Y-10057000D01*
X6965000Y-10022000D02*
X7035000Y-10022000D01*
X7000000Y-11765000D02*
X7000000Y-11835000D01*
X6965000Y-11800000D02*
X7035000Y-11800000D01*
X7715284Y-12523784D02*
X7715284Y-12467215D01*
X7658715Y-12467215D01*
X7658715Y-12523784D01*
X7715284Y-12523784D01*
X7715284Y-13539784D02*
X7715284Y-13483215D01*
X7658715Y-13483215D01*
X7658715Y-13539784D01*
X7715284Y-13539784D01*
X7985284Y-11771784D02*
X7985284Y-11715215D01*
X7928715Y-11715215D01*
X7928715Y-11771784D01*
X7985284Y-11771784D01*
X7995284Y-12523784D02*
X7995284Y-12467215D01*
X7938715Y-12467215D01*
X7938715Y-12523784D01*
X7995284Y-12523784D01*
X7995284Y-13539784D02*
X7995284Y-13483215D01*
X7938715Y-13483215D01*
X7938715Y-13539784D01*
X7995284Y-13539784D01*
X8335284Y-11771784D02*
X8335284Y-11715215D01*
X8278715Y-11715215D01*
X8278715Y-11771784D01*
X8335284Y-11771784D01*
X8865285Y-11771784D02*
X8865285Y-11715215D01*
X8808716Y-11715215D01*
X8808716Y-11771784D01*
X8865285Y-11771784D01*
X9215285Y-11771784D02*
X9215285Y-11715215D01*
X9158716Y-11715215D01*
X9158716Y-11771784D01*
X9215285Y-11771784D01*
X9215285Y-12523784D02*
X9215285Y-12467215D01*
X9158716Y-12467215D01*
X9158716Y-12523784D01*
X9215285Y-12523784D01*
X9215285Y-13539784D02*
X9215285Y-13483215D01*
X9158716Y-13483215D01*
X9158716Y-13539784D01*
X9215285Y-13539784D01*
X9495285Y-12523784D02*
X9495285Y-12467215D01*
X9438716Y-12467215D01*
X9438716Y-12523784D01*
X9495285Y-12523784D01*
X9495285Y-13539784D02*
X9495285Y-13483215D01*
X9438716Y-13483215D01*
X9438716Y-13539784D01*
X9495285Y-13539784D01*
X10268285Y-12535784D02*
X10268285Y-12479215D01*
X10211716Y-12479215D01*
X10211716Y-12535784D01*
X10268285Y-12535784D01*
X10268285Y-13551784D02*
X10268285Y-13495215D01*
X10211716Y-13495215D01*
X10211716Y-13551784D01*
X10268285Y-13551784D01*
X10498285Y-11731784D02*
X10498285Y-11675215D01*
X10441716Y-11675215D01*
X10441716Y-11731784D01*
X10498285Y-11731784D01*
X10548285Y-12535784D02*
X10548285Y-12479215D01*
X10491716Y-12479215D01*
X10491716Y-12535784D01*
X10548285Y-12535784D01*
X10548285Y-13551784D02*
X10548285Y-13495215D01*
X10491716Y-13495215D01*
X10491716Y-13551784D01*
X10548285Y-13551784D01*
X10848285Y-11731784D02*
X10848285Y-11675215D01*
X10791716Y-11675215D01*
X10791716Y-11731784D01*
X10848285Y-11731784D01*
X11402784Y-11731784D02*
X11402784Y-11675215D01*
X11346215Y-11675215D01*
X11346215Y-11731784D01*
X11402784Y-11731784D01*
X11752784Y-11731784D02*
X11752784Y-11675215D01*
X11696215Y-11675215D01*
X11696215Y-11731784D01*
X11752784Y-11731784D01*
X11768284Y-12535784D02*
X11768284Y-12479215D01*
X11711715Y-12479215D01*
X11711715Y-12535784D01*
X11768284Y-12535784D01*
X11768284Y-13551784D02*
X11768284Y-13495215D01*
X11711715Y-13495215D01*
X11711715Y-13551784D01*
X11768284Y-13551784D01*
X12048284Y-12535784D02*
X12048284Y-12479215D01*
X11991715Y-12479215D01*
X11991715Y-12535784D01*
X12048284Y-12535784D01*
X12048284Y-13551784D02*
X12048284Y-13495215D01*
X11991715Y-13495215D01*
X11991715Y-13551784D01*
X12048284Y-13551784D01*
X4426000Y-12430000D02*
X4476000Y-12380000D01*
X4426000Y-12330000D01*
X4376000Y-12380000D01*
X4426000Y-12430000D01*
X4480000Y-4418000D02*
X4530000Y-4368000D01*
X4480000Y-4318000D01*
X4430000Y-4368000D01*
X4480000Y-4418000D01*
X4480000Y-4672000D02*
X4530000Y-4622000D01*
X4480000Y-4572000D01*
X4430000Y-4622000D01*
X4480000Y-4672000D01*
X4480000Y-4926000D02*
X4530000Y-4876000D01*
X4480000Y-4826000D01*
X4430000Y-4876000D01*
X4480000Y-4926000D01*
X4480000Y-5180000D02*
X4530000Y-5130000D01*
X4480000Y-5080000D01*
X4430000Y-5130000D01*
X4480000Y-5180000D01*
X4480000Y-5434000D02*
X4530000Y-5384000D01*
X4480000Y-5334000D01*
X4430000Y-5384000D01*
X4480000Y-5434000D01*
X4480000Y-5688000D02*
X4530000Y-5638000D01*
X4480000Y-5588000D01*
X4430000Y-5638000D01*
X4480000Y-5688000D01*
X4480000Y-5942000D02*
X4530000Y-5892000D01*
X4480000Y-5842000D01*
X4430000Y-5892000D01*
X4480000Y-5942000D01*
X4480000Y-6196000D02*
X4530000Y-6146000D01*
X4480000Y-6096000D01*
X4430000Y-6146000D01*
X4480000Y-6196000D01*
X4480000Y-6450000D02*
X4530000Y-6400000D01*
X4480000Y-6350000D01*
X4430000Y-6400000D01*
X4480000Y-6450000D01*
X4480000Y-6704000D02*
X4530000Y-6654000D01*
X4480000Y-6604000D01*
X4430000Y-6654000D01*
X4480000Y-6704000D01*
X4480000Y-6958000D02*
X4530000Y-6908000D01*
X4480000Y-6858000D01*
X4430000Y-6908000D01*
X4480000Y-6958000D01*
X4480000Y-7212000D02*
X4530000Y-7162000D01*
X4480000Y-7112000D01*
X4430000Y-7162000D01*
X4480000Y-7212000D01*
X4480000Y-7466000D02*
X4530000Y-7416000D01*
X4480000Y-7366000D01*
X4430000Y-7416000D01*
X4480000Y-7466000D01*
X4480000Y-7720000D02*
X4530000Y-7670000D01*
X4480000Y-7620000D01*
X4430000Y-7670000D01*
X4480000Y-7720000D01*
X4480000Y-7974000D02*
X4530000Y-7924000D01*
X4480000Y-7874000D01*
X4430000Y-7924000D01*
X4480000Y-7974000D01*
X4480000Y-8228000D02*
X4530000Y-8178000D01*
X4480000Y-8128000D01*
X4430000Y-8178000D01*
X4480000Y-8228000D01*
X4480000Y-8482000D02*
X4530000Y-8432000D01*
X4480000Y-8382000D01*
X4430000Y-8432000D01*
X4480000Y-8482000D01*
X4480000Y-8736000D02*
X4530000Y-8686000D01*
X4480000Y-8636000D01*
X4430000Y-8686000D01*
X4480000Y-8736000D01*
X4480000Y-8990000D02*
X4530000Y-8940000D01*
X4480000Y-8890000D01*
X4430000Y-8940000D01*
X4480000Y-8990000D01*
X4480000Y-9244000D02*
X4530000Y-9194000D01*
X4480000Y-9144000D01*
X4430000Y-9194000D01*
X4480000Y-9244000D01*
X4680000Y-12430000D02*
X4730000Y-12380000D01*
X4680000Y-12330000D01*
X4630000Y-12380000D01*
X4680000Y-12430000D01*
X4734000Y-4418000D02*
X4784000Y-4368000D01*
X4734000Y-4318000D01*
X4684000Y-4368000D01*
X4734000Y-4418000D01*
X4734000Y-4672000D02*
X4784000Y-4622000D01*
X4734000Y-4572000D01*
X4684000Y-4622000D01*
X4734000Y-4672000D01*
X4734000Y-4926000D02*
X4784000Y-4876000D01*
X4734000Y-4826000D01*
X4684000Y-4876000D01*
X4734000Y-4926000D01*
X4734000Y-5180000D02*
X4784000Y-5130000D01*
X4734000Y-5080000D01*
X4684000Y-5130000D01*
X4734000Y-5180000D01*
X4734000Y-5434000D02*
X4784000Y-5384000D01*
X4734000Y-5334000D01*
X4684000Y-5384000D01*
X4734000Y-5434000D01*
X4734000Y-5688000D02*
X4784000Y-5638000D01*
X4734000Y-5588000D01*
X4684000Y-5638000D01*
X4734000Y-5688000D01*
X4734000Y-5942000D02*
X4784000Y-5892000D01*
X4734000Y-5842000D01*
X4684000Y-5892000D01*
X4734000Y-5942000D01*
X4734000Y-6196000D02*
X4784000Y-6146000D01*
X4734000Y-6096000D01*
X4684000Y-6146000D01*
X4734000Y-6196000D01*
X4734000Y-6450000D02*
X4784000Y-6400000D01*
X4734000Y-6350000D01*
X4684000Y-6400000D01*
X4734000Y-6450000D01*
X4734000Y-6704000D02*
X4784000Y-6654000D01*
X4734000Y-6604000D01*
X4684000Y-6654000D01*
X4734000Y-6704000D01*
X4734000Y-6958000D02*
X4784000Y-6908000D01*
X4734000Y-6858000D01*
X4684000Y-6908000D01*
X4734000Y-6958000D01*
X4734000Y-7212000D02*
X4784000Y-7162000D01*
X4734000Y-7112000D01*
X4684000Y-7162000D01*
X4734000Y-7212000D01*
X4734000Y-7466000D02*
X4784000Y-7416000D01*
X4734000Y-7366000D01*
X4684000Y-7416000D01*
X4734000Y-7466000D01*
X4734000Y-7720000D02*
X4784000Y-7670000D01*
X4734000Y-7620000D01*
X4684000Y-7670000D01*
X4734000Y-7720000D01*
X4734000Y-7974000D02*
X4784000Y-7924000D01*
X4734000Y-7874000D01*
X4684000Y-7924000D01*
X4734000Y-7974000D01*
X4734000Y-8228000D02*
X4784000Y-8178000D01*
X4734000Y-8128000D01*
X4684000Y-8178000D01*
X4734000Y-8228000D01*
X4734000Y-8482000D02*
X4784000Y-8432000D01*
X4734000Y-8382000D01*
X4684000Y-8432000D01*
X4734000Y-8482000D01*
X4734000Y-8736000D02*
X4784000Y-8686000D01*
X4734000Y-8636000D01*
X4684000Y-8686000D01*
X4734000Y-8736000D01*
X4734000Y-8990000D02*
X4784000Y-8940000D01*
X4734000Y-8890000D01*
X4684000Y-8940000D01*
X4734000Y-8990000D01*
X4734000Y-9244000D02*
X4784000Y-9194000D01*
X4734000Y-9144000D01*
X4684000Y-9194000D01*
X4734000Y-9244000D01*
X4934000Y-12430000D02*
X4984000Y-12380000D01*
X4934000Y-12330000D01*
X4884000Y-12380000D01*
X4934000Y-12430000D01*
X10240000Y-5623250D02*
X10290000Y-5573250D01*
X10240000Y-5523250D01*
X10190000Y-5573250D01*
X10240000Y-5623250D01*
X10240000Y-5877250D02*
X10290000Y-5827250D01*
X10240000Y-5777250D01*
X10190000Y-5827250D01*
X10240000Y-5877250D01*
X10240000Y-6131250D02*
X10290000Y-6081250D01*
X10240000Y-6031250D01*
X10190000Y-6081250D01*
X10240000Y-6131250D01*
X10240000Y-6385250D02*
X10290000Y-6335250D01*
X10240000Y-6285250D01*
X10190000Y-6335250D01*
X10240000Y-6385250D01*
X10240000Y-6639250D02*
X10290000Y-6589250D01*
X10240000Y-6539250D01*
X10190000Y-6589250D01*
X10240000Y-6639250D01*
X10240000Y-6893250D02*
X10290000Y-6843250D01*
X10240000Y-6793250D01*
X10190000Y-6843250D01*
X10240000Y-6893250D01*
X10240000Y-7147250D02*
X10290000Y-7097250D01*
X10240000Y-7047250D01*
X10190000Y-7097250D01*
X10240000Y-7147250D01*
X10240000Y-7401250D02*
X10290000Y-7351250D01*
X10240000Y-7301250D01*
X10190000Y-7351250D01*
X10240000Y-7401250D01*
X10520000Y-3942000D02*
X10570000Y-3892000D01*
X10520000Y-3842000D01*
X10470000Y-3892000D01*
X10520000Y-3942000D01*
X10520000Y-4196000D02*
X10570000Y-4146000D01*
X10520000Y-4096000D01*
X10470000Y-4146000D01*
X10520000Y-4196000D01*
X10520000Y-4450000D02*
X10570000Y-4400000D01*
X10520000Y-4350000D01*
X10470000Y-4400000D01*
X10520000Y-4450000D01*
X10520000Y-4704000D02*
X10570000Y-4654000D01*
X10520000Y-4604000D01*
X10470000Y-4654000D01*
X10520000Y-4704000D01*
D13*
X5907000Y-3880750D02*
X6017000Y-3990750D01*
X6017000Y-3880750D02*
X5907000Y-3990750D01*
X6017000Y-3935750D02*
G75*
G02*
X5907000Y-3935750I-55000J0D01*
G01*
X5907000Y-3935750D02*
G75*
G02*
X6017000Y-3935750I55000J0D01*
G01*
X6161000Y-3880750D02*
X6271000Y-3990750D01*
X6271000Y-3880750D02*
X6161000Y-3990750D01*
X6271000Y-3935750D02*
G75*
G02*
X6161000Y-3935750I-55000J0D01*
G01*
X6161000Y-3935750D02*
G75*
G02*
X6271000Y-3935750I55000J0D01*
G01*
X6415000Y-3880750D02*
X6525000Y-3990750D01*
X6525000Y-3880750D02*
X6415000Y-3990750D01*
X6525000Y-3935750D02*
G75*
G02*
X6415000Y-3935750I-55000J0D01*
G01*
X6415000Y-3935750D02*
G75*
G02*
X6525000Y-3935750I55000J0D01*
G01*
X7402250Y-3870750D02*
X7512250Y-3980750D01*
X7512250Y-3870750D02*
X7402250Y-3980750D01*
X7512250Y-3925750D02*
G75*
G02*
X7402250Y-3925750I-55000J0D01*
G01*
X7402250Y-3925750D02*
G75*
G02*
X7512250Y-3925750I55000J0D01*
G01*
X7656250Y-3870750D02*
X7766250Y-3980750D01*
X7766250Y-3870750D02*
X7656250Y-3980750D01*
X7766250Y-3925750D02*
G75*
G02*
X7656250Y-3925750I-55000J0D01*
G01*
X7656250Y-3925750D02*
G75*
G02*
X7766250Y-3925750I55000J0D01*
G01*
X7910250Y-3870750D02*
X8020250Y-3980750D01*
X8020250Y-3870750D02*
X7910250Y-3980750D01*
X8020250Y-3925750D02*
G75*
G02*
X7910250Y-3925750I-55000J0D01*
G01*
X7910250Y-3925750D02*
G75*
G02*
X8020250Y-3925750I55000J0D01*
G01*
X8264000Y-13188500D02*
X8374000Y-13298500D01*
X8374000Y-13188500D02*
X8264000Y-13298500D01*
X8374000Y-13243500D02*
G75*
G02*
X8264000Y-13243500I-55000J0D01*
G01*
X8264000Y-13243500D02*
G75*
G02*
X8374000Y-13243500I55000J0D01*
G01*
X8518000Y-13188500D02*
X8628000Y-13298500D01*
X8628000Y-13188500D02*
X8518000Y-13298500D01*
X8628000Y-13243500D02*
G75*
G02*
X8518000Y-13243500I-55000J0D01*
G01*
X8518000Y-13243500D02*
G75*
G02*
X8628000Y-13243500I55000J0D01*
G01*
X8772000Y-13188500D02*
X8882000Y-13298500D01*
X8882000Y-13188500D02*
X8772000Y-13298500D01*
X8882000Y-13243500D02*
G75*
G02*
X8772000Y-13243500I-55000J0D01*
G01*
X8772000Y-13243500D02*
G75*
G02*
X8882000Y-13243500I55000J0D01*
G01*
X10817000Y-13188500D02*
X10927000Y-13298500D01*
X10927000Y-13188500D02*
X10817000Y-13298500D01*
X10927000Y-13243500D02*
G75*
G02*
X10817000Y-13243500I-55000J0D01*
G01*
X10817000Y-13243500D02*
G75*
G02*
X10927000Y-13243500I55000J0D01*
G01*
X11071000Y-13188500D02*
X11181000Y-13298500D01*
X11181000Y-13188500D02*
X11071000Y-13298500D01*
X11181000Y-13243500D02*
G75*
G02*
X11071000Y-13243500I-55000J0D01*
G01*
X11071000Y-13243500D02*
G75*
G02*
X11181000Y-13243500I55000J0D01*
G01*
X11325000Y-13188500D02*
X11435000Y-13298500D01*
X11435000Y-13188500D02*
X11325000Y-13298500D01*
X11435000Y-13243500D02*
G75*
G02*
X11325000Y-13243500I-55000J0D01*
G01*
X11325000Y-13243500D02*
G75*
G02*
X11435000Y-13243500I55000J0D01*
G01*
X11625000Y-8371000D02*
X11735000Y-8481000D01*
X11735000Y-8371000D02*
X11625000Y-8481000D01*
X11735000Y-8426000D02*
G75*
G02*
X11625000Y-8426000I-55000J0D01*
G01*
X11625000Y-8426000D02*
G75*
G02*
X11735000Y-8426000I55000J0D01*
G01*
X11625000Y-8625000D02*
X11735000Y-8735000D01*
X11735000Y-8625000D02*
X11625000Y-8735000D01*
X11735000Y-8680000D02*
G75*
G02*
X11625000Y-8680000I-55000J0D01*
G01*
X11625000Y-8680000D02*
G75*
G02*
X11735000Y-8680000I55000J0D01*
G01*
D14*
X6107000Y-12955000D02*
X6237000Y-13085000D01*
X6237000Y-12955000D02*
X6107000Y-13085000D01*
X6172000Y-12955000D02*
X6172000Y-13085000D01*
X6107000Y-13020000D02*
X6237000Y-13020000D01*
X6615000Y-12955000D02*
X6745000Y-13085000D01*
X6745000Y-12955000D02*
X6615000Y-13085000D01*
X6680000Y-12955000D02*
X6680000Y-13085000D01*
X6615000Y-13020000D02*
X6745000Y-13020000D01*
D11*
X3658277Y-14313984D02*
X3658277Y-14113984D01*
X3658277Y-14113984D02*
X3705896Y-14113984D01*
X3705896Y-14113984D02*
X3734467Y-14123508D01*
X3734467Y-14123508D02*
X3753515Y-14142555D01*
X3753515Y-14142555D02*
X3763039Y-14161603D01*
X3763039Y-14161603D02*
X3772562Y-14199698D01*
X3772562Y-14199698D02*
X3772562Y-14228269D01*
X3772562Y-14228269D02*
X3763039Y-14266365D01*
X3763039Y-14266365D02*
X3753515Y-14285412D01*
X3753515Y-14285412D02*
X3734467Y-14304460D01*
X3734467Y-14304460D02*
X3705896Y-14313984D01*
X3705896Y-14313984D02*
X3658277Y-14313984D01*
X3858277Y-14313984D02*
X3858277Y-14180650D01*
X3858277Y-14218746D02*
X3867801Y-14199698D01*
X3867801Y-14199698D02*
X3877324Y-14190174D01*
X3877324Y-14190174D02*
X3896372Y-14180650D01*
X3896372Y-14180650D02*
X3915420Y-14180650D01*
X3982086Y-14313984D02*
X3982086Y-14180650D01*
X3982086Y-14113984D02*
X3972562Y-14123508D01*
X3972562Y-14123508D02*
X3982086Y-14133031D01*
X3982086Y-14133031D02*
X3991610Y-14123508D01*
X3991610Y-14123508D02*
X3982086Y-14113984D01*
X3982086Y-14113984D02*
X3982086Y-14133031D01*
X4105896Y-14313984D02*
X4086848Y-14304460D01*
X4086848Y-14304460D02*
X4077324Y-14285412D01*
X4077324Y-14285412D02*
X4077324Y-14113984D01*
X4210658Y-14313984D02*
X4191610Y-14304460D01*
X4191610Y-14304460D02*
X4182086Y-14285412D01*
X4182086Y-14285412D02*
X4182086Y-14113984D01*
X4439229Y-14313984D02*
X4439229Y-14113984D01*
X4439229Y-14113984D02*
X4505896Y-14256841D01*
X4505896Y-14256841D02*
X4572563Y-14113984D01*
X4572563Y-14113984D02*
X4572563Y-14313984D01*
X4753515Y-14313984D02*
X4753515Y-14209222D01*
X4753515Y-14209222D02*
X4743991Y-14190174D01*
X4743991Y-14190174D02*
X4724944Y-14180650D01*
X4724944Y-14180650D02*
X4686848Y-14180650D01*
X4686848Y-14180650D02*
X4667801Y-14190174D01*
X4753515Y-14304460D02*
X4734467Y-14313984D01*
X4734467Y-14313984D02*
X4686848Y-14313984D01*
X4686848Y-14313984D02*
X4667801Y-14304460D01*
X4667801Y-14304460D02*
X4658277Y-14285412D01*
X4658277Y-14285412D02*
X4658277Y-14266365D01*
X4658277Y-14266365D02*
X4667801Y-14247317D01*
X4667801Y-14247317D02*
X4686848Y-14237793D01*
X4686848Y-14237793D02*
X4734467Y-14237793D01*
X4734467Y-14237793D02*
X4753515Y-14228269D01*
X4848753Y-14180650D02*
X4848753Y-14380650D01*
X4848753Y-14190174D02*
X4867801Y-14180650D01*
X4867801Y-14180650D02*
X4905896Y-14180650D01*
X4905896Y-14180650D02*
X4924944Y-14190174D01*
X4924944Y-14190174D02*
X4934467Y-14199698D01*
X4934467Y-14199698D02*
X4943991Y-14218746D01*
X4943991Y-14218746D02*
X4943991Y-14275888D01*
X4943991Y-14275888D02*
X4934467Y-14294936D01*
X4934467Y-14294936D02*
X4924944Y-14304460D01*
X4924944Y-14304460D02*
X4905896Y-14313984D01*
X4905896Y-14313984D02*
X4867801Y-14313984D01*
X4867801Y-14313984D02*
X4848753Y-14304460D01*
X5029705Y-14294936D02*
X5039229Y-14304460D01*
X5039229Y-14304460D02*
X5029705Y-14313984D01*
X5029705Y-14313984D02*
X5020182Y-14304460D01*
X5020182Y-14304460D02*
X5029705Y-14294936D01*
X5029705Y-14294936D02*
X5029705Y-14313984D01*
X5029705Y-14190174D02*
X5039229Y-14199698D01*
X5039229Y-14199698D02*
X5029705Y-14209222D01*
X5029705Y-14209222D02*
X5020182Y-14199698D01*
X5020182Y-14199698D02*
X5029705Y-14190174D01*
X5029705Y-14190174D02*
X5029705Y-14209222D01*
D12*
X3367500Y-14627500D02*
X3397500Y-14657500D01*
X3397500Y-14627500D02*
X3367500Y-14657500D01*
D11*
X3696372Y-14533984D02*
X3715420Y-14533984D01*
X3715420Y-14533984D02*
X3734467Y-14543508D01*
X3734467Y-14543508D02*
X3743991Y-14553031D01*
X3743991Y-14553031D02*
X3753515Y-14572079D01*
X3753515Y-14572079D02*
X3763039Y-14610174D01*
X3763039Y-14610174D02*
X3763039Y-14657793D01*
X3763039Y-14657793D02*
X3753515Y-14695888D01*
X3753515Y-14695888D02*
X3743991Y-14714936D01*
X3743991Y-14714936D02*
X3734467Y-14724460D01*
X3734467Y-14724460D02*
X3715420Y-14733984D01*
X3715420Y-14733984D02*
X3696372Y-14733984D01*
X3696372Y-14733984D02*
X3677324Y-14724460D01*
X3677324Y-14724460D02*
X3667801Y-14714936D01*
X3667801Y-14714936D02*
X3658277Y-14695888D01*
X3658277Y-14695888D02*
X3648753Y-14657793D01*
X3648753Y-14657793D02*
X3648753Y-14610174D01*
X3648753Y-14610174D02*
X3658277Y-14572079D01*
X3658277Y-14572079D02*
X3667801Y-14553031D01*
X3667801Y-14553031D02*
X3677324Y-14543508D01*
X3677324Y-14543508D02*
X3696372Y-14533984D01*
X3848753Y-14714936D02*
X3858277Y-14724460D01*
X3858277Y-14724460D02*
X3848753Y-14733984D01*
X3848753Y-14733984D02*
X3839229Y-14724460D01*
X3839229Y-14724460D02*
X3848753Y-14714936D01*
X3848753Y-14714936D02*
X3848753Y-14733984D01*
X3924943Y-14533984D02*
X4048753Y-14533984D01*
X4048753Y-14533984D02*
X3982086Y-14610174D01*
X3982086Y-14610174D02*
X4010658Y-14610174D01*
X4010658Y-14610174D02*
X4029705Y-14619698D01*
X4029705Y-14619698D02*
X4039229Y-14629222D01*
X4039229Y-14629222D02*
X4048753Y-14648269D01*
X4048753Y-14648269D02*
X4048753Y-14695888D01*
X4048753Y-14695888D02*
X4039229Y-14714936D01*
X4039229Y-14714936D02*
X4029705Y-14724460D01*
X4029705Y-14724460D02*
X4010658Y-14733984D01*
X4010658Y-14733984D02*
X3953515Y-14733984D01*
X3953515Y-14733984D02*
X3934467Y-14724460D01*
X3934467Y-14724460D02*
X3924943Y-14714936D01*
X4172562Y-14533984D02*
X4191610Y-14533984D01*
X4191610Y-14533984D02*
X4210658Y-14543508D01*
X4210658Y-14543508D02*
X4220182Y-14553031D01*
X4220182Y-14553031D02*
X4229705Y-14572079D01*
X4229705Y-14572079D02*
X4239229Y-14610174D01*
X4239229Y-14610174D02*
X4239229Y-14657793D01*
X4239229Y-14657793D02*
X4229705Y-14695888D01*
X4229705Y-14695888D02*
X4220182Y-14714936D01*
X4220182Y-14714936D02*
X4210658Y-14724460D01*
X4210658Y-14724460D02*
X4191610Y-14733984D01*
X4191610Y-14733984D02*
X4172562Y-14733984D01*
X4172562Y-14733984D02*
X4153515Y-14724460D01*
X4153515Y-14724460D02*
X4143991Y-14714936D01*
X4143991Y-14714936D02*
X4134467Y-14695888D01*
X4134467Y-14695888D02*
X4124943Y-14657793D01*
X4124943Y-14657793D02*
X4124943Y-14610174D01*
X4124943Y-14610174D02*
X4134467Y-14572079D01*
X4134467Y-14572079D02*
X4143991Y-14553031D01*
X4143991Y-14553031D02*
X4153515Y-14543508D01*
X4153515Y-14543508D02*
X4172562Y-14533984D01*
X4363039Y-14533984D02*
X4382086Y-14533984D01*
X4382086Y-14533984D02*
X4401134Y-14543508D01*
X4401134Y-14543508D02*
X4410658Y-14553031D01*
X4410658Y-14553031D02*
X4420182Y-14572079D01*
X4420182Y-14572079D02*
X4429705Y-14610174D01*
X4429705Y-14610174D02*
X4429705Y-14657793D01*
X4429705Y-14657793D02*
X4420182Y-14695888D01*
X4420182Y-14695888D02*
X4410658Y-14714936D01*
X4410658Y-14714936D02*
X4401134Y-14724460D01*
X4401134Y-14724460D02*
X4382086Y-14733984D01*
X4382086Y-14733984D02*
X4363039Y-14733984D01*
X4363039Y-14733984D02*
X4343991Y-14724460D01*
X4343991Y-14724460D02*
X4334467Y-14714936D01*
X4334467Y-14714936D02*
X4324944Y-14695888D01*
X4324944Y-14695888D02*
X4315420Y-14657793D01*
X4315420Y-14657793D02*
X4315420Y-14610174D01*
X4315420Y-14610174D02*
X4324944Y-14572079D01*
X4324944Y-14572079D02*
X4334467Y-14553031D01*
X4334467Y-14553031D02*
X4343991Y-14543508D01*
X4343991Y-14543508D02*
X4363039Y-14533984D01*
X4515420Y-14733984D02*
X4515420Y-14600650D01*
X4515420Y-14619698D02*
X4524944Y-14610174D01*
X4524944Y-14610174D02*
X4543991Y-14600650D01*
X4543991Y-14600650D02*
X4572563Y-14600650D01*
X4572563Y-14600650D02*
X4591610Y-14610174D01*
X4591610Y-14610174D02*
X4601134Y-14629222D01*
X4601134Y-14629222D02*
X4601134Y-14733984D01*
X4601134Y-14629222D02*
X4610658Y-14610174D01*
X4610658Y-14610174D02*
X4629705Y-14600650D01*
X4629705Y-14600650D02*
X4658277Y-14600650D01*
X4658277Y-14600650D02*
X4677325Y-14610174D01*
X4677325Y-14610174D02*
X4686848Y-14629222D01*
X4686848Y-14629222D02*
X4686848Y-14733984D01*
X4782086Y-14733984D02*
X4782086Y-14600650D01*
X4782086Y-14619698D02*
X4791610Y-14610174D01*
X4791610Y-14610174D02*
X4810658Y-14600650D01*
X4810658Y-14600650D02*
X4839229Y-14600650D01*
X4839229Y-14600650D02*
X4858277Y-14610174D01*
X4858277Y-14610174D02*
X4867801Y-14629222D01*
X4867801Y-14629222D02*
X4867801Y-14733984D01*
X4867801Y-14629222D02*
X4877325Y-14610174D01*
X4877325Y-14610174D02*
X4896372Y-14600650D01*
X4896372Y-14600650D02*
X4924944Y-14600650D01*
X4924944Y-14600650D02*
X4943991Y-14610174D01*
X4943991Y-14610174D02*
X4953515Y-14629222D01*
X4953515Y-14629222D02*
X4953515Y-14733984D01*
X5343991Y-14524460D02*
X5172563Y-14781603D01*
X5601134Y-14533984D02*
X5620182Y-14533984D01*
X5620182Y-14533984D02*
X5639229Y-14543508D01*
X5639229Y-14543508D02*
X5648753Y-14553031D01*
X5648753Y-14553031D02*
X5658277Y-14572079D01*
X5658277Y-14572079D02*
X5667801Y-14610174D01*
X5667801Y-14610174D02*
X5667801Y-14657793D01*
X5667801Y-14657793D02*
X5658277Y-14695888D01*
X5658277Y-14695888D02*
X5648753Y-14714936D01*
X5648753Y-14714936D02*
X5639229Y-14724460D01*
X5639229Y-14724460D02*
X5620182Y-14733984D01*
X5620182Y-14733984D02*
X5601134Y-14733984D01*
X5601134Y-14733984D02*
X5582087Y-14724460D01*
X5582087Y-14724460D02*
X5572563Y-14714936D01*
X5572563Y-14714936D02*
X5563039Y-14695888D01*
X5563039Y-14695888D02*
X5553515Y-14657793D01*
X5553515Y-14657793D02*
X5553515Y-14610174D01*
X5553515Y-14610174D02*
X5563039Y-14572079D01*
X5563039Y-14572079D02*
X5572563Y-14553031D01*
X5572563Y-14553031D02*
X5582087Y-14543508D01*
X5582087Y-14543508D02*
X5601134Y-14533984D01*
X5753515Y-14714936D02*
X5763039Y-14724460D01*
X5763039Y-14724460D02*
X5753515Y-14733984D01*
X5753515Y-14733984D02*
X5743991Y-14724460D01*
X5743991Y-14724460D02*
X5753515Y-14714936D01*
X5753515Y-14714936D02*
X5753515Y-14733984D01*
X5886848Y-14533984D02*
X5905896Y-14533984D01*
X5905896Y-14533984D02*
X5924944Y-14543508D01*
X5924944Y-14543508D02*
X5934467Y-14553031D01*
X5934467Y-14553031D02*
X5943991Y-14572079D01*
X5943991Y-14572079D02*
X5953515Y-14610174D01*
X5953515Y-14610174D02*
X5953515Y-14657793D01*
X5953515Y-14657793D02*
X5943991Y-14695888D01*
X5943991Y-14695888D02*
X5934467Y-14714936D01*
X5934467Y-14714936D02*
X5924944Y-14724460D01*
X5924944Y-14724460D02*
X5905896Y-14733984D01*
X5905896Y-14733984D02*
X5886848Y-14733984D01*
X5886848Y-14733984D02*
X5867801Y-14724460D01*
X5867801Y-14724460D02*
X5858277Y-14714936D01*
X5858277Y-14714936D02*
X5848753Y-14695888D01*
X5848753Y-14695888D02*
X5839229Y-14657793D01*
X5839229Y-14657793D02*
X5839229Y-14610174D01*
X5839229Y-14610174D02*
X5848753Y-14572079D01*
X5848753Y-14572079D02*
X5858277Y-14553031D01*
X5858277Y-14553031D02*
X5867801Y-14543508D01*
X5867801Y-14543508D02*
X5886848Y-14533984D01*
X6143991Y-14733984D02*
X6029706Y-14733984D01*
X6086848Y-14733984D02*
X6086848Y-14533984D01*
X6086848Y-14533984D02*
X6067801Y-14562555D01*
X6067801Y-14562555D02*
X6048753Y-14581603D01*
X6048753Y-14581603D02*
X6029706Y-14591127D01*
X6334467Y-14733984D02*
X6220182Y-14733984D01*
X6277325Y-14733984D02*
X6277325Y-14533984D01*
X6277325Y-14533984D02*
X6258277Y-14562555D01*
X6258277Y-14562555D02*
X6239229Y-14581603D01*
X6239229Y-14581603D02*
X6220182Y-14591127D01*
X6448753Y-14619698D02*
X6429706Y-14610174D01*
X6429706Y-14610174D02*
X6420182Y-14600650D01*
X6420182Y-14600650D02*
X6410658Y-14581603D01*
X6410658Y-14581603D02*
X6410658Y-14572079D01*
X6410658Y-14572079D02*
X6420182Y-14553031D01*
X6420182Y-14553031D02*
X6429706Y-14543508D01*
X6429706Y-14543508D02*
X6448753Y-14533984D01*
X6448753Y-14533984D02*
X6486848Y-14533984D01*
X6486848Y-14533984D02*
X6505896Y-14543508D01*
X6505896Y-14543508D02*
X6515420Y-14553031D01*
X6515420Y-14553031D02*
X6524944Y-14572079D01*
X6524944Y-14572079D02*
X6524944Y-14581603D01*
X6524944Y-14581603D02*
X6515420Y-14600650D01*
X6515420Y-14600650D02*
X6505896Y-14610174D01*
X6505896Y-14610174D02*
X6486848Y-14619698D01*
X6486848Y-14619698D02*
X6448753Y-14619698D01*
X6448753Y-14619698D02*
X6429706Y-14629222D01*
X6429706Y-14629222D02*
X6420182Y-14638746D01*
X6420182Y-14638746D02*
X6410658Y-14657793D01*
X6410658Y-14657793D02*
X6410658Y-14695888D01*
X6410658Y-14695888D02*
X6420182Y-14714936D01*
X6420182Y-14714936D02*
X6429706Y-14724460D01*
X6429706Y-14724460D02*
X6448753Y-14733984D01*
X6448753Y-14733984D02*
X6486848Y-14733984D01*
X6486848Y-14733984D02*
X6505896Y-14724460D01*
X6505896Y-14724460D02*
X6515420Y-14714936D01*
X6515420Y-14714936D02*
X6524944Y-14695888D01*
X6524944Y-14695888D02*
X6524944Y-14657793D01*
X6524944Y-14657793D02*
X6515420Y-14638746D01*
X6515420Y-14638746D02*
X6505896Y-14629222D01*
X6505896Y-14629222D02*
X6486848Y-14619698D01*
X6601134Y-14533984D02*
X6601134Y-14572079D01*
X6677325Y-14533984D02*
X6677325Y-14572079D01*
X6972563Y-14810174D02*
X6963039Y-14800650D01*
X6963039Y-14800650D02*
X6943991Y-14772079D01*
X6943991Y-14772079D02*
X6934468Y-14753031D01*
X6934468Y-14753031D02*
X6924944Y-14724460D01*
X6924944Y-14724460D02*
X6915420Y-14676841D01*
X6915420Y-14676841D02*
X6915420Y-14638746D01*
X6915420Y-14638746D02*
X6924944Y-14591127D01*
X6924944Y-14591127D02*
X6934468Y-14562555D01*
X6934468Y-14562555D02*
X6943991Y-14543508D01*
X6943991Y-14543508D02*
X6963039Y-14514936D01*
X6963039Y-14514936D02*
X6972563Y-14505412D01*
X7134468Y-14533984D02*
X7096372Y-14533984D01*
X7096372Y-14533984D02*
X7077325Y-14543508D01*
X7077325Y-14543508D02*
X7067801Y-14553031D01*
X7067801Y-14553031D02*
X7048753Y-14581603D01*
X7048753Y-14581603D02*
X7039229Y-14619698D01*
X7039229Y-14619698D02*
X7039229Y-14695888D01*
X7039229Y-14695888D02*
X7048753Y-14714936D01*
X7048753Y-14714936D02*
X7058277Y-14724460D01*
X7058277Y-14724460D02*
X7077325Y-14733984D01*
X7077325Y-14733984D02*
X7115420Y-14733984D01*
X7115420Y-14733984D02*
X7134468Y-14724460D01*
X7134468Y-14724460D02*
X7143991Y-14714936D01*
X7143991Y-14714936D02*
X7153515Y-14695888D01*
X7153515Y-14695888D02*
X7153515Y-14648269D01*
X7153515Y-14648269D02*
X7143991Y-14629222D01*
X7143991Y-14629222D02*
X7134468Y-14619698D01*
X7134468Y-14619698D02*
X7115420Y-14610174D01*
X7115420Y-14610174D02*
X7077325Y-14610174D01*
X7077325Y-14610174D02*
X7058277Y-14619698D01*
X7058277Y-14619698D02*
X7048753Y-14629222D01*
X7048753Y-14629222D02*
X7039229Y-14648269D01*
X7334468Y-14533984D02*
X7239229Y-14533984D01*
X7239229Y-14533984D02*
X7229706Y-14629222D01*
X7229706Y-14629222D02*
X7239229Y-14619698D01*
X7239229Y-14619698D02*
X7258277Y-14610174D01*
X7258277Y-14610174D02*
X7305896Y-14610174D01*
X7305896Y-14610174D02*
X7324944Y-14619698D01*
X7324944Y-14619698D02*
X7334468Y-14629222D01*
X7334468Y-14629222D02*
X7343991Y-14648269D01*
X7343991Y-14648269D02*
X7343991Y-14695888D01*
X7343991Y-14695888D02*
X7334468Y-14714936D01*
X7334468Y-14714936D02*
X7324944Y-14724460D01*
X7324944Y-14724460D02*
X7305896Y-14733984D01*
X7305896Y-14733984D02*
X7258277Y-14733984D01*
X7258277Y-14733984D02*
X7239229Y-14724460D01*
X7239229Y-14724460D02*
X7229706Y-14714936D01*
X7582087Y-14733984D02*
X7582087Y-14533984D01*
X7667801Y-14733984D02*
X7667801Y-14629222D01*
X7667801Y-14629222D02*
X7658277Y-14610174D01*
X7658277Y-14610174D02*
X7639230Y-14600650D01*
X7639230Y-14600650D02*
X7610658Y-14600650D01*
X7610658Y-14600650D02*
X7591610Y-14610174D01*
X7591610Y-14610174D02*
X7582087Y-14619698D01*
X7791610Y-14733984D02*
X7772563Y-14724460D01*
X7772563Y-14724460D02*
X7763039Y-14714936D01*
X7763039Y-14714936D02*
X7753515Y-14695888D01*
X7753515Y-14695888D02*
X7753515Y-14638746D01*
X7753515Y-14638746D02*
X7763039Y-14619698D01*
X7763039Y-14619698D02*
X7772563Y-14610174D01*
X7772563Y-14610174D02*
X7791610Y-14600650D01*
X7791610Y-14600650D02*
X7820182Y-14600650D01*
X7820182Y-14600650D02*
X7839230Y-14610174D01*
X7839230Y-14610174D02*
X7848753Y-14619698D01*
X7848753Y-14619698D02*
X7858277Y-14638746D01*
X7858277Y-14638746D02*
X7858277Y-14695888D01*
X7858277Y-14695888D02*
X7848753Y-14714936D01*
X7848753Y-14714936D02*
X7839230Y-14724460D01*
X7839230Y-14724460D02*
X7820182Y-14733984D01*
X7820182Y-14733984D02*
X7791610Y-14733984D01*
X7972563Y-14733984D02*
X7953515Y-14724460D01*
X7953515Y-14724460D02*
X7943991Y-14705412D01*
X7943991Y-14705412D02*
X7943991Y-14533984D01*
X8124944Y-14724460D02*
X8105896Y-14733984D01*
X8105896Y-14733984D02*
X8067801Y-14733984D01*
X8067801Y-14733984D02*
X8048753Y-14724460D01*
X8048753Y-14724460D02*
X8039230Y-14705412D01*
X8039230Y-14705412D02*
X8039230Y-14629222D01*
X8039230Y-14629222D02*
X8048753Y-14610174D01*
X8048753Y-14610174D02*
X8067801Y-14600650D01*
X8067801Y-14600650D02*
X8105896Y-14600650D01*
X8105896Y-14600650D02*
X8124944Y-14610174D01*
X8124944Y-14610174D02*
X8134468Y-14629222D01*
X8134468Y-14629222D02*
X8134468Y-14648269D01*
X8134468Y-14648269D02*
X8039230Y-14667317D01*
X8210658Y-14724460D02*
X8229706Y-14733984D01*
X8229706Y-14733984D02*
X8267801Y-14733984D01*
X8267801Y-14733984D02*
X8286849Y-14724460D01*
X8286849Y-14724460D02*
X8296372Y-14705412D01*
X8296372Y-14705412D02*
X8296372Y-14695888D01*
X8296372Y-14695888D02*
X8286849Y-14676841D01*
X8286849Y-14676841D02*
X8267801Y-14667317D01*
X8267801Y-14667317D02*
X8239230Y-14667317D01*
X8239230Y-14667317D02*
X8220182Y-14657793D01*
X8220182Y-14657793D02*
X8210658Y-14638746D01*
X8210658Y-14638746D02*
X8210658Y-14629222D01*
X8210658Y-14629222D02*
X8220182Y-14610174D01*
X8220182Y-14610174D02*
X8239230Y-14600650D01*
X8239230Y-14600650D02*
X8267801Y-14600650D01*
X8267801Y-14600650D02*
X8286849Y-14610174D01*
X8363039Y-14810174D02*
X8372563Y-14800650D01*
X8372563Y-14800650D02*
X8391611Y-14772079D01*
X8391611Y-14772079D02*
X8401134Y-14753031D01*
X8401134Y-14753031D02*
X8410658Y-14724460D01*
X8410658Y-14724460D02*
X8420182Y-14676841D01*
X8420182Y-14676841D02*
X8420182Y-14638746D01*
X8420182Y-14638746D02*
X8410658Y-14591127D01*
X8410658Y-14591127D02*
X8401134Y-14562555D01*
X8401134Y-14562555D02*
X8391611Y-14543508D01*
X8391611Y-14543508D02*
X8372563Y-14514936D01*
X8372563Y-14514936D02*
X8363039Y-14505412D01*
D12*
X3397500Y-14906500D02*
G75*
G02*
X3367500Y-14906500I-15000J0D01*
G01*
X3367500Y-14906500D02*
G75*
G02*
X3397500Y-14906500I15000J0D01*
G01*
D11*
X3696372Y-14797984D02*
X3715420Y-14797984D01*
X3715420Y-14797984D02*
X3734467Y-14807508D01*
X3734467Y-14807508D02*
X3743991Y-14817031D01*
X3743991Y-14817031D02*
X3753515Y-14836079D01*
X3753515Y-14836079D02*
X3763039Y-14874174D01*
X3763039Y-14874174D02*
X3763039Y-14921793D01*
X3763039Y-14921793D02*
X3753515Y-14959888D01*
X3753515Y-14959888D02*
X3743991Y-14978936D01*
X3743991Y-14978936D02*
X3734467Y-14988460D01*
X3734467Y-14988460D02*
X3715420Y-14997984D01*
X3715420Y-14997984D02*
X3696372Y-14997984D01*
X3696372Y-14997984D02*
X3677324Y-14988460D01*
X3677324Y-14988460D02*
X3667801Y-14978936D01*
X3667801Y-14978936D02*
X3658277Y-14959888D01*
X3658277Y-14959888D02*
X3648753Y-14921793D01*
X3648753Y-14921793D02*
X3648753Y-14874174D01*
X3648753Y-14874174D02*
X3658277Y-14836079D01*
X3658277Y-14836079D02*
X3667801Y-14817031D01*
X3667801Y-14817031D02*
X3677324Y-14807508D01*
X3677324Y-14807508D02*
X3696372Y-14797984D01*
X3848753Y-14978936D02*
X3858277Y-14988460D01*
X3858277Y-14988460D02*
X3848753Y-14997984D01*
X3848753Y-14997984D02*
X3839229Y-14988460D01*
X3839229Y-14988460D02*
X3848753Y-14978936D01*
X3848753Y-14978936D02*
X3848753Y-14997984D01*
X3924943Y-14797984D02*
X4048753Y-14797984D01*
X4048753Y-14797984D02*
X3982086Y-14874174D01*
X3982086Y-14874174D02*
X4010658Y-14874174D01*
X4010658Y-14874174D02*
X4029705Y-14883698D01*
X4029705Y-14883698D02*
X4039229Y-14893222D01*
X4039229Y-14893222D02*
X4048753Y-14912269D01*
X4048753Y-14912269D02*
X4048753Y-14959888D01*
X4048753Y-14959888D02*
X4039229Y-14978936D01*
X4039229Y-14978936D02*
X4029705Y-14988460D01*
X4029705Y-14988460D02*
X4010658Y-14997984D01*
X4010658Y-14997984D02*
X3953515Y-14997984D01*
X3953515Y-14997984D02*
X3934467Y-14988460D01*
X3934467Y-14988460D02*
X3924943Y-14978936D01*
X4172562Y-14797984D02*
X4191610Y-14797984D01*
X4191610Y-14797984D02*
X4210658Y-14807508D01*
X4210658Y-14807508D02*
X4220182Y-14817031D01*
X4220182Y-14817031D02*
X4229705Y-14836079D01*
X4229705Y-14836079D02*
X4239229Y-14874174D01*
X4239229Y-14874174D02*
X4239229Y-14921793D01*
X4239229Y-14921793D02*
X4229705Y-14959888D01*
X4229705Y-14959888D02*
X4220182Y-14978936D01*
X4220182Y-14978936D02*
X4210658Y-14988460D01*
X4210658Y-14988460D02*
X4191610Y-14997984D01*
X4191610Y-14997984D02*
X4172562Y-14997984D01*
X4172562Y-14997984D02*
X4153515Y-14988460D01*
X4153515Y-14988460D02*
X4143991Y-14978936D01*
X4143991Y-14978936D02*
X4134467Y-14959888D01*
X4134467Y-14959888D02*
X4124943Y-14921793D01*
X4124943Y-14921793D02*
X4124943Y-14874174D01*
X4124943Y-14874174D02*
X4134467Y-14836079D01*
X4134467Y-14836079D02*
X4143991Y-14817031D01*
X4143991Y-14817031D02*
X4153515Y-14807508D01*
X4153515Y-14807508D02*
X4172562Y-14797984D01*
X4363039Y-14797984D02*
X4382086Y-14797984D01*
X4382086Y-14797984D02*
X4401134Y-14807508D01*
X4401134Y-14807508D02*
X4410658Y-14817031D01*
X4410658Y-14817031D02*
X4420182Y-14836079D01*
X4420182Y-14836079D02*
X4429705Y-14874174D01*
X4429705Y-14874174D02*
X4429705Y-14921793D01*
X4429705Y-14921793D02*
X4420182Y-14959888D01*
X4420182Y-14959888D02*
X4410658Y-14978936D01*
X4410658Y-14978936D02*
X4401134Y-14988460D01*
X4401134Y-14988460D02*
X4382086Y-14997984D01*
X4382086Y-14997984D02*
X4363039Y-14997984D01*
X4363039Y-14997984D02*
X4343991Y-14988460D01*
X4343991Y-14988460D02*
X4334467Y-14978936D01*
X4334467Y-14978936D02*
X4324944Y-14959888D01*
X4324944Y-14959888D02*
X4315420Y-14921793D01*
X4315420Y-14921793D02*
X4315420Y-14874174D01*
X4315420Y-14874174D02*
X4324944Y-14836079D01*
X4324944Y-14836079D02*
X4334467Y-14817031D01*
X4334467Y-14817031D02*
X4343991Y-14807508D01*
X4343991Y-14807508D02*
X4363039Y-14797984D01*
X4515420Y-14997984D02*
X4515420Y-14864650D01*
X4515420Y-14883698D02*
X4524944Y-14874174D01*
X4524944Y-14874174D02*
X4543991Y-14864650D01*
X4543991Y-14864650D02*
X4572563Y-14864650D01*
X4572563Y-14864650D02*
X4591610Y-14874174D01*
X4591610Y-14874174D02*
X4601134Y-14893222D01*
X4601134Y-14893222D02*
X4601134Y-14997984D01*
X4601134Y-14893222D02*
X4610658Y-14874174D01*
X4610658Y-14874174D02*
X4629705Y-14864650D01*
X4629705Y-14864650D02*
X4658277Y-14864650D01*
X4658277Y-14864650D02*
X4677325Y-14874174D01*
X4677325Y-14874174D02*
X4686848Y-14893222D01*
X4686848Y-14893222D02*
X4686848Y-14997984D01*
X4782086Y-14997984D02*
X4782086Y-14864650D01*
X4782086Y-14883698D02*
X4791610Y-14874174D01*
X4791610Y-14874174D02*
X4810658Y-14864650D01*
X4810658Y-14864650D02*
X4839229Y-14864650D01*
X4839229Y-14864650D02*
X4858277Y-14874174D01*
X4858277Y-14874174D02*
X4867801Y-14893222D01*
X4867801Y-14893222D02*
X4867801Y-14997984D01*
X4867801Y-14893222D02*
X4877325Y-14874174D01*
X4877325Y-14874174D02*
X4896372Y-14864650D01*
X4896372Y-14864650D02*
X4924944Y-14864650D01*
X4924944Y-14864650D02*
X4943991Y-14874174D01*
X4943991Y-14874174D02*
X4953515Y-14893222D01*
X4953515Y-14893222D02*
X4953515Y-14997984D01*
X5343991Y-14788460D02*
X5172563Y-15045603D01*
X5601134Y-14797984D02*
X5620182Y-14797984D01*
X5620182Y-14797984D02*
X5639229Y-14807508D01*
X5639229Y-14807508D02*
X5648753Y-14817031D01*
X5648753Y-14817031D02*
X5658277Y-14836079D01*
X5658277Y-14836079D02*
X5667801Y-14874174D01*
X5667801Y-14874174D02*
X5667801Y-14921793D01*
X5667801Y-14921793D02*
X5658277Y-14959888D01*
X5658277Y-14959888D02*
X5648753Y-14978936D01*
X5648753Y-14978936D02*
X5639229Y-14988460D01*
X5639229Y-14988460D02*
X5620182Y-14997984D01*
X5620182Y-14997984D02*
X5601134Y-14997984D01*
X5601134Y-14997984D02*
X5582087Y-14988460D01*
X5582087Y-14988460D02*
X5572563Y-14978936D01*
X5572563Y-14978936D02*
X5563039Y-14959888D01*
X5563039Y-14959888D02*
X5553515Y-14921793D01*
X5553515Y-14921793D02*
X5553515Y-14874174D01*
X5553515Y-14874174D02*
X5563039Y-14836079D01*
X5563039Y-14836079D02*
X5572563Y-14817031D01*
X5572563Y-14817031D02*
X5582087Y-14807508D01*
X5582087Y-14807508D02*
X5601134Y-14797984D01*
X5753515Y-14978936D02*
X5763039Y-14988460D01*
X5763039Y-14988460D02*
X5753515Y-14997984D01*
X5753515Y-14997984D02*
X5743991Y-14988460D01*
X5743991Y-14988460D02*
X5753515Y-14978936D01*
X5753515Y-14978936D02*
X5753515Y-14997984D01*
X5886848Y-14797984D02*
X5905896Y-14797984D01*
X5905896Y-14797984D02*
X5924944Y-14807508D01*
X5924944Y-14807508D02*
X5934467Y-14817031D01*
X5934467Y-14817031D02*
X5943991Y-14836079D01*
X5943991Y-14836079D02*
X5953515Y-14874174D01*
X5953515Y-14874174D02*
X5953515Y-14921793D01*
X5953515Y-14921793D02*
X5943991Y-14959888D01*
X5943991Y-14959888D02*
X5934467Y-14978936D01*
X5934467Y-14978936D02*
X5924944Y-14988460D01*
X5924944Y-14988460D02*
X5905896Y-14997984D01*
X5905896Y-14997984D02*
X5886848Y-14997984D01*
X5886848Y-14997984D02*
X5867801Y-14988460D01*
X5867801Y-14988460D02*
X5858277Y-14978936D01*
X5858277Y-14978936D02*
X5848753Y-14959888D01*
X5848753Y-14959888D02*
X5839229Y-14921793D01*
X5839229Y-14921793D02*
X5839229Y-14874174D01*
X5839229Y-14874174D02*
X5848753Y-14836079D01*
X5848753Y-14836079D02*
X5858277Y-14817031D01*
X5858277Y-14817031D02*
X5867801Y-14807508D01*
X5867801Y-14807508D02*
X5886848Y-14797984D01*
X6143991Y-14997984D02*
X6029706Y-14997984D01*
X6086848Y-14997984D02*
X6086848Y-14797984D01*
X6086848Y-14797984D02*
X6067801Y-14826555D01*
X6067801Y-14826555D02*
X6048753Y-14845603D01*
X6048753Y-14845603D02*
X6029706Y-14855127D01*
X6334467Y-14997984D02*
X6220182Y-14997984D01*
X6277325Y-14997984D02*
X6277325Y-14797984D01*
X6277325Y-14797984D02*
X6258277Y-14826555D01*
X6258277Y-14826555D02*
X6239229Y-14845603D01*
X6239229Y-14845603D02*
X6220182Y-14855127D01*
X6448753Y-14883698D02*
X6429706Y-14874174D01*
X6429706Y-14874174D02*
X6420182Y-14864650D01*
X6420182Y-14864650D02*
X6410658Y-14845603D01*
X6410658Y-14845603D02*
X6410658Y-14836079D01*
X6410658Y-14836079D02*
X6420182Y-14817031D01*
X6420182Y-14817031D02*
X6429706Y-14807508D01*
X6429706Y-14807508D02*
X6448753Y-14797984D01*
X6448753Y-14797984D02*
X6486848Y-14797984D01*
X6486848Y-14797984D02*
X6505896Y-14807508D01*
X6505896Y-14807508D02*
X6515420Y-14817031D01*
X6515420Y-14817031D02*
X6524944Y-14836079D01*
X6524944Y-14836079D02*
X6524944Y-14845603D01*
X6524944Y-14845603D02*
X6515420Y-14864650D01*
X6515420Y-14864650D02*
X6505896Y-14874174D01*
X6505896Y-14874174D02*
X6486848Y-14883698D01*
X6486848Y-14883698D02*
X6448753Y-14883698D01*
X6448753Y-14883698D02*
X6429706Y-14893222D01*
X6429706Y-14893222D02*
X6420182Y-14902746D01*
X6420182Y-14902746D02*
X6410658Y-14921793D01*
X6410658Y-14921793D02*
X6410658Y-14959888D01*
X6410658Y-14959888D02*
X6420182Y-14978936D01*
X6420182Y-14978936D02*
X6429706Y-14988460D01*
X6429706Y-14988460D02*
X6448753Y-14997984D01*
X6448753Y-14997984D02*
X6486848Y-14997984D01*
X6486848Y-14997984D02*
X6505896Y-14988460D01*
X6505896Y-14988460D02*
X6515420Y-14978936D01*
X6515420Y-14978936D02*
X6524944Y-14959888D01*
X6524944Y-14959888D02*
X6524944Y-14921793D01*
X6524944Y-14921793D02*
X6515420Y-14902746D01*
X6515420Y-14902746D02*
X6505896Y-14893222D01*
X6505896Y-14893222D02*
X6486848Y-14883698D01*
X6601134Y-14797984D02*
X6601134Y-14836079D01*
X6677325Y-14797984D02*
X6677325Y-14836079D01*
X6972563Y-15074174D02*
X6963039Y-15064650D01*
X6963039Y-15064650D02*
X6943991Y-15036079D01*
X6943991Y-15036079D02*
X6934468Y-15017031D01*
X6934468Y-15017031D02*
X6924944Y-14988460D01*
X6924944Y-14988460D02*
X6915420Y-14940841D01*
X6915420Y-14940841D02*
X6915420Y-14902746D01*
X6915420Y-14902746D02*
X6924944Y-14855127D01*
X6924944Y-14855127D02*
X6934468Y-14826555D01*
X6934468Y-14826555D02*
X6943991Y-14807508D01*
X6943991Y-14807508D02*
X6963039Y-14778936D01*
X6963039Y-14778936D02*
X6972563Y-14769412D01*
X7039229Y-14817031D02*
X7048753Y-14807508D01*
X7048753Y-14807508D02*
X7067801Y-14797984D01*
X7067801Y-14797984D02*
X7115420Y-14797984D01*
X7115420Y-14797984D02*
X7134468Y-14807508D01*
X7134468Y-14807508D02*
X7143991Y-14817031D01*
X7143991Y-14817031D02*
X7153515Y-14836079D01*
X7153515Y-14836079D02*
X7153515Y-14855127D01*
X7153515Y-14855127D02*
X7143991Y-14883698D01*
X7143991Y-14883698D02*
X7029706Y-14997984D01*
X7029706Y-14997984D02*
X7153515Y-14997984D01*
X7324944Y-14864650D02*
X7324944Y-14997984D01*
X7277325Y-14788460D02*
X7229706Y-14931317D01*
X7229706Y-14931317D02*
X7353515Y-14931317D01*
X7582087Y-14997984D02*
X7582087Y-14797984D01*
X7667801Y-14997984D02*
X7667801Y-14893222D01*
X7667801Y-14893222D02*
X7658277Y-14874174D01*
X7658277Y-14874174D02*
X7639230Y-14864650D01*
X7639230Y-14864650D02*
X7610658Y-14864650D01*
X7610658Y-14864650D02*
X7591610Y-14874174D01*
X7591610Y-14874174D02*
X7582087Y-14883698D01*
X7791610Y-14997984D02*
X7772563Y-14988460D01*
X7772563Y-14988460D02*
X7763039Y-14978936D01*
X7763039Y-14978936D02*
X7753515Y-14959888D01*
X7753515Y-14959888D02*
X7753515Y-14902746D01*
X7753515Y-14902746D02*
X7763039Y-14883698D01*
X7763039Y-14883698D02*
X7772563Y-14874174D01*
X7772563Y-14874174D02*
X7791610Y-14864650D01*
X7791610Y-14864650D02*
X7820182Y-14864650D01*
X7820182Y-14864650D02*
X7839230Y-14874174D01*
X7839230Y-14874174D02*
X7848753Y-14883698D01*
X7848753Y-14883698D02*
X7858277Y-14902746D01*
X7858277Y-14902746D02*
X7858277Y-14959888D01*
X7858277Y-14959888D02*
X7848753Y-14978936D01*
X7848753Y-14978936D02*
X7839230Y-14988460D01*
X7839230Y-14988460D02*
X7820182Y-14997984D01*
X7820182Y-14997984D02*
X7791610Y-14997984D01*
X7972563Y-14997984D02*
X7953515Y-14988460D01*
X7953515Y-14988460D02*
X7943991Y-14969412D01*
X7943991Y-14969412D02*
X7943991Y-14797984D01*
X8124944Y-14988460D02*
X8105896Y-14997984D01*
X8105896Y-14997984D02*
X8067801Y-14997984D01*
X8067801Y-14997984D02*
X8048753Y-14988460D01*
X8048753Y-14988460D02*
X8039230Y-14969412D01*
X8039230Y-14969412D02*
X8039230Y-14893222D01*
X8039230Y-14893222D02*
X8048753Y-14874174D01*
X8048753Y-14874174D02*
X8067801Y-14864650D01*
X8067801Y-14864650D02*
X8105896Y-14864650D01*
X8105896Y-14864650D02*
X8124944Y-14874174D01*
X8124944Y-14874174D02*
X8134468Y-14893222D01*
X8134468Y-14893222D02*
X8134468Y-14912269D01*
X8134468Y-14912269D02*
X8039230Y-14931317D01*
X8210658Y-14988460D02*
X8229706Y-14997984D01*
X8229706Y-14997984D02*
X8267801Y-14997984D01*
X8267801Y-14997984D02*
X8286849Y-14988460D01*
X8286849Y-14988460D02*
X8296372Y-14969412D01*
X8296372Y-14969412D02*
X8296372Y-14959888D01*
X8296372Y-14959888D02*
X8286849Y-14940841D01*
X8286849Y-14940841D02*
X8267801Y-14931317D01*
X8267801Y-14931317D02*
X8239230Y-14931317D01*
X8239230Y-14931317D02*
X8220182Y-14921793D01*
X8220182Y-14921793D02*
X8210658Y-14902746D01*
X8210658Y-14902746D02*
X8210658Y-14893222D01*
X8210658Y-14893222D02*
X8220182Y-14874174D01*
X8220182Y-14874174D02*
X8239230Y-14864650D01*
X8239230Y-14864650D02*
X8267801Y-14864650D01*
X8267801Y-14864650D02*
X8286849Y-14874174D01*
X8363039Y-15074174D02*
X8372563Y-15064650D01*
X8372563Y-15064650D02*
X8391611Y-15036079D01*
X8391611Y-15036079D02*
X8401134Y-15017031D01*
X8401134Y-15017031D02*
X8410658Y-14988460D01*
X8410658Y-14988460D02*
X8420182Y-14940841D01*
X8420182Y-14940841D02*
X8420182Y-14902746D01*
X8420182Y-14902746D02*
X8410658Y-14855127D01*
X8410658Y-14855127D02*
X8401134Y-14826555D01*
X8401134Y-14826555D02*
X8391611Y-14807508D01*
X8391611Y-14807508D02*
X8372563Y-14778936D01*
X8372563Y-14778936D02*
X8363039Y-14769412D01*
D12*
X3362500Y-15135500D02*
X3362500Y-15205500D01*
X3327500Y-15170500D02*
X3397500Y-15170500D01*
D11*
X3696372Y-15061984D02*
X3715420Y-15061984D01*
X3715420Y-15061984D02*
X3734467Y-15071508D01*
X3734467Y-15071508D02*
X3743991Y-15081031D01*
X3743991Y-15081031D02*
X3753515Y-15100079D01*
X3753515Y-15100079D02*
X3763039Y-15138174D01*
X3763039Y-15138174D02*
X3763039Y-15185793D01*
X3763039Y-15185793D02*
X3753515Y-15223888D01*
X3753515Y-15223888D02*
X3743991Y-15242936D01*
X3743991Y-15242936D02*
X3734467Y-15252460D01*
X3734467Y-15252460D02*
X3715420Y-15261984D01*
X3715420Y-15261984D02*
X3696372Y-15261984D01*
X3696372Y-15261984D02*
X3677324Y-15252460D01*
X3677324Y-15252460D02*
X3667801Y-15242936D01*
X3667801Y-15242936D02*
X3658277Y-15223888D01*
X3658277Y-15223888D02*
X3648753Y-15185793D01*
X3648753Y-15185793D02*
X3648753Y-15138174D01*
X3648753Y-15138174D02*
X3658277Y-15100079D01*
X3658277Y-15100079D02*
X3667801Y-15081031D01*
X3667801Y-15081031D02*
X3677324Y-15071508D01*
X3677324Y-15071508D02*
X3696372Y-15061984D01*
X3848753Y-15242936D02*
X3858277Y-15252460D01*
X3858277Y-15252460D02*
X3848753Y-15261984D01*
X3848753Y-15261984D02*
X3839229Y-15252460D01*
X3839229Y-15252460D02*
X3848753Y-15242936D01*
X3848753Y-15242936D02*
X3848753Y-15261984D01*
X3924943Y-15061984D02*
X4058277Y-15061984D01*
X4058277Y-15061984D02*
X3972562Y-15261984D01*
X4172562Y-15061984D02*
X4191610Y-15061984D01*
X4191610Y-15061984D02*
X4210658Y-15071508D01*
X4210658Y-15071508D02*
X4220182Y-15081031D01*
X4220182Y-15081031D02*
X4229705Y-15100079D01*
X4229705Y-15100079D02*
X4239229Y-15138174D01*
X4239229Y-15138174D02*
X4239229Y-15185793D01*
X4239229Y-15185793D02*
X4229705Y-15223888D01*
X4229705Y-15223888D02*
X4220182Y-15242936D01*
X4220182Y-15242936D02*
X4210658Y-15252460D01*
X4210658Y-15252460D02*
X4191610Y-15261984D01*
X4191610Y-15261984D02*
X4172562Y-15261984D01*
X4172562Y-15261984D02*
X4153515Y-15252460D01*
X4153515Y-15252460D02*
X4143991Y-15242936D01*
X4143991Y-15242936D02*
X4134467Y-15223888D01*
X4134467Y-15223888D02*
X4124943Y-15185793D01*
X4124943Y-15185793D02*
X4124943Y-15138174D01*
X4124943Y-15138174D02*
X4134467Y-15100079D01*
X4134467Y-15100079D02*
X4143991Y-15081031D01*
X4143991Y-15081031D02*
X4153515Y-15071508D01*
X4153515Y-15071508D02*
X4172562Y-15061984D01*
X4363039Y-15061984D02*
X4382086Y-15061984D01*
X4382086Y-15061984D02*
X4401134Y-15071508D01*
X4401134Y-15071508D02*
X4410658Y-15081031D01*
X4410658Y-15081031D02*
X4420182Y-15100079D01*
X4420182Y-15100079D02*
X4429705Y-15138174D01*
X4429705Y-15138174D02*
X4429705Y-15185793D01*
X4429705Y-15185793D02*
X4420182Y-15223888D01*
X4420182Y-15223888D02*
X4410658Y-15242936D01*
X4410658Y-15242936D02*
X4401134Y-15252460D01*
X4401134Y-15252460D02*
X4382086Y-15261984D01*
X4382086Y-15261984D02*
X4363039Y-15261984D01*
X4363039Y-15261984D02*
X4343991Y-15252460D01*
X4343991Y-15252460D02*
X4334467Y-15242936D01*
X4334467Y-15242936D02*
X4324944Y-15223888D01*
X4324944Y-15223888D02*
X4315420Y-15185793D01*
X4315420Y-15185793D02*
X4315420Y-15138174D01*
X4315420Y-15138174D02*
X4324944Y-15100079D01*
X4324944Y-15100079D02*
X4334467Y-15081031D01*
X4334467Y-15081031D02*
X4343991Y-15071508D01*
X4343991Y-15071508D02*
X4363039Y-15061984D01*
X4515420Y-15261984D02*
X4515420Y-15128650D01*
X4515420Y-15147698D02*
X4524944Y-15138174D01*
X4524944Y-15138174D02*
X4543991Y-15128650D01*
X4543991Y-15128650D02*
X4572563Y-15128650D01*
X4572563Y-15128650D02*
X4591610Y-15138174D01*
X4591610Y-15138174D02*
X4601134Y-15157222D01*
X4601134Y-15157222D02*
X4601134Y-15261984D01*
X4601134Y-15157222D02*
X4610658Y-15138174D01*
X4610658Y-15138174D02*
X4629705Y-15128650D01*
X4629705Y-15128650D02*
X4658277Y-15128650D01*
X4658277Y-15128650D02*
X4677325Y-15138174D01*
X4677325Y-15138174D02*
X4686848Y-15157222D01*
X4686848Y-15157222D02*
X4686848Y-15261984D01*
X4782086Y-15261984D02*
X4782086Y-15128650D01*
X4782086Y-15147698D02*
X4791610Y-15138174D01*
X4791610Y-15138174D02*
X4810658Y-15128650D01*
X4810658Y-15128650D02*
X4839229Y-15128650D01*
X4839229Y-15128650D02*
X4858277Y-15138174D01*
X4858277Y-15138174D02*
X4867801Y-15157222D01*
X4867801Y-15157222D02*
X4867801Y-15261984D01*
X4867801Y-15157222D02*
X4877325Y-15138174D01*
X4877325Y-15138174D02*
X4896372Y-15128650D01*
X4896372Y-15128650D02*
X4924944Y-15128650D01*
X4924944Y-15128650D02*
X4943991Y-15138174D01*
X4943991Y-15138174D02*
X4953515Y-15157222D01*
X4953515Y-15157222D02*
X4953515Y-15261984D01*
X5343991Y-15052460D02*
X5172563Y-15309603D01*
X5601134Y-15061984D02*
X5620182Y-15061984D01*
X5620182Y-15061984D02*
X5639229Y-15071508D01*
X5639229Y-15071508D02*
X5648753Y-15081031D01*
X5648753Y-15081031D02*
X5658277Y-15100079D01*
X5658277Y-15100079D02*
X5667801Y-15138174D01*
X5667801Y-15138174D02*
X5667801Y-15185793D01*
X5667801Y-15185793D02*
X5658277Y-15223888D01*
X5658277Y-15223888D02*
X5648753Y-15242936D01*
X5648753Y-15242936D02*
X5639229Y-15252460D01*
X5639229Y-15252460D02*
X5620182Y-15261984D01*
X5620182Y-15261984D02*
X5601134Y-15261984D01*
X5601134Y-15261984D02*
X5582087Y-15252460D01*
X5582087Y-15252460D02*
X5572563Y-15242936D01*
X5572563Y-15242936D02*
X5563039Y-15223888D01*
X5563039Y-15223888D02*
X5553515Y-15185793D01*
X5553515Y-15185793D02*
X5553515Y-15138174D01*
X5553515Y-15138174D02*
X5563039Y-15100079D01*
X5563039Y-15100079D02*
X5572563Y-15081031D01*
X5572563Y-15081031D02*
X5582087Y-15071508D01*
X5582087Y-15071508D02*
X5601134Y-15061984D01*
X5753515Y-15242936D02*
X5763039Y-15252460D01*
X5763039Y-15252460D02*
X5753515Y-15261984D01*
X5753515Y-15261984D02*
X5743991Y-15252460D01*
X5743991Y-15252460D02*
X5753515Y-15242936D01*
X5753515Y-15242936D02*
X5753515Y-15261984D01*
X5886848Y-15061984D02*
X5905896Y-15061984D01*
X5905896Y-15061984D02*
X5924944Y-15071508D01*
X5924944Y-15071508D02*
X5934467Y-15081031D01*
X5934467Y-15081031D02*
X5943991Y-15100079D01*
X5943991Y-15100079D02*
X5953515Y-15138174D01*
X5953515Y-15138174D02*
X5953515Y-15185793D01*
X5953515Y-15185793D02*
X5943991Y-15223888D01*
X5943991Y-15223888D02*
X5934467Y-15242936D01*
X5934467Y-15242936D02*
X5924944Y-15252460D01*
X5924944Y-15252460D02*
X5905896Y-15261984D01*
X5905896Y-15261984D02*
X5886848Y-15261984D01*
X5886848Y-15261984D02*
X5867801Y-15252460D01*
X5867801Y-15252460D02*
X5858277Y-15242936D01*
X5858277Y-15242936D02*
X5848753Y-15223888D01*
X5848753Y-15223888D02*
X5839229Y-15185793D01*
X5839229Y-15185793D02*
X5839229Y-15138174D01*
X5839229Y-15138174D02*
X5848753Y-15100079D01*
X5848753Y-15100079D02*
X5858277Y-15081031D01*
X5858277Y-15081031D02*
X5867801Y-15071508D01*
X5867801Y-15071508D02*
X5886848Y-15061984D01*
X6029706Y-15081031D02*
X6039229Y-15071508D01*
X6039229Y-15071508D02*
X6058277Y-15061984D01*
X6058277Y-15061984D02*
X6105896Y-15061984D01*
X6105896Y-15061984D02*
X6124944Y-15071508D01*
X6124944Y-15071508D02*
X6134467Y-15081031D01*
X6134467Y-15081031D02*
X6143991Y-15100079D01*
X6143991Y-15100079D02*
X6143991Y-15119127D01*
X6143991Y-15119127D02*
X6134467Y-15147698D01*
X6134467Y-15147698D02*
X6020182Y-15261984D01*
X6020182Y-15261984D02*
X6143991Y-15261984D01*
X6210658Y-15061984D02*
X6343991Y-15061984D01*
X6343991Y-15061984D02*
X6258277Y-15261984D01*
X6505896Y-15061984D02*
X6467801Y-15061984D01*
X6467801Y-15061984D02*
X6448753Y-15071508D01*
X6448753Y-15071508D02*
X6439229Y-15081031D01*
X6439229Y-15081031D02*
X6420182Y-15109603D01*
X6420182Y-15109603D02*
X6410658Y-15147698D01*
X6410658Y-15147698D02*
X6410658Y-15223888D01*
X6410658Y-15223888D02*
X6420182Y-15242936D01*
X6420182Y-15242936D02*
X6429706Y-15252460D01*
X6429706Y-15252460D02*
X6448753Y-15261984D01*
X6448753Y-15261984D02*
X6486848Y-15261984D01*
X6486848Y-15261984D02*
X6505896Y-15252460D01*
X6505896Y-15252460D02*
X6515420Y-15242936D01*
X6515420Y-15242936D02*
X6524944Y-15223888D01*
X6524944Y-15223888D02*
X6524944Y-15176269D01*
X6524944Y-15176269D02*
X6515420Y-15157222D01*
X6515420Y-15157222D02*
X6505896Y-15147698D01*
X6505896Y-15147698D02*
X6486848Y-15138174D01*
X6486848Y-15138174D02*
X6448753Y-15138174D01*
X6448753Y-15138174D02*
X6429706Y-15147698D01*
X6429706Y-15147698D02*
X6420182Y-15157222D01*
X6420182Y-15157222D02*
X6410658Y-15176269D01*
X6601134Y-15061984D02*
X6601134Y-15100079D01*
X6677325Y-15061984D02*
X6677325Y-15100079D01*
X6972563Y-15338174D02*
X6963039Y-15328650D01*
X6963039Y-15328650D02*
X6943991Y-15300079D01*
X6943991Y-15300079D02*
X6934468Y-15281031D01*
X6934468Y-15281031D02*
X6924944Y-15252460D01*
X6924944Y-15252460D02*
X6915420Y-15204841D01*
X6915420Y-15204841D02*
X6915420Y-15166746D01*
X6915420Y-15166746D02*
X6924944Y-15119127D01*
X6924944Y-15119127D02*
X6934468Y-15090555D01*
X6934468Y-15090555D02*
X6943991Y-15071508D01*
X6943991Y-15071508D02*
X6963039Y-15042936D01*
X6963039Y-15042936D02*
X6972563Y-15033412D01*
X7143991Y-15061984D02*
X7048753Y-15061984D01*
X7048753Y-15061984D02*
X7039229Y-15157222D01*
X7039229Y-15157222D02*
X7048753Y-15147698D01*
X7048753Y-15147698D02*
X7067801Y-15138174D01*
X7067801Y-15138174D02*
X7115420Y-15138174D01*
X7115420Y-15138174D02*
X7134468Y-15147698D01*
X7134468Y-15147698D02*
X7143991Y-15157222D01*
X7143991Y-15157222D02*
X7153515Y-15176269D01*
X7153515Y-15176269D02*
X7153515Y-15223888D01*
X7153515Y-15223888D02*
X7143991Y-15242936D01*
X7143991Y-15242936D02*
X7134468Y-15252460D01*
X7134468Y-15252460D02*
X7115420Y-15261984D01*
X7115420Y-15261984D02*
X7067801Y-15261984D01*
X7067801Y-15261984D02*
X7048753Y-15252460D01*
X7048753Y-15252460D02*
X7039229Y-15242936D01*
X7391610Y-15261984D02*
X7391610Y-15061984D01*
X7477325Y-15261984D02*
X7477325Y-15157222D01*
X7477325Y-15157222D02*
X7467801Y-15138174D01*
X7467801Y-15138174D02*
X7448753Y-15128650D01*
X7448753Y-15128650D02*
X7420182Y-15128650D01*
X7420182Y-15128650D02*
X7401134Y-15138174D01*
X7401134Y-15138174D02*
X7391610Y-15147698D01*
X7601134Y-15261984D02*
X7582087Y-15252460D01*
X7582087Y-15252460D02*
X7572563Y-15242936D01*
X7572563Y-15242936D02*
X7563039Y-15223888D01*
X7563039Y-15223888D02*
X7563039Y-15166746D01*
X7563039Y-15166746D02*
X7572563Y-15147698D01*
X7572563Y-15147698D02*
X7582087Y-15138174D01*
X7582087Y-15138174D02*
X7601134Y-15128650D01*
X7601134Y-15128650D02*
X7629706Y-15128650D01*
X7629706Y-15128650D02*
X7648753Y-15138174D01*
X7648753Y-15138174D02*
X7658277Y-15147698D01*
X7658277Y-15147698D02*
X7667801Y-15166746D01*
X7667801Y-15166746D02*
X7667801Y-15223888D01*
X7667801Y-15223888D02*
X7658277Y-15242936D01*
X7658277Y-15242936D02*
X7648753Y-15252460D01*
X7648753Y-15252460D02*
X7629706Y-15261984D01*
X7629706Y-15261984D02*
X7601134Y-15261984D01*
X7782087Y-15261984D02*
X7763039Y-15252460D01*
X7763039Y-15252460D02*
X7753515Y-15233412D01*
X7753515Y-15233412D02*
X7753515Y-15061984D01*
X7934468Y-15252460D02*
X7915420Y-15261984D01*
X7915420Y-15261984D02*
X7877325Y-15261984D01*
X7877325Y-15261984D02*
X7858277Y-15252460D01*
X7858277Y-15252460D02*
X7848753Y-15233412D01*
X7848753Y-15233412D02*
X7848753Y-15157222D01*
X7848753Y-15157222D02*
X7858277Y-15138174D01*
X7858277Y-15138174D02*
X7877325Y-15128650D01*
X7877325Y-15128650D02*
X7915420Y-15128650D01*
X7915420Y-15128650D02*
X7934468Y-15138174D01*
X7934468Y-15138174D02*
X7943991Y-15157222D01*
X7943991Y-15157222D02*
X7943991Y-15176269D01*
X7943991Y-15176269D02*
X7848753Y-15195317D01*
X8020182Y-15252460D02*
X8039230Y-15261984D01*
X8039230Y-15261984D02*
X8077325Y-15261984D01*
X8077325Y-15261984D02*
X8096372Y-15252460D01*
X8096372Y-15252460D02*
X8105896Y-15233412D01*
X8105896Y-15233412D02*
X8105896Y-15223888D01*
X8105896Y-15223888D02*
X8096372Y-15204841D01*
X8096372Y-15204841D02*
X8077325Y-15195317D01*
X8077325Y-15195317D02*
X8048753Y-15195317D01*
X8048753Y-15195317D02*
X8029706Y-15185793D01*
X8029706Y-15185793D02*
X8020182Y-15166746D01*
X8020182Y-15166746D02*
X8020182Y-15157222D01*
X8020182Y-15157222D02*
X8029706Y-15138174D01*
X8029706Y-15138174D02*
X8048753Y-15128650D01*
X8048753Y-15128650D02*
X8077325Y-15128650D01*
X8077325Y-15128650D02*
X8096372Y-15138174D01*
X8172563Y-15338174D02*
X8182087Y-15328650D01*
X8182087Y-15328650D02*
X8201134Y-15300079D01*
X8201134Y-15300079D02*
X8210658Y-15281031D01*
X8210658Y-15281031D02*
X8220182Y-15252460D01*
X8220182Y-15252460D02*
X8229706Y-15204841D01*
X8229706Y-15204841D02*
X8229706Y-15166746D01*
X8229706Y-15166746D02*
X8220182Y-15119127D01*
X8220182Y-15119127D02*
X8210658Y-15090555D01*
X8210658Y-15090555D02*
X8201134Y-15071508D01*
X8201134Y-15071508D02*
X8182087Y-15042936D01*
X8182087Y-15042936D02*
X8172563Y-15033412D01*
D12*
X3385784Y-15462784D02*
X3385784Y-15406215D01*
X3329215Y-15406215D01*
X3329215Y-15462784D01*
X3385784Y-15462784D01*
D11*
X3696372Y-15325984D02*
X3715420Y-15325984D01*
X3715420Y-15325984D02*
X3734467Y-15335508D01*
X3734467Y-15335508D02*
X3743991Y-15345031D01*
X3743991Y-15345031D02*
X3753515Y-15364079D01*
X3753515Y-15364079D02*
X3763039Y-15402174D01*
X3763039Y-15402174D02*
X3763039Y-15449793D01*
X3763039Y-15449793D02*
X3753515Y-15487888D01*
X3753515Y-15487888D02*
X3743991Y-15506936D01*
X3743991Y-15506936D02*
X3734467Y-15516460D01*
X3734467Y-15516460D02*
X3715420Y-15525984D01*
X3715420Y-15525984D02*
X3696372Y-15525984D01*
X3696372Y-15525984D02*
X3677324Y-15516460D01*
X3677324Y-15516460D02*
X3667801Y-15506936D01*
X3667801Y-15506936D02*
X3658277Y-15487888D01*
X3658277Y-15487888D02*
X3648753Y-15449793D01*
X3648753Y-15449793D02*
X3648753Y-15402174D01*
X3648753Y-15402174D02*
X3658277Y-15364079D01*
X3658277Y-15364079D02*
X3667801Y-15345031D01*
X3667801Y-15345031D02*
X3677324Y-15335508D01*
X3677324Y-15335508D02*
X3696372Y-15325984D01*
X3848753Y-15506936D02*
X3858277Y-15516460D01*
X3858277Y-15516460D02*
X3848753Y-15525984D01*
X3848753Y-15525984D02*
X3839229Y-15516460D01*
X3839229Y-15516460D02*
X3848753Y-15506936D01*
X3848753Y-15506936D02*
X3848753Y-15525984D01*
X3972562Y-15411698D02*
X3953515Y-15402174D01*
X3953515Y-15402174D02*
X3943991Y-15392650D01*
X3943991Y-15392650D02*
X3934467Y-15373603D01*
X3934467Y-15373603D02*
X3934467Y-15364079D01*
X3934467Y-15364079D02*
X3943991Y-15345031D01*
X3943991Y-15345031D02*
X3953515Y-15335508D01*
X3953515Y-15335508D02*
X3972562Y-15325984D01*
X3972562Y-15325984D02*
X4010658Y-15325984D01*
X4010658Y-15325984D02*
X4029705Y-15335508D01*
X4029705Y-15335508D02*
X4039229Y-15345031D01*
X4039229Y-15345031D02*
X4048753Y-15364079D01*
X4048753Y-15364079D02*
X4048753Y-15373603D01*
X4048753Y-15373603D02*
X4039229Y-15392650D01*
X4039229Y-15392650D02*
X4029705Y-15402174D01*
X4029705Y-15402174D02*
X4010658Y-15411698D01*
X4010658Y-15411698D02*
X3972562Y-15411698D01*
X3972562Y-15411698D02*
X3953515Y-15421222D01*
X3953515Y-15421222D02*
X3943991Y-15430746D01*
X3943991Y-15430746D02*
X3934467Y-15449793D01*
X3934467Y-15449793D02*
X3934467Y-15487888D01*
X3934467Y-15487888D02*
X3943991Y-15506936D01*
X3943991Y-15506936D02*
X3953515Y-15516460D01*
X3953515Y-15516460D02*
X3972562Y-15525984D01*
X3972562Y-15525984D02*
X4010658Y-15525984D01*
X4010658Y-15525984D02*
X4029705Y-15516460D01*
X4029705Y-15516460D02*
X4039229Y-15506936D01*
X4039229Y-15506936D02*
X4048753Y-15487888D01*
X4048753Y-15487888D02*
X4048753Y-15449793D01*
X4048753Y-15449793D02*
X4039229Y-15430746D01*
X4039229Y-15430746D02*
X4029705Y-15421222D01*
X4029705Y-15421222D02*
X4010658Y-15411698D01*
X4172562Y-15325984D02*
X4191610Y-15325984D01*
X4191610Y-15325984D02*
X4210658Y-15335508D01*
X4210658Y-15335508D02*
X4220182Y-15345031D01*
X4220182Y-15345031D02*
X4229705Y-15364079D01*
X4229705Y-15364079D02*
X4239229Y-15402174D01*
X4239229Y-15402174D02*
X4239229Y-15449793D01*
X4239229Y-15449793D02*
X4229705Y-15487888D01*
X4229705Y-15487888D02*
X4220182Y-15506936D01*
X4220182Y-15506936D02*
X4210658Y-15516460D01*
X4210658Y-15516460D02*
X4191610Y-15525984D01*
X4191610Y-15525984D02*
X4172562Y-15525984D01*
X4172562Y-15525984D02*
X4153515Y-15516460D01*
X4153515Y-15516460D02*
X4143991Y-15506936D01*
X4143991Y-15506936D02*
X4134467Y-15487888D01*
X4134467Y-15487888D02*
X4124943Y-15449793D01*
X4124943Y-15449793D02*
X4124943Y-15402174D01*
X4124943Y-15402174D02*
X4134467Y-15364079D01*
X4134467Y-15364079D02*
X4143991Y-15345031D01*
X4143991Y-15345031D02*
X4153515Y-15335508D01*
X4153515Y-15335508D02*
X4172562Y-15325984D01*
X4363039Y-15325984D02*
X4382086Y-15325984D01*
X4382086Y-15325984D02*
X4401134Y-15335508D01*
X4401134Y-15335508D02*
X4410658Y-15345031D01*
X4410658Y-15345031D02*
X4420182Y-15364079D01*
X4420182Y-15364079D02*
X4429705Y-15402174D01*
X4429705Y-15402174D02*
X4429705Y-15449793D01*
X4429705Y-15449793D02*
X4420182Y-15487888D01*
X4420182Y-15487888D02*
X4410658Y-15506936D01*
X4410658Y-15506936D02*
X4401134Y-15516460D01*
X4401134Y-15516460D02*
X4382086Y-15525984D01*
X4382086Y-15525984D02*
X4363039Y-15525984D01*
X4363039Y-15525984D02*
X4343991Y-15516460D01*
X4343991Y-15516460D02*
X4334467Y-15506936D01*
X4334467Y-15506936D02*
X4324944Y-15487888D01*
X4324944Y-15487888D02*
X4315420Y-15449793D01*
X4315420Y-15449793D02*
X4315420Y-15402174D01*
X4315420Y-15402174D02*
X4324944Y-15364079D01*
X4324944Y-15364079D02*
X4334467Y-15345031D01*
X4334467Y-15345031D02*
X4343991Y-15335508D01*
X4343991Y-15335508D02*
X4363039Y-15325984D01*
X4515420Y-15525984D02*
X4515420Y-15392650D01*
X4515420Y-15411698D02*
X4524944Y-15402174D01*
X4524944Y-15402174D02*
X4543991Y-15392650D01*
X4543991Y-15392650D02*
X4572563Y-15392650D01*
X4572563Y-15392650D02*
X4591610Y-15402174D01*
X4591610Y-15402174D02*
X4601134Y-15421222D01*
X4601134Y-15421222D02*
X4601134Y-15525984D01*
X4601134Y-15421222D02*
X4610658Y-15402174D01*
X4610658Y-15402174D02*
X4629705Y-15392650D01*
X4629705Y-15392650D02*
X4658277Y-15392650D01*
X4658277Y-15392650D02*
X4677325Y-15402174D01*
X4677325Y-15402174D02*
X4686848Y-15421222D01*
X4686848Y-15421222D02*
X4686848Y-15525984D01*
X4782086Y-15525984D02*
X4782086Y-15392650D01*
X4782086Y-15411698D02*
X4791610Y-15402174D01*
X4791610Y-15402174D02*
X4810658Y-15392650D01*
X4810658Y-15392650D02*
X4839229Y-15392650D01*
X4839229Y-15392650D02*
X4858277Y-15402174D01*
X4858277Y-15402174D02*
X4867801Y-15421222D01*
X4867801Y-15421222D02*
X4867801Y-15525984D01*
X4867801Y-15421222D02*
X4877325Y-15402174D01*
X4877325Y-15402174D02*
X4896372Y-15392650D01*
X4896372Y-15392650D02*
X4924944Y-15392650D01*
X4924944Y-15392650D02*
X4943991Y-15402174D01*
X4943991Y-15402174D02*
X4953515Y-15421222D01*
X4953515Y-15421222D02*
X4953515Y-15525984D01*
X5343991Y-15316460D02*
X5172563Y-15573603D01*
X5601134Y-15325984D02*
X5620182Y-15325984D01*
X5620182Y-15325984D02*
X5639229Y-15335508D01*
X5639229Y-15335508D02*
X5648753Y-15345031D01*
X5648753Y-15345031D02*
X5658277Y-15364079D01*
X5658277Y-15364079D02*
X5667801Y-15402174D01*
X5667801Y-15402174D02*
X5667801Y-15449793D01*
X5667801Y-15449793D02*
X5658277Y-15487888D01*
X5658277Y-15487888D02*
X5648753Y-15506936D01*
X5648753Y-15506936D02*
X5639229Y-15516460D01*
X5639229Y-15516460D02*
X5620182Y-15525984D01*
X5620182Y-15525984D02*
X5601134Y-15525984D01*
X5601134Y-15525984D02*
X5582087Y-15516460D01*
X5582087Y-15516460D02*
X5572563Y-15506936D01*
X5572563Y-15506936D02*
X5563039Y-15487888D01*
X5563039Y-15487888D02*
X5553515Y-15449793D01*
X5553515Y-15449793D02*
X5553515Y-15402174D01*
X5553515Y-15402174D02*
X5563039Y-15364079D01*
X5563039Y-15364079D02*
X5572563Y-15345031D01*
X5572563Y-15345031D02*
X5582087Y-15335508D01*
X5582087Y-15335508D02*
X5601134Y-15325984D01*
X5753515Y-15506936D02*
X5763039Y-15516460D01*
X5763039Y-15516460D02*
X5753515Y-15525984D01*
X5753515Y-15525984D02*
X5743991Y-15516460D01*
X5743991Y-15516460D02*
X5753515Y-15506936D01*
X5753515Y-15506936D02*
X5753515Y-15525984D01*
X5886848Y-15325984D02*
X5905896Y-15325984D01*
X5905896Y-15325984D02*
X5924944Y-15335508D01*
X5924944Y-15335508D02*
X5934467Y-15345031D01*
X5934467Y-15345031D02*
X5943991Y-15364079D01*
X5943991Y-15364079D02*
X5953515Y-15402174D01*
X5953515Y-15402174D02*
X5953515Y-15449793D01*
X5953515Y-15449793D02*
X5943991Y-15487888D01*
X5943991Y-15487888D02*
X5934467Y-15506936D01*
X5934467Y-15506936D02*
X5924944Y-15516460D01*
X5924944Y-15516460D02*
X5905896Y-15525984D01*
X5905896Y-15525984D02*
X5886848Y-15525984D01*
X5886848Y-15525984D02*
X5867801Y-15516460D01*
X5867801Y-15516460D02*
X5858277Y-15506936D01*
X5858277Y-15506936D02*
X5848753Y-15487888D01*
X5848753Y-15487888D02*
X5839229Y-15449793D01*
X5839229Y-15449793D02*
X5839229Y-15402174D01*
X5839229Y-15402174D02*
X5848753Y-15364079D01*
X5848753Y-15364079D02*
X5858277Y-15345031D01*
X5858277Y-15345031D02*
X5867801Y-15335508D01*
X5867801Y-15335508D02*
X5886848Y-15325984D01*
X6020182Y-15325984D02*
X6143991Y-15325984D01*
X6143991Y-15325984D02*
X6077325Y-15402174D01*
X6077325Y-15402174D02*
X6105896Y-15402174D01*
X6105896Y-15402174D02*
X6124944Y-15411698D01*
X6124944Y-15411698D02*
X6134467Y-15421222D01*
X6134467Y-15421222D02*
X6143991Y-15440269D01*
X6143991Y-15440269D02*
X6143991Y-15487888D01*
X6143991Y-15487888D02*
X6134467Y-15506936D01*
X6134467Y-15506936D02*
X6124944Y-15516460D01*
X6124944Y-15516460D02*
X6105896Y-15525984D01*
X6105896Y-15525984D02*
X6048753Y-15525984D01*
X6048753Y-15525984D02*
X6029706Y-15516460D01*
X6029706Y-15516460D02*
X6020182Y-15506936D01*
X6334467Y-15525984D02*
X6220182Y-15525984D01*
X6277325Y-15525984D02*
X6277325Y-15325984D01*
X6277325Y-15325984D02*
X6258277Y-15354555D01*
X6258277Y-15354555D02*
X6239229Y-15373603D01*
X6239229Y-15373603D02*
X6220182Y-15383127D01*
X6515420Y-15325984D02*
X6420182Y-15325984D01*
X6420182Y-15325984D02*
X6410658Y-15421222D01*
X6410658Y-15421222D02*
X6420182Y-15411698D01*
X6420182Y-15411698D02*
X6439229Y-15402174D01*
X6439229Y-15402174D02*
X6486848Y-15402174D01*
X6486848Y-15402174D02*
X6505896Y-15411698D01*
X6505896Y-15411698D02*
X6515420Y-15421222D01*
X6515420Y-15421222D02*
X6524944Y-15440269D01*
X6524944Y-15440269D02*
X6524944Y-15487888D01*
X6524944Y-15487888D02*
X6515420Y-15506936D01*
X6515420Y-15506936D02*
X6505896Y-15516460D01*
X6505896Y-15516460D02*
X6486848Y-15525984D01*
X6486848Y-15525984D02*
X6439229Y-15525984D01*
X6439229Y-15525984D02*
X6420182Y-15516460D01*
X6420182Y-15516460D02*
X6410658Y-15506936D01*
X6601134Y-15325984D02*
X6601134Y-15364079D01*
X6677325Y-15325984D02*
X6677325Y-15364079D01*
X6972563Y-15602174D02*
X6963039Y-15592650D01*
X6963039Y-15592650D02*
X6943991Y-15564079D01*
X6943991Y-15564079D02*
X6934468Y-15545031D01*
X6934468Y-15545031D02*
X6924944Y-15516460D01*
X6924944Y-15516460D02*
X6915420Y-15468841D01*
X6915420Y-15468841D02*
X6915420Y-15430746D01*
X6915420Y-15430746D02*
X6924944Y-15383127D01*
X6924944Y-15383127D02*
X6934468Y-15354555D01*
X6934468Y-15354555D02*
X6943991Y-15335508D01*
X6943991Y-15335508D02*
X6963039Y-15306936D01*
X6963039Y-15306936D02*
X6972563Y-15297412D01*
X7039229Y-15345031D02*
X7048753Y-15335508D01*
X7048753Y-15335508D02*
X7067801Y-15325984D01*
X7067801Y-15325984D02*
X7115420Y-15325984D01*
X7115420Y-15325984D02*
X7134468Y-15335508D01*
X7134468Y-15335508D02*
X7143991Y-15345031D01*
X7143991Y-15345031D02*
X7153515Y-15364079D01*
X7153515Y-15364079D02*
X7153515Y-15383127D01*
X7153515Y-15383127D02*
X7143991Y-15411698D01*
X7143991Y-15411698D02*
X7029706Y-15525984D01*
X7029706Y-15525984D02*
X7153515Y-15525984D01*
X7324944Y-15392650D02*
X7324944Y-15525984D01*
X7277325Y-15316460D02*
X7229706Y-15459317D01*
X7229706Y-15459317D02*
X7353515Y-15459317D01*
X7582087Y-15525984D02*
X7582087Y-15325984D01*
X7667801Y-15525984D02*
X7667801Y-15421222D01*
X7667801Y-15421222D02*
X7658277Y-15402174D01*
X7658277Y-15402174D02*
X7639230Y-15392650D01*
X7639230Y-15392650D02*
X7610658Y-15392650D01*
X7610658Y-15392650D02*
X7591610Y-15402174D01*
X7591610Y-15402174D02*
X7582087Y-15411698D01*
X7791610Y-15525984D02*
X7772563Y-15516460D01*
X7772563Y-15516460D02*
X7763039Y-15506936D01*
X7763039Y-15506936D02*
X7753515Y-15487888D01*
X7753515Y-15487888D02*
X7753515Y-15430746D01*
X7753515Y-15430746D02*
X7763039Y-15411698D01*
X7763039Y-15411698D02*
X7772563Y-15402174D01*
X7772563Y-15402174D02*
X7791610Y-15392650D01*
X7791610Y-15392650D02*
X7820182Y-15392650D01*
X7820182Y-15392650D02*
X7839230Y-15402174D01*
X7839230Y-15402174D02*
X7848753Y-15411698D01*
X7848753Y-15411698D02*
X7858277Y-15430746D01*
X7858277Y-15430746D02*
X7858277Y-15487888D01*
X7858277Y-15487888D02*
X7848753Y-15506936D01*
X7848753Y-15506936D02*
X7839230Y-15516460D01*
X7839230Y-15516460D02*
X7820182Y-15525984D01*
X7820182Y-15525984D02*
X7791610Y-15525984D01*
X7972563Y-15525984D02*
X7953515Y-15516460D01*
X7953515Y-15516460D02*
X7943991Y-15497412D01*
X7943991Y-15497412D02*
X7943991Y-15325984D01*
X8124944Y-15516460D02*
X8105896Y-15525984D01*
X8105896Y-15525984D02*
X8067801Y-15525984D01*
X8067801Y-15525984D02*
X8048753Y-15516460D01*
X8048753Y-15516460D02*
X8039230Y-15497412D01*
X8039230Y-15497412D02*
X8039230Y-15421222D01*
X8039230Y-15421222D02*
X8048753Y-15402174D01*
X8048753Y-15402174D02*
X8067801Y-15392650D01*
X8067801Y-15392650D02*
X8105896Y-15392650D01*
X8105896Y-15392650D02*
X8124944Y-15402174D01*
X8124944Y-15402174D02*
X8134468Y-15421222D01*
X8134468Y-15421222D02*
X8134468Y-15440269D01*
X8134468Y-15440269D02*
X8039230Y-15459317D01*
X8210658Y-15516460D02*
X8229706Y-15525984D01*
X8229706Y-15525984D02*
X8267801Y-15525984D01*
X8267801Y-15525984D02*
X8286849Y-15516460D01*
X8286849Y-15516460D02*
X8296372Y-15497412D01*
X8296372Y-15497412D02*
X8296372Y-15487888D01*
X8296372Y-15487888D02*
X8286849Y-15468841D01*
X8286849Y-15468841D02*
X8267801Y-15459317D01*
X8267801Y-15459317D02*
X8239230Y-15459317D01*
X8239230Y-15459317D02*
X8220182Y-15449793D01*
X8220182Y-15449793D02*
X8210658Y-15430746D01*
X8210658Y-15430746D02*
X8210658Y-15421222D01*
X8210658Y-15421222D02*
X8220182Y-15402174D01*
X8220182Y-15402174D02*
X8239230Y-15392650D01*
X8239230Y-15392650D02*
X8267801Y-15392650D01*
X8267801Y-15392650D02*
X8286849Y-15402174D01*
X8363039Y-15602174D02*
X8372563Y-15592650D01*
X8372563Y-15592650D02*
X8391611Y-15564079D01*
X8391611Y-15564079D02*
X8401134Y-15545031D01*
X8401134Y-15545031D02*
X8410658Y-15516460D01*
X8410658Y-15516460D02*
X8420182Y-15468841D01*
X8420182Y-15468841D02*
X8420182Y-15430746D01*
X8420182Y-15430746D02*
X8410658Y-15383127D01*
X8410658Y-15383127D02*
X8401134Y-15354555D01*
X8401134Y-15354555D02*
X8391611Y-15335508D01*
X8391611Y-15335508D02*
X8372563Y-15306936D01*
X8372563Y-15306936D02*
X8363039Y-15297412D01*
D12*
X3347500Y-15748500D02*
X3397500Y-15698500D01*
X3347500Y-15648500D01*
X3297500Y-15698500D01*
X3347500Y-15748500D01*
D11*
X3763039Y-15789984D02*
X3648753Y-15789984D01*
X3705896Y-15789984D02*
X3705896Y-15589984D01*
X3705896Y-15589984D02*
X3686848Y-15618555D01*
X3686848Y-15618555D02*
X3667801Y-15637603D01*
X3667801Y-15637603D02*
X3648753Y-15647127D01*
X3848753Y-15770936D02*
X3858277Y-15780460D01*
X3858277Y-15780460D02*
X3848753Y-15789984D01*
X3848753Y-15789984D02*
X3839229Y-15780460D01*
X3839229Y-15780460D02*
X3848753Y-15770936D01*
X3848753Y-15770936D02*
X3848753Y-15789984D01*
X3982086Y-15589984D02*
X4001134Y-15589984D01*
X4001134Y-15589984D02*
X4020182Y-15599508D01*
X4020182Y-15599508D02*
X4029705Y-15609031D01*
X4029705Y-15609031D02*
X4039229Y-15628079D01*
X4039229Y-15628079D02*
X4048753Y-15666174D01*
X4048753Y-15666174D02*
X4048753Y-15713793D01*
X4048753Y-15713793D02*
X4039229Y-15751888D01*
X4039229Y-15751888D02*
X4029705Y-15770936D01*
X4029705Y-15770936D02*
X4020182Y-15780460D01*
X4020182Y-15780460D02*
X4001134Y-15789984D01*
X4001134Y-15789984D02*
X3982086Y-15789984D01*
X3982086Y-15789984D02*
X3963039Y-15780460D01*
X3963039Y-15780460D02*
X3953515Y-15770936D01*
X3953515Y-15770936D02*
X3943991Y-15751888D01*
X3943991Y-15751888D02*
X3934467Y-15713793D01*
X3934467Y-15713793D02*
X3934467Y-15666174D01*
X3934467Y-15666174D02*
X3943991Y-15628079D01*
X3943991Y-15628079D02*
X3953515Y-15609031D01*
X3953515Y-15609031D02*
X3963039Y-15599508D01*
X3963039Y-15599508D02*
X3982086Y-15589984D01*
X4172562Y-15589984D02*
X4191610Y-15589984D01*
X4191610Y-15589984D02*
X4210658Y-15599508D01*
X4210658Y-15599508D02*
X4220182Y-15609031D01*
X4220182Y-15609031D02*
X4229705Y-15628079D01*
X4229705Y-15628079D02*
X4239229Y-15666174D01*
X4239229Y-15666174D02*
X4239229Y-15713793D01*
X4239229Y-15713793D02*
X4229705Y-15751888D01*
X4229705Y-15751888D02*
X4220182Y-15770936D01*
X4220182Y-15770936D02*
X4210658Y-15780460D01*
X4210658Y-15780460D02*
X4191610Y-15789984D01*
X4191610Y-15789984D02*
X4172562Y-15789984D01*
X4172562Y-15789984D02*
X4153515Y-15780460D01*
X4153515Y-15780460D02*
X4143991Y-15770936D01*
X4143991Y-15770936D02*
X4134467Y-15751888D01*
X4134467Y-15751888D02*
X4124943Y-15713793D01*
X4124943Y-15713793D02*
X4124943Y-15666174D01*
X4124943Y-15666174D02*
X4134467Y-15628079D01*
X4134467Y-15628079D02*
X4143991Y-15609031D01*
X4143991Y-15609031D02*
X4153515Y-15599508D01*
X4153515Y-15599508D02*
X4172562Y-15589984D01*
X4363039Y-15589984D02*
X4382086Y-15589984D01*
X4382086Y-15589984D02*
X4401134Y-15599508D01*
X4401134Y-15599508D02*
X4410658Y-15609031D01*
X4410658Y-15609031D02*
X4420182Y-15628079D01*
X4420182Y-15628079D02*
X4429705Y-15666174D01*
X4429705Y-15666174D02*
X4429705Y-15713793D01*
X4429705Y-15713793D02*
X4420182Y-15751888D01*
X4420182Y-15751888D02*
X4410658Y-15770936D01*
X4410658Y-15770936D02*
X4401134Y-15780460D01*
X4401134Y-15780460D02*
X4382086Y-15789984D01*
X4382086Y-15789984D02*
X4363039Y-15789984D01*
X4363039Y-15789984D02*
X4343991Y-15780460D01*
X4343991Y-15780460D02*
X4334467Y-15770936D01*
X4334467Y-15770936D02*
X4324944Y-15751888D01*
X4324944Y-15751888D02*
X4315420Y-15713793D01*
X4315420Y-15713793D02*
X4315420Y-15666174D01*
X4315420Y-15666174D02*
X4324944Y-15628079D01*
X4324944Y-15628079D02*
X4334467Y-15609031D01*
X4334467Y-15609031D02*
X4343991Y-15599508D01*
X4343991Y-15599508D02*
X4363039Y-15589984D01*
X4515420Y-15789984D02*
X4515420Y-15656650D01*
X4515420Y-15675698D02*
X4524944Y-15666174D01*
X4524944Y-15666174D02*
X4543991Y-15656650D01*
X4543991Y-15656650D02*
X4572563Y-15656650D01*
X4572563Y-15656650D02*
X4591610Y-15666174D01*
X4591610Y-15666174D02*
X4601134Y-15685222D01*
X4601134Y-15685222D02*
X4601134Y-15789984D01*
X4601134Y-15685222D02*
X4610658Y-15666174D01*
X4610658Y-15666174D02*
X4629705Y-15656650D01*
X4629705Y-15656650D02*
X4658277Y-15656650D01*
X4658277Y-15656650D02*
X4677325Y-15666174D01*
X4677325Y-15666174D02*
X4686848Y-15685222D01*
X4686848Y-15685222D02*
X4686848Y-15789984D01*
X4782086Y-15789984D02*
X4782086Y-15656650D01*
X4782086Y-15675698D02*
X4791610Y-15666174D01*
X4791610Y-15666174D02*
X4810658Y-15656650D01*
X4810658Y-15656650D02*
X4839229Y-15656650D01*
X4839229Y-15656650D02*
X4858277Y-15666174D01*
X4858277Y-15666174D02*
X4867801Y-15685222D01*
X4867801Y-15685222D02*
X4867801Y-15789984D01*
X4867801Y-15685222D02*
X4877325Y-15666174D01*
X4877325Y-15666174D02*
X4896372Y-15656650D01*
X4896372Y-15656650D02*
X4924944Y-15656650D01*
X4924944Y-15656650D02*
X4943991Y-15666174D01*
X4943991Y-15666174D02*
X4953515Y-15685222D01*
X4953515Y-15685222D02*
X4953515Y-15789984D01*
X5343991Y-15580460D02*
X5172563Y-15837603D01*
X5601134Y-15589984D02*
X5620182Y-15589984D01*
X5620182Y-15589984D02*
X5639229Y-15599508D01*
X5639229Y-15599508D02*
X5648753Y-15609031D01*
X5648753Y-15609031D02*
X5658277Y-15628079D01*
X5658277Y-15628079D02*
X5667801Y-15666174D01*
X5667801Y-15666174D02*
X5667801Y-15713793D01*
X5667801Y-15713793D02*
X5658277Y-15751888D01*
X5658277Y-15751888D02*
X5648753Y-15770936D01*
X5648753Y-15770936D02*
X5639229Y-15780460D01*
X5639229Y-15780460D02*
X5620182Y-15789984D01*
X5620182Y-15789984D02*
X5601134Y-15789984D01*
X5601134Y-15789984D02*
X5582087Y-15780460D01*
X5582087Y-15780460D02*
X5572563Y-15770936D01*
X5572563Y-15770936D02*
X5563039Y-15751888D01*
X5563039Y-15751888D02*
X5553515Y-15713793D01*
X5553515Y-15713793D02*
X5553515Y-15666174D01*
X5553515Y-15666174D02*
X5563039Y-15628079D01*
X5563039Y-15628079D02*
X5572563Y-15609031D01*
X5572563Y-15609031D02*
X5582087Y-15599508D01*
X5582087Y-15599508D02*
X5601134Y-15589984D01*
X5753515Y-15770936D02*
X5763039Y-15780460D01*
X5763039Y-15780460D02*
X5753515Y-15789984D01*
X5753515Y-15789984D02*
X5743991Y-15780460D01*
X5743991Y-15780460D02*
X5753515Y-15770936D01*
X5753515Y-15770936D02*
X5753515Y-15789984D01*
X5886848Y-15589984D02*
X5905896Y-15589984D01*
X5905896Y-15589984D02*
X5924944Y-15599508D01*
X5924944Y-15599508D02*
X5934467Y-15609031D01*
X5934467Y-15609031D02*
X5943991Y-15628079D01*
X5943991Y-15628079D02*
X5953515Y-15666174D01*
X5953515Y-15666174D02*
X5953515Y-15713793D01*
X5953515Y-15713793D02*
X5943991Y-15751888D01*
X5943991Y-15751888D02*
X5934467Y-15770936D01*
X5934467Y-15770936D02*
X5924944Y-15780460D01*
X5924944Y-15780460D02*
X5905896Y-15789984D01*
X5905896Y-15789984D02*
X5886848Y-15789984D01*
X5886848Y-15789984D02*
X5867801Y-15780460D01*
X5867801Y-15780460D02*
X5858277Y-15770936D01*
X5858277Y-15770936D02*
X5848753Y-15751888D01*
X5848753Y-15751888D02*
X5839229Y-15713793D01*
X5839229Y-15713793D02*
X5839229Y-15666174D01*
X5839229Y-15666174D02*
X5848753Y-15628079D01*
X5848753Y-15628079D02*
X5858277Y-15609031D01*
X5858277Y-15609031D02*
X5867801Y-15599508D01*
X5867801Y-15599508D02*
X5886848Y-15589984D01*
X6020182Y-15589984D02*
X6143991Y-15589984D01*
X6143991Y-15589984D02*
X6077325Y-15666174D01*
X6077325Y-15666174D02*
X6105896Y-15666174D01*
X6105896Y-15666174D02*
X6124944Y-15675698D01*
X6124944Y-15675698D02*
X6134467Y-15685222D01*
X6134467Y-15685222D02*
X6143991Y-15704269D01*
X6143991Y-15704269D02*
X6143991Y-15751888D01*
X6143991Y-15751888D02*
X6134467Y-15770936D01*
X6134467Y-15770936D02*
X6124944Y-15780460D01*
X6124944Y-15780460D02*
X6105896Y-15789984D01*
X6105896Y-15789984D02*
X6048753Y-15789984D01*
X6048753Y-15789984D02*
X6029706Y-15780460D01*
X6029706Y-15780460D02*
X6020182Y-15770936D01*
X6239229Y-15789984D02*
X6277325Y-15789984D01*
X6277325Y-15789984D02*
X6296372Y-15780460D01*
X6296372Y-15780460D02*
X6305896Y-15770936D01*
X6305896Y-15770936D02*
X6324944Y-15742365D01*
X6324944Y-15742365D02*
X6334467Y-15704269D01*
X6334467Y-15704269D02*
X6334467Y-15628079D01*
X6334467Y-15628079D02*
X6324944Y-15609031D01*
X6324944Y-15609031D02*
X6315420Y-15599508D01*
X6315420Y-15599508D02*
X6296372Y-15589984D01*
X6296372Y-15589984D02*
X6258277Y-15589984D01*
X6258277Y-15589984D02*
X6239229Y-15599508D01*
X6239229Y-15599508D02*
X6229706Y-15609031D01*
X6229706Y-15609031D02*
X6220182Y-15628079D01*
X6220182Y-15628079D02*
X6220182Y-15675698D01*
X6220182Y-15675698D02*
X6229706Y-15694746D01*
X6229706Y-15694746D02*
X6239229Y-15704269D01*
X6239229Y-15704269D02*
X6258277Y-15713793D01*
X6258277Y-15713793D02*
X6296372Y-15713793D01*
X6296372Y-15713793D02*
X6315420Y-15704269D01*
X6315420Y-15704269D02*
X6324944Y-15694746D01*
X6324944Y-15694746D02*
X6334467Y-15675698D01*
X6505896Y-15656650D02*
X6505896Y-15789984D01*
X6458277Y-15580460D02*
X6410658Y-15723317D01*
X6410658Y-15723317D02*
X6534467Y-15723317D01*
X6601134Y-15589984D02*
X6601134Y-15628079D01*
X6677325Y-15589984D02*
X6677325Y-15628079D01*
X6972563Y-15866174D02*
X6963039Y-15856650D01*
X6963039Y-15856650D02*
X6943991Y-15828079D01*
X6943991Y-15828079D02*
X6934468Y-15809031D01*
X6934468Y-15809031D02*
X6924944Y-15780460D01*
X6924944Y-15780460D02*
X6915420Y-15732841D01*
X6915420Y-15732841D02*
X6915420Y-15694746D01*
X6915420Y-15694746D02*
X6924944Y-15647127D01*
X6924944Y-15647127D02*
X6934468Y-15618555D01*
X6934468Y-15618555D02*
X6943991Y-15599508D01*
X6943991Y-15599508D02*
X6963039Y-15570936D01*
X6963039Y-15570936D02*
X6972563Y-15561412D01*
X7143991Y-15589984D02*
X7048753Y-15589984D01*
X7048753Y-15589984D02*
X7039229Y-15685222D01*
X7039229Y-15685222D02*
X7048753Y-15675698D01*
X7048753Y-15675698D02*
X7067801Y-15666174D01*
X7067801Y-15666174D02*
X7115420Y-15666174D01*
X7115420Y-15666174D02*
X7134468Y-15675698D01*
X7134468Y-15675698D02*
X7143991Y-15685222D01*
X7143991Y-15685222D02*
X7153515Y-15704269D01*
X7153515Y-15704269D02*
X7153515Y-15751888D01*
X7153515Y-15751888D02*
X7143991Y-15770936D01*
X7143991Y-15770936D02*
X7134468Y-15780460D01*
X7134468Y-15780460D02*
X7115420Y-15789984D01*
X7115420Y-15789984D02*
X7067801Y-15789984D01*
X7067801Y-15789984D02*
X7048753Y-15780460D01*
X7048753Y-15780460D02*
X7039229Y-15770936D01*
X7334468Y-15589984D02*
X7239229Y-15589984D01*
X7239229Y-15589984D02*
X7229706Y-15685222D01*
X7229706Y-15685222D02*
X7239229Y-15675698D01*
X7239229Y-15675698D02*
X7258277Y-15666174D01*
X7258277Y-15666174D02*
X7305896Y-15666174D01*
X7305896Y-15666174D02*
X7324944Y-15675698D01*
X7324944Y-15675698D02*
X7334468Y-15685222D01*
X7334468Y-15685222D02*
X7343991Y-15704269D01*
X7343991Y-15704269D02*
X7343991Y-15751888D01*
X7343991Y-15751888D02*
X7334468Y-15770936D01*
X7334468Y-15770936D02*
X7324944Y-15780460D01*
X7324944Y-15780460D02*
X7305896Y-15789984D01*
X7305896Y-15789984D02*
X7258277Y-15789984D01*
X7258277Y-15789984D02*
X7239229Y-15780460D01*
X7239229Y-15780460D02*
X7229706Y-15770936D01*
X7582087Y-15789984D02*
X7582087Y-15589984D01*
X7667801Y-15789984D02*
X7667801Y-15685222D01*
X7667801Y-15685222D02*
X7658277Y-15666174D01*
X7658277Y-15666174D02*
X7639230Y-15656650D01*
X7639230Y-15656650D02*
X7610658Y-15656650D01*
X7610658Y-15656650D02*
X7591610Y-15666174D01*
X7591610Y-15666174D02*
X7582087Y-15675698D01*
X7791610Y-15789984D02*
X7772563Y-15780460D01*
X7772563Y-15780460D02*
X7763039Y-15770936D01*
X7763039Y-15770936D02*
X7753515Y-15751888D01*
X7753515Y-15751888D02*
X7753515Y-15694746D01*
X7753515Y-15694746D02*
X7763039Y-15675698D01*
X7763039Y-15675698D02*
X7772563Y-15666174D01*
X7772563Y-15666174D02*
X7791610Y-15656650D01*
X7791610Y-15656650D02*
X7820182Y-15656650D01*
X7820182Y-15656650D02*
X7839230Y-15666174D01*
X7839230Y-15666174D02*
X7848753Y-15675698D01*
X7848753Y-15675698D02*
X7858277Y-15694746D01*
X7858277Y-15694746D02*
X7858277Y-15751888D01*
X7858277Y-15751888D02*
X7848753Y-15770936D01*
X7848753Y-15770936D02*
X7839230Y-15780460D01*
X7839230Y-15780460D02*
X7820182Y-15789984D01*
X7820182Y-15789984D02*
X7791610Y-15789984D01*
X7972563Y-15789984D02*
X7953515Y-15780460D01*
X7953515Y-15780460D02*
X7943991Y-15761412D01*
X7943991Y-15761412D02*
X7943991Y-15589984D01*
X8124944Y-15780460D02*
X8105896Y-15789984D01*
X8105896Y-15789984D02*
X8067801Y-15789984D01*
X8067801Y-15789984D02*
X8048753Y-15780460D01*
X8048753Y-15780460D02*
X8039230Y-15761412D01*
X8039230Y-15761412D02*
X8039230Y-15685222D01*
X8039230Y-15685222D02*
X8048753Y-15666174D01*
X8048753Y-15666174D02*
X8067801Y-15656650D01*
X8067801Y-15656650D02*
X8105896Y-15656650D01*
X8105896Y-15656650D02*
X8124944Y-15666174D01*
X8124944Y-15666174D02*
X8134468Y-15685222D01*
X8134468Y-15685222D02*
X8134468Y-15704269D01*
X8134468Y-15704269D02*
X8039230Y-15723317D01*
X8210658Y-15780460D02*
X8229706Y-15789984D01*
X8229706Y-15789984D02*
X8267801Y-15789984D01*
X8267801Y-15789984D02*
X8286849Y-15780460D01*
X8286849Y-15780460D02*
X8296372Y-15761412D01*
X8296372Y-15761412D02*
X8296372Y-15751888D01*
X8296372Y-15751888D02*
X8286849Y-15732841D01*
X8286849Y-15732841D02*
X8267801Y-15723317D01*
X8267801Y-15723317D02*
X8239230Y-15723317D01*
X8239230Y-15723317D02*
X8220182Y-15713793D01*
X8220182Y-15713793D02*
X8210658Y-15694746D01*
X8210658Y-15694746D02*
X8210658Y-15685222D01*
X8210658Y-15685222D02*
X8220182Y-15666174D01*
X8220182Y-15666174D02*
X8239230Y-15656650D01*
X8239230Y-15656650D02*
X8267801Y-15656650D01*
X8267801Y-15656650D02*
X8286849Y-15666174D01*
X8363039Y-15866174D02*
X8372563Y-15856650D01*
X8372563Y-15856650D02*
X8391611Y-15828079D01*
X8391611Y-15828079D02*
X8401134Y-15809031D01*
X8401134Y-15809031D02*
X8410658Y-15780460D01*
X8410658Y-15780460D02*
X8420182Y-15732841D01*
X8420182Y-15732841D02*
X8420182Y-15694746D01*
X8420182Y-15694746D02*
X8410658Y-15647127D01*
X8410658Y-15647127D02*
X8401134Y-15618555D01*
X8401134Y-15618555D02*
X8391611Y-15599508D01*
X8391611Y-15599508D02*
X8372563Y-15570936D01*
X8372563Y-15570936D02*
X8363039Y-15561412D01*
D13*
X3287500Y-15907500D02*
X3397500Y-16017500D01*
X3397500Y-15907500D02*
X3287500Y-16017500D01*
X3397500Y-15962500D02*
G75*
G02*
X3287500Y-15962500I-55000J0D01*
G01*
X3287500Y-15962500D02*
G75*
G02*
X3397500Y-15962500I55000J0D01*
G01*
D11*
X3763039Y-16053984D02*
X3648753Y-16053984D01*
X3705896Y-16053984D02*
X3705896Y-15853984D01*
X3705896Y-15853984D02*
X3686848Y-15882555D01*
X3686848Y-15882555D02*
X3667801Y-15901603D01*
X3667801Y-15901603D02*
X3648753Y-15911127D01*
X3848753Y-16034936D02*
X3858277Y-16044460D01*
X3858277Y-16044460D02*
X3848753Y-16053984D01*
X3848753Y-16053984D02*
X3839229Y-16044460D01*
X3839229Y-16044460D02*
X3848753Y-16034936D01*
X3848753Y-16034936D02*
X3848753Y-16053984D01*
X4048753Y-16053984D02*
X3934467Y-16053984D01*
X3991610Y-16053984D02*
X3991610Y-15853984D01*
X3991610Y-15853984D02*
X3972562Y-15882555D01*
X3972562Y-15882555D02*
X3953515Y-15901603D01*
X3953515Y-15901603D02*
X3934467Y-15911127D01*
X4172562Y-15853984D02*
X4191610Y-15853984D01*
X4191610Y-15853984D02*
X4210658Y-15863508D01*
X4210658Y-15863508D02*
X4220182Y-15873031D01*
X4220182Y-15873031D02*
X4229705Y-15892079D01*
X4229705Y-15892079D02*
X4239229Y-15930174D01*
X4239229Y-15930174D02*
X4239229Y-15977793D01*
X4239229Y-15977793D02*
X4229705Y-16015888D01*
X4229705Y-16015888D02*
X4220182Y-16034936D01*
X4220182Y-16034936D02*
X4210658Y-16044460D01*
X4210658Y-16044460D02*
X4191610Y-16053984D01*
X4191610Y-16053984D02*
X4172562Y-16053984D01*
X4172562Y-16053984D02*
X4153515Y-16044460D01*
X4153515Y-16044460D02*
X4143991Y-16034936D01*
X4143991Y-16034936D02*
X4134467Y-16015888D01*
X4134467Y-16015888D02*
X4124943Y-15977793D01*
X4124943Y-15977793D02*
X4124943Y-15930174D01*
X4124943Y-15930174D02*
X4134467Y-15892079D01*
X4134467Y-15892079D02*
X4143991Y-15873031D01*
X4143991Y-15873031D02*
X4153515Y-15863508D01*
X4153515Y-15863508D02*
X4172562Y-15853984D01*
X4363039Y-15853984D02*
X4382086Y-15853984D01*
X4382086Y-15853984D02*
X4401134Y-15863508D01*
X4401134Y-15863508D02*
X4410658Y-15873031D01*
X4410658Y-15873031D02*
X4420182Y-15892079D01*
X4420182Y-15892079D02*
X4429705Y-15930174D01*
X4429705Y-15930174D02*
X4429705Y-15977793D01*
X4429705Y-15977793D02*
X4420182Y-16015888D01*
X4420182Y-16015888D02*
X4410658Y-16034936D01*
X4410658Y-16034936D02*
X4401134Y-16044460D01*
X4401134Y-16044460D02*
X4382086Y-16053984D01*
X4382086Y-16053984D02*
X4363039Y-16053984D01*
X4363039Y-16053984D02*
X4343991Y-16044460D01*
X4343991Y-16044460D02*
X4334467Y-16034936D01*
X4334467Y-16034936D02*
X4324944Y-16015888D01*
X4324944Y-16015888D02*
X4315420Y-15977793D01*
X4315420Y-15977793D02*
X4315420Y-15930174D01*
X4315420Y-15930174D02*
X4324944Y-15892079D01*
X4324944Y-15892079D02*
X4334467Y-15873031D01*
X4334467Y-15873031D02*
X4343991Y-15863508D01*
X4343991Y-15863508D02*
X4363039Y-15853984D01*
X4515420Y-16053984D02*
X4515420Y-15920650D01*
X4515420Y-15939698D02*
X4524944Y-15930174D01*
X4524944Y-15930174D02*
X4543991Y-15920650D01*
X4543991Y-15920650D02*
X4572563Y-15920650D01*
X4572563Y-15920650D02*
X4591610Y-15930174D01*
X4591610Y-15930174D02*
X4601134Y-15949222D01*
X4601134Y-15949222D02*
X4601134Y-16053984D01*
X4601134Y-15949222D02*
X4610658Y-15930174D01*
X4610658Y-15930174D02*
X4629705Y-15920650D01*
X4629705Y-15920650D02*
X4658277Y-15920650D01*
X4658277Y-15920650D02*
X4677325Y-15930174D01*
X4677325Y-15930174D02*
X4686848Y-15949222D01*
X4686848Y-15949222D02*
X4686848Y-16053984D01*
X4782086Y-16053984D02*
X4782086Y-15920650D01*
X4782086Y-15939698D02*
X4791610Y-15930174D01*
X4791610Y-15930174D02*
X4810658Y-15920650D01*
X4810658Y-15920650D02*
X4839229Y-15920650D01*
X4839229Y-15920650D02*
X4858277Y-15930174D01*
X4858277Y-15930174D02*
X4867801Y-15949222D01*
X4867801Y-15949222D02*
X4867801Y-16053984D01*
X4867801Y-15949222D02*
X4877325Y-15930174D01*
X4877325Y-15930174D02*
X4896372Y-15920650D01*
X4896372Y-15920650D02*
X4924944Y-15920650D01*
X4924944Y-15920650D02*
X4943991Y-15930174D01*
X4943991Y-15930174D02*
X4953515Y-15949222D01*
X4953515Y-15949222D02*
X4953515Y-16053984D01*
X5343991Y-15844460D02*
X5172563Y-16101603D01*
X5601134Y-15853984D02*
X5620182Y-15853984D01*
X5620182Y-15853984D02*
X5639229Y-15863508D01*
X5639229Y-15863508D02*
X5648753Y-15873031D01*
X5648753Y-15873031D02*
X5658277Y-15892079D01*
X5658277Y-15892079D02*
X5667801Y-15930174D01*
X5667801Y-15930174D02*
X5667801Y-15977793D01*
X5667801Y-15977793D02*
X5658277Y-16015888D01*
X5658277Y-16015888D02*
X5648753Y-16034936D01*
X5648753Y-16034936D02*
X5639229Y-16044460D01*
X5639229Y-16044460D02*
X5620182Y-16053984D01*
X5620182Y-16053984D02*
X5601134Y-16053984D01*
X5601134Y-16053984D02*
X5582087Y-16044460D01*
X5582087Y-16044460D02*
X5572563Y-16034936D01*
X5572563Y-16034936D02*
X5563039Y-16015888D01*
X5563039Y-16015888D02*
X5553515Y-15977793D01*
X5553515Y-15977793D02*
X5553515Y-15930174D01*
X5553515Y-15930174D02*
X5563039Y-15892079D01*
X5563039Y-15892079D02*
X5572563Y-15873031D01*
X5572563Y-15873031D02*
X5582087Y-15863508D01*
X5582087Y-15863508D02*
X5601134Y-15853984D01*
X5753515Y-16034936D02*
X5763039Y-16044460D01*
X5763039Y-16044460D02*
X5753515Y-16053984D01*
X5753515Y-16053984D02*
X5743991Y-16044460D01*
X5743991Y-16044460D02*
X5753515Y-16034936D01*
X5753515Y-16034936D02*
X5753515Y-16053984D01*
X5886848Y-15853984D02*
X5905896Y-15853984D01*
X5905896Y-15853984D02*
X5924944Y-15863508D01*
X5924944Y-15863508D02*
X5934467Y-15873031D01*
X5934467Y-15873031D02*
X5943991Y-15892079D01*
X5943991Y-15892079D02*
X5953515Y-15930174D01*
X5953515Y-15930174D02*
X5953515Y-15977793D01*
X5953515Y-15977793D02*
X5943991Y-16015888D01*
X5943991Y-16015888D02*
X5934467Y-16034936D01*
X5934467Y-16034936D02*
X5924944Y-16044460D01*
X5924944Y-16044460D02*
X5905896Y-16053984D01*
X5905896Y-16053984D02*
X5886848Y-16053984D01*
X5886848Y-16053984D02*
X5867801Y-16044460D01*
X5867801Y-16044460D02*
X5858277Y-16034936D01*
X5858277Y-16034936D02*
X5848753Y-16015888D01*
X5848753Y-16015888D02*
X5839229Y-15977793D01*
X5839229Y-15977793D02*
X5839229Y-15930174D01*
X5839229Y-15930174D02*
X5848753Y-15892079D01*
X5848753Y-15892079D02*
X5858277Y-15873031D01*
X5858277Y-15873031D02*
X5867801Y-15863508D01*
X5867801Y-15863508D02*
X5886848Y-15853984D01*
X6124944Y-15920650D02*
X6124944Y-16053984D01*
X6077325Y-15844460D02*
X6029706Y-15987317D01*
X6029706Y-15987317D02*
X6153515Y-15987317D01*
X6210658Y-15853984D02*
X6334467Y-15853984D01*
X6334467Y-15853984D02*
X6267801Y-15930174D01*
X6267801Y-15930174D02*
X6296372Y-15930174D01*
X6296372Y-15930174D02*
X6315420Y-15939698D01*
X6315420Y-15939698D02*
X6324944Y-15949222D01*
X6324944Y-15949222D02*
X6334467Y-15968269D01*
X6334467Y-15968269D02*
X6334467Y-16015888D01*
X6334467Y-16015888D02*
X6324944Y-16034936D01*
X6324944Y-16034936D02*
X6315420Y-16044460D01*
X6315420Y-16044460D02*
X6296372Y-16053984D01*
X6296372Y-16053984D02*
X6239229Y-16053984D01*
X6239229Y-16053984D02*
X6220182Y-16044460D01*
X6220182Y-16044460D02*
X6210658Y-16034936D01*
X6401134Y-15853984D02*
X6524944Y-15853984D01*
X6524944Y-15853984D02*
X6458277Y-15930174D01*
X6458277Y-15930174D02*
X6486848Y-15930174D01*
X6486848Y-15930174D02*
X6505896Y-15939698D01*
X6505896Y-15939698D02*
X6515420Y-15949222D01*
X6515420Y-15949222D02*
X6524944Y-15968269D01*
X6524944Y-15968269D02*
X6524944Y-16015888D01*
X6524944Y-16015888D02*
X6515420Y-16034936D01*
X6515420Y-16034936D02*
X6505896Y-16044460D01*
X6505896Y-16044460D02*
X6486848Y-16053984D01*
X6486848Y-16053984D02*
X6429706Y-16053984D01*
X6429706Y-16053984D02*
X6410658Y-16044460D01*
X6410658Y-16044460D02*
X6401134Y-16034936D01*
X6601134Y-15853984D02*
X6601134Y-15892079D01*
X6677325Y-15853984D02*
X6677325Y-15892079D01*
X6972563Y-16130174D02*
X6963039Y-16120650D01*
X6963039Y-16120650D02*
X6943991Y-16092079D01*
X6943991Y-16092079D02*
X6934468Y-16073031D01*
X6934468Y-16073031D02*
X6924944Y-16044460D01*
X6924944Y-16044460D02*
X6915420Y-15996841D01*
X6915420Y-15996841D02*
X6915420Y-15958746D01*
X6915420Y-15958746D02*
X6924944Y-15911127D01*
X6924944Y-15911127D02*
X6934468Y-15882555D01*
X6934468Y-15882555D02*
X6943991Y-15863508D01*
X6943991Y-15863508D02*
X6963039Y-15834936D01*
X6963039Y-15834936D02*
X6972563Y-15825412D01*
X7153515Y-16053984D02*
X7039229Y-16053984D01*
X7096372Y-16053984D02*
X7096372Y-15853984D01*
X7096372Y-15853984D02*
X7077325Y-15882555D01*
X7077325Y-15882555D02*
X7058277Y-15901603D01*
X7058277Y-15901603D02*
X7039229Y-15911127D01*
X7324944Y-15920650D02*
X7324944Y-16053984D01*
X7277325Y-15844460D02*
X7229706Y-15987317D01*
X7229706Y-15987317D02*
X7353515Y-15987317D01*
X7582087Y-16053984D02*
X7582087Y-15853984D01*
X7667801Y-16053984D02*
X7667801Y-15949222D01*
X7667801Y-15949222D02*
X7658277Y-15930174D01*
X7658277Y-15930174D02*
X7639230Y-15920650D01*
X7639230Y-15920650D02*
X7610658Y-15920650D01*
X7610658Y-15920650D02*
X7591610Y-15930174D01*
X7591610Y-15930174D02*
X7582087Y-15939698D01*
X7791610Y-16053984D02*
X7772563Y-16044460D01*
X7772563Y-16044460D02*
X7763039Y-16034936D01*
X7763039Y-16034936D02*
X7753515Y-16015888D01*
X7753515Y-16015888D02*
X7753515Y-15958746D01*
X7753515Y-15958746D02*
X7763039Y-15939698D01*
X7763039Y-15939698D02*
X7772563Y-15930174D01*
X7772563Y-15930174D02*
X7791610Y-15920650D01*
X7791610Y-15920650D02*
X7820182Y-15920650D01*
X7820182Y-15920650D02*
X7839230Y-15930174D01*
X7839230Y-15930174D02*
X7848753Y-15939698D01*
X7848753Y-15939698D02*
X7858277Y-15958746D01*
X7858277Y-15958746D02*
X7858277Y-16015888D01*
X7858277Y-16015888D02*
X7848753Y-16034936D01*
X7848753Y-16034936D02*
X7839230Y-16044460D01*
X7839230Y-16044460D02*
X7820182Y-16053984D01*
X7820182Y-16053984D02*
X7791610Y-16053984D01*
X7972563Y-16053984D02*
X7953515Y-16044460D01*
X7953515Y-16044460D02*
X7943991Y-16025412D01*
X7943991Y-16025412D02*
X7943991Y-15853984D01*
X8124944Y-16044460D02*
X8105896Y-16053984D01*
X8105896Y-16053984D02*
X8067801Y-16053984D01*
X8067801Y-16053984D02*
X8048753Y-16044460D01*
X8048753Y-16044460D02*
X8039230Y-16025412D01*
X8039230Y-16025412D02*
X8039230Y-15949222D01*
X8039230Y-15949222D02*
X8048753Y-15930174D01*
X8048753Y-15930174D02*
X8067801Y-15920650D01*
X8067801Y-15920650D02*
X8105896Y-15920650D01*
X8105896Y-15920650D02*
X8124944Y-15930174D01*
X8124944Y-15930174D02*
X8134468Y-15949222D01*
X8134468Y-15949222D02*
X8134468Y-15968269D01*
X8134468Y-15968269D02*
X8039230Y-15987317D01*
X8210658Y-16044460D02*
X8229706Y-16053984D01*
X8229706Y-16053984D02*
X8267801Y-16053984D01*
X8267801Y-16053984D02*
X8286849Y-16044460D01*
X8286849Y-16044460D02*
X8296372Y-16025412D01*
X8296372Y-16025412D02*
X8296372Y-16015888D01*
X8296372Y-16015888D02*
X8286849Y-15996841D01*
X8286849Y-15996841D02*
X8267801Y-15987317D01*
X8267801Y-15987317D02*
X8239230Y-15987317D01*
X8239230Y-15987317D02*
X8220182Y-15977793D01*
X8220182Y-15977793D02*
X8210658Y-15958746D01*
X8210658Y-15958746D02*
X8210658Y-15949222D01*
X8210658Y-15949222D02*
X8220182Y-15930174D01*
X8220182Y-15930174D02*
X8239230Y-15920650D01*
X8239230Y-15920650D02*
X8267801Y-15920650D01*
X8267801Y-15920650D02*
X8286849Y-15930174D01*
X8363039Y-16130174D02*
X8372563Y-16120650D01*
X8372563Y-16120650D02*
X8391611Y-16092079D01*
X8391611Y-16092079D02*
X8401134Y-16073031D01*
X8401134Y-16073031D02*
X8410658Y-16044460D01*
X8410658Y-16044460D02*
X8420182Y-15996841D01*
X8420182Y-15996841D02*
X8420182Y-15958746D01*
X8420182Y-15958746D02*
X8410658Y-15911127D01*
X8410658Y-15911127D02*
X8401134Y-15882555D01*
X8401134Y-15882555D02*
X8391611Y-15863508D01*
X8391611Y-15863508D02*
X8372563Y-15834936D01*
X8372563Y-15834936D02*
X8363039Y-15825412D01*
D14*
X3267500Y-16161500D02*
X3397500Y-16291500D01*
X3397500Y-16161500D02*
X3267500Y-16291500D01*
X3332500Y-16161500D02*
X3332500Y-16291500D01*
X3267500Y-16226500D02*
X3397500Y-16226500D01*
D11*
X3763039Y-16317984D02*
X3648753Y-16317984D01*
X3705896Y-16317984D02*
X3705896Y-16117984D01*
X3705896Y-16117984D02*
X3686848Y-16146555D01*
X3686848Y-16146555D02*
X3667801Y-16165603D01*
X3667801Y-16165603D02*
X3648753Y-16175127D01*
X3848753Y-16298936D02*
X3858277Y-16308460D01*
X3858277Y-16308460D02*
X3848753Y-16317984D01*
X3848753Y-16317984D02*
X3839229Y-16308460D01*
X3839229Y-16308460D02*
X3848753Y-16298936D01*
X3848753Y-16298936D02*
X3848753Y-16317984D01*
X3924943Y-16117984D02*
X4048753Y-16117984D01*
X4048753Y-16117984D02*
X3982086Y-16194174D01*
X3982086Y-16194174D02*
X4010658Y-16194174D01*
X4010658Y-16194174D02*
X4029705Y-16203698D01*
X4029705Y-16203698D02*
X4039229Y-16213222D01*
X4039229Y-16213222D02*
X4048753Y-16232269D01*
X4048753Y-16232269D02*
X4048753Y-16279888D01*
X4048753Y-16279888D02*
X4039229Y-16298936D01*
X4039229Y-16298936D02*
X4029705Y-16308460D01*
X4029705Y-16308460D02*
X4010658Y-16317984D01*
X4010658Y-16317984D02*
X3953515Y-16317984D01*
X3953515Y-16317984D02*
X3934467Y-16308460D01*
X3934467Y-16308460D02*
X3924943Y-16298936D01*
X4172562Y-16117984D02*
X4191610Y-16117984D01*
X4191610Y-16117984D02*
X4210658Y-16127508D01*
X4210658Y-16127508D02*
X4220182Y-16137031D01*
X4220182Y-16137031D02*
X4229705Y-16156079D01*
X4229705Y-16156079D02*
X4239229Y-16194174D01*
X4239229Y-16194174D02*
X4239229Y-16241793D01*
X4239229Y-16241793D02*
X4229705Y-16279888D01*
X4229705Y-16279888D02*
X4220182Y-16298936D01*
X4220182Y-16298936D02*
X4210658Y-16308460D01*
X4210658Y-16308460D02*
X4191610Y-16317984D01*
X4191610Y-16317984D02*
X4172562Y-16317984D01*
X4172562Y-16317984D02*
X4153515Y-16308460D01*
X4153515Y-16308460D02*
X4143991Y-16298936D01*
X4143991Y-16298936D02*
X4134467Y-16279888D01*
X4134467Y-16279888D02*
X4124943Y-16241793D01*
X4124943Y-16241793D02*
X4124943Y-16194174D01*
X4124943Y-16194174D02*
X4134467Y-16156079D01*
X4134467Y-16156079D02*
X4143991Y-16137031D01*
X4143991Y-16137031D02*
X4153515Y-16127508D01*
X4153515Y-16127508D02*
X4172562Y-16117984D01*
X4363039Y-16117984D02*
X4382086Y-16117984D01*
X4382086Y-16117984D02*
X4401134Y-16127508D01*
X4401134Y-16127508D02*
X4410658Y-16137031D01*
X4410658Y-16137031D02*
X4420182Y-16156079D01*
X4420182Y-16156079D02*
X4429705Y-16194174D01*
X4429705Y-16194174D02*
X4429705Y-16241793D01*
X4429705Y-16241793D02*
X4420182Y-16279888D01*
X4420182Y-16279888D02*
X4410658Y-16298936D01*
X4410658Y-16298936D02*
X4401134Y-16308460D01*
X4401134Y-16308460D02*
X4382086Y-16317984D01*
X4382086Y-16317984D02*
X4363039Y-16317984D01*
X4363039Y-16317984D02*
X4343991Y-16308460D01*
X4343991Y-16308460D02*
X4334467Y-16298936D01*
X4334467Y-16298936D02*
X4324944Y-16279888D01*
X4324944Y-16279888D02*
X4315420Y-16241793D01*
X4315420Y-16241793D02*
X4315420Y-16194174D01*
X4315420Y-16194174D02*
X4324944Y-16156079D01*
X4324944Y-16156079D02*
X4334467Y-16137031D01*
X4334467Y-16137031D02*
X4343991Y-16127508D01*
X4343991Y-16127508D02*
X4363039Y-16117984D01*
X4515420Y-16317984D02*
X4515420Y-16184650D01*
X4515420Y-16203698D02*
X4524944Y-16194174D01*
X4524944Y-16194174D02*
X4543991Y-16184650D01*
X4543991Y-16184650D02*
X4572563Y-16184650D01*
X4572563Y-16184650D02*
X4591610Y-16194174D01*
X4591610Y-16194174D02*
X4601134Y-16213222D01*
X4601134Y-16213222D02*
X4601134Y-16317984D01*
X4601134Y-16213222D02*
X4610658Y-16194174D01*
X4610658Y-16194174D02*
X4629705Y-16184650D01*
X4629705Y-16184650D02*
X4658277Y-16184650D01*
X4658277Y-16184650D02*
X4677325Y-16194174D01*
X4677325Y-16194174D02*
X4686848Y-16213222D01*
X4686848Y-16213222D02*
X4686848Y-16317984D01*
X4782086Y-16317984D02*
X4782086Y-16184650D01*
X4782086Y-16203698D02*
X4791610Y-16194174D01*
X4791610Y-16194174D02*
X4810658Y-16184650D01*
X4810658Y-16184650D02*
X4839229Y-16184650D01*
X4839229Y-16184650D02*
X4858277Y-16194174D01*
X4858277Y-16194174D02*
X4867801Y-16213222D01*
X4867801Y-16213222D02*
X4867801Y-16317984D01*
X4867801Y-16213222D02*
X4877325Y-16194174D01*
X4877325Y-16194174D02*
X4896372Y-16184650D01*
X4896372Y-16184650D02*
X4924944Y-16184650D01*
X4924944Y-16184650D02*
X4943991Y-16194174D01*
X4943991Y-16194174D02*
X4953515Y-16213222D01*
X4953515Y-16213222D02*
X4953515Y-16317984D01*
X5343991Y-16108460D02*
X5172563Y-16365603D01*
X5601134Y-16117984D02*
X5620182Y-16117984D01*
X5620182Y-16117984D02*
X5639229Y-16127508D01*
X5639229Y-16127508D02*
X5648753Y-16137031D01*
X5648753Y-16137031D02*
X5658277Y-16156079D01*
X5658277Y-16156079D02*
X5667801Y-16194174D01*
X5667801Y-16194174D02*
X5667801Y-16241793D01*
X5667801Y-16241793D02*
X5658277Y-16279888D01*
X5658277Y-16279888D02*
X5648753Y-16298936D01*
X5648753Y-16298936D02*
X5639229Y-16308460D01*
X5639229Y-16308460D02*
X5620182Y-16317984D01*
X5620182Y-16317984D02*
X5601134Y-16317984D01*
X5601134Y-16317984D02*
X5582087Y-16308460D01*
X5582087Y-16308460D02*
X5572563Y-16298936D01*
X5572563Y-16298936D02*
X5563039Y-16279888D01*
X5563039Y-16279888D02*
X5553515Y-16241793D01*
X5553515Y-16241793D02*
X5553515Y-16194174D01*
X5553515Y-16194174D02*
X5563039Y-16156079D01*
X5563039Y-16156079D02*
X5572563Y-16137031D01*
X5572563Y-16137031D02*
X5582087Y-16127508D01*
X5582087Y-16127508D02*
X5601134Y-16117984D01*
X5753515Y-16298936D02*
X5763039Y-16308460D01*
X5763039Y-16308460D02*
X5753515Y-16317984D01*
X5753515Y-16317984D02*
X5743991Y-16308460D01*
X5743991Y-16308460D02*
X5753515Y-16298936D01*
X5753515Y-16298936D02*
X5753515Y-16317984D01*
X5886848Y-16117984D02*
X5905896Y-16117984D01*
X5905896Y-16117984D02*
X5924944Y-16127508D01*
X5924944Y-16127508D02*
X5934467Y-16137031D01*
X5934467Y-16137031D02*
X5943991Y-16156079D01*
X5943991Y-16156079D02*
X5953515Y-16194174D01*
X5953515Y-16194174D02*
X5953515Y-16241793D01*
X5953515Y-16241793D02*
X5943991Y-16279888D01*
X5943991Y-16279888D02*
X5934467Y-16298936D01*
X5934467Y-16298936D02*
X5924944Y-16308460D01*
X5924944Y-16308460D02*
X5905896Y-16317984D01*
X5905896Y-16317984D02*
X5886848Y-16317984D01*
X5886848Y-16317984D02*
X5867801Y-16308460D01*
X5867801Y-16308460D02*
X5858277Y-16298936D01*
X5858277Y-16298936D02*
X5848753Y-16279888D01*
X5848753Y-16279888D02*
X5839229Y-16241793D01*
X5839229Y-16241793D02*
X5839229Y-16194174D01*
X5839229Y-16194174D02*
X5848753Y-16156079D01*
X5848753Y-16156079D02*
X5858277Y-16137031D01*
X5858277Y-16137031D02*
X5867801Y-16127508D01*
X5867801Y-16127508D02*
X5886848Y-16117984D01*
X6134467Y-16117984D02*
X6039229Y-16117984D01*
X6039229Y-16117984D02*
X6029706Y-16213222D01*
X6029706Y-16213222D02*
X6039229Y-16203698D01*
X6039229Y-16203698D02*
X6058277Y-16194174D01*
X6058277Y-16194174D02*
X6105896Y-16194174D01*
X6105896Y-16194174D02*
X6124944Y-16203698D01*
X6124944Y-16203698D02*
X6134467Y-16213222D01*
X6134467Y-16213222D02*
X6143991Y-16232269D01*
X6143991Y-16232269D02*
X6143991Y-16279888D01*
X6143991Y-16279888D02*
X6134467Y-16298936D01*
X6134467Y-16298936D02*
X6124944Y-16308460D01*
X6124944Y-16308460D02*
X6105896Y-16317984D01*
X6105896Y-16317984D02*
X6058277Y-16317984D01*
X6058277Y-16317984D02*
X6039229Y-16308460D01*
X6039229Y-16308460D02*
X6029706Y-16298936D01*
X6334467Y-16317984D02*
X6220182Y-16317984D01*
X6277325Y-16317984D02*
X6277325Y-16117984D01*
X6277325Y-16117984D02*
X6258277Y-16146555D01*
X6258277Y-16146555D02*
X6239229Y-16165603D01*
X6239229Y-16165603D02*
X6220182Y-16175127D01*
X6410658Y-16137031D02*
X6420182Y-16127508D01*
X6420182Y-16127508D02*
X6439229Y-16117984D01*
X6439229Y-16117984D02*
X6486848Y-16117984D01*
X6486848Y-16117984D02*
X6505896Y-16127508D01*
X6505896Y-16127508D02*
X6515420Y-16137031D01*
X6515420Y-16137031D02*
X6524944Y-16156079D01*
X6524944Y-16156079D02*
X6524944Y-16175127D01*
X6524944Y-16175127D02*
X6515420Y-16203698D01*
X6515420Y-16203698D02*
X6401134Y-16317984D01*
X6401134Y-16317984D02*
X6524944Y-16317984D01*
X6601134Y-16117984D02*
X6601134Y-16156079D01*
X6677325Y-16117984D02*
X6677325Y-16156079D01*
X6972563Y-16394174D02*
X6963039Y-16384650D01*
X6963039Y-16384650D02*
X6943991Y-16356079D01*
X6943991Y-16356079D02*
X6934468Y-16337031D01*
X6934468Y-16337031D02*
X6924944Y-16308460D01*
X6924944Y-16308460D02*
X6915420Y-16260841D01*
X6915420Y-16260841D02*
X6915420Y-16222746D01*
X6915420Y-16222746D02*
X6924944Y-16175127D01*
X6924944Y-16175127D02*
X6934468Y-16146555D01*
X6934468Y-16146555D02*
X6943991Y-16127508D01*
X6943991Y-16127508D02*
X6963039Y-16098936D01*
X6963039Y-16098936D02*
X6972563Y-16089412D01*
X7039229Y-16137031D02*
X7048753Y-16127508D01*
X7048753Y-16127508D02*
X7067801Y-16117984D01*
X7067801Y-16117984D02*
X7115420Y-16117984D01*
X7115420Y-16117984D02*
X7134468Y-16127508D01*
X7134468Y-16127508D02*
X7143991Y-16137031D01*
X7143991Y-16137031D02*
X7153515Y-16156079D01*
X7153515Y-16156079D02*
X7153515Y-16175127D01*
X7153515Y-16175127D02*
X7143991Y-16203698D01*
X7143991Y-16203698D02*
X7029706Y-16317984D01*
X7029706Y-16317984D02*
X7153515Y-16317984D01*
X7391610Y-16317984D02*
X7391610Y-16117984D01*
X7477325Y-16317984D02*
X7477325Y-16213222D01*
X7477325Y-16213222D02*
X7467801Y-16194174D01*
X7467801Y-16194174D02*
X7448753Y-16184650D01*
X7448753Y-16184650D02*
X7420182Y-16184650D01*
X7420182Y-16184650D02*
X7401134Y-16194174D01*
X7401134Y-16194174D02*
X7391610Y-16203698D01*
X7601134Y-16317984D02*
X7582087Y-16308460D01*
X7582087Y-16308460D02*
X7572563Y-16298936D01*
X7572563Y-16298936D02*
X7563039Y-16279888D01*
X7563039Y-16279888D02*
X7563039Y-16222746D01*
X7563039Y-16222746D02*
X7572563Y-16203698D01*
X7572563Y-16203698D02*
X7582087Y-16194174D01*
X7582087Y-16194174D02*
X7601134Y-16184650D01*
X7601134Y-16184650D02*
X7629706Y-16184650D01*
X7629706Y-16184650D02*
X7648753Y-16194174D01*
X7648753Y-16194174D02*
X7658277Y-16203698D01*
X7658277Y-16203698D02*
X7667801Y-16222746D01*
X7667801Y-16222746D02*
X7667801Y-16279888D01*
X7667801Y-16279888D02*
X7658277Y-16298936D01*
X7658277Y-16298936D02*
X7648753Y-16308460D01*
X7648753Y-16308460D02*
X7629706Y-16317984D01*
X7629706Y-16317984D02*
X7601134Y-16317984D01*
X7782087Y-16317984D02*
X7763039Y-16308460D01*
X7763039Y-16308460D02*
X7753515Y-16289412D01*
X7753515Y-16289412D02*
X7753515Y-16117984D01*
X7934468Y-16308460D02*
X7915420Y-16317984D01*
X7915420Y-16317984D02*
X7877325Y-16317984D01*
X7877325Y-16317984D02*
X7858277Y-16308460D01*
X7858277Y-16308460D02*
X7848753Y-16289412D01*
X7848753Y-16289412D02*
X7848753Y-16213222D01*
X7848753Y-16213222D02*
X7858277Y-16194174D01*
X7858277Y-16194174D02*
X7877325Y-16184650D01*
X7877325Y-16184650D02*
X7915420Y-16184650D01*
X7915420Y-16184650D02*
X7934468Y-16194174D01*
X7934468Y-16194174D02*
X7943991Y-16213222D01*
X7943991Y-16213222D02*
X7943991Y-16232269D01*
X7943991Y-16232269D02*
X7848753Y-16251317D01*
X8020182Y-16308460D02*
X8039230Y-16317984D01*
X8039230Y-16317984D02*
X8077325Y-16317984D01*
X8077325Y-16317984D02*
X8096372Y-16308460D01*
X8096372Y-16308460D02*
X8105896Y-16289412D01*
X8105896Y-16289412D02*
X8105896Y-16279888D01*
X8105896Y-16279888D02*
X8096372Y-16260841D01*
X8096372Y-16260841D02*
X8077325Y-16251317D01*
X8077325Y-16251317D02*
X8048753Y-16251317D01*
X8048753Y-16251317D02*
X8029706Y-16241793D01*
X8029706Y-16241793D02*
X8020182Y-16222746D01*
X8020182Y-16222746D02*
X8020182Y-16213222D01*
X8020182Y-16213222D02*
X8029706Y-16194174D01*
X8029706Y-16194174D02*
X8048753Y-16184650D01*
X8048753Y-16184650D02*
X8077325Y-16184650D01*
X8077325Y-16184650D02*
X8096372Y-16194174D01*
X8172563Y-16394174D02*
X8182087Y-16384650D01*
X8182087Y-16384650D02*
X8201134Y-16356079D01*
X8201134Y-16356079D02*
X8210658Y-16337031D01*
X8210658Y-16337031D02*
X8220182Y-16308460D01*
X8220182Y-16308460D02*
X8229706Y-16260841D01*
X8229706Y-16260841D02*
X8229706Y-16222746D01*
X8229706Y-16222746D02*
X8220182Y-16175127D01*
X8220182Y-16175127D02*
X8210658Y-16146555D01*
X8210658Y-16146555D02*
X8201134Y-16127508D01*
X8201134Y-16127508D02*
X8182087Y-16098936D01*
X8182087Y-16098936D02*
X8172563Y-16089412D01*
M02*
