%TF.GenerationSoftware,KiCad,Pcbnew,8.0.1-8.0.1-0~ubuntu23.10.1*%
%TF.CreationDate,2024-04-25T23:44:33+01:00*%
%TF.ProjectId,g5500-pidrive,67353530-302d-4706-9964-726976652e6b,rev?*%
%TF.SameCoordinates,Original*%
%TF.FileFunction,Soldermask,Top*%
%TF.FilePolarity,Negative*%
%FSLAX46Y46*%
G04 Gerber Fmt 4.6, Leading zero omitted, Abs format (unit mm)*
G04 Created by KiCad (PCBNEW 8.0.1-8.0.1-0~ubuntu23.10.1) date 2024-04-25 23:44:33*
%MOMM*%
%LPD*%
G01*
G04 APERTURE LIST*
G04 Aperture macros list*
%AMRoundRect*
0 Rectangle with rounded corners*
0 $1 Rounding radius*
0 $2 $3 $4 $5 $6 $7 $8 $9 X,Y pos of 4 corners*
0 Add a 4 corners polygon primitive as box body*
4,1,4,$2,$3,$4,$5,$6,$7,$8,$9,$2,$3,0*
0 Add four circle primitives for the rounded corners*
1,1,$1+$1,$2,$3*
1,1,$1+$1,$4,$5*
1,1,$1+$1,$6,$7*
1,1,$1+$1,$8,$9*
0 Add four rect primitives between the rounded corners*
20,1,$1+$1,$2,$3,$4,$5,0*
20,1,$1+$1,$4,$5,$6,$7,0*
20,1,$1+$1,$6,$7,$8,$9,0*
20,1,$1+$1,$8,$9,$2,$3,0*%
G04 Aperture macros list end*
%ADD10RoundRect,0.237500X0.237500X-0.250000X0.237500X0.250000X-0.237500X0.250000X-0.237500X-0.250000X0*%
%ADD11RoundRect,0.237500X-0.250000X-0.237500X0.250000X-0.237500X0.250000X0.237500X-0.250000X0.237500X0*%
%ADD12RoundRect,0.237500X-0.237500X0.250000X-0.237500X-0.250000X0.237500X-0.250000X0.237500X0.250000X0*%
%ADD13RoundRect,0.237500X0.250000X0.237500X-0.250000X0.237500X-0.250000X-0.237500X0.250000X-0.237500X0*%
%ADD14RoundRect,0.250000X0.475000X-0.337500X0.475000X0.337500X-0.475000X0.337500X-0.475000X-0.337500X0*%
%ADD15RoundRect,0.250000X-0.412500X-0.650000X0.412500X-0.650000X0.412500X0.650000X-0.412500X0.650000X0*%
%ADD16RoundRect,0.237500X0.237500X-0.300000X0.237500X0.300000X-0.237500X0.300000X-0.237500X-0.300000X0*%
%ADD17R,0.600000X1.550000*%
%ADD18RoundRect,0.001000X-1.550000X1.200000X-1.550000X-1.200000X1.550000X-1.200000X1.550000X1.200000X0*%
%ADD19RoundRect,0.150000X-0.150000X0.825000X-0.150000X-0.825000X0.150000X-0.825000X0.150000X0.825000X0*%
%ADD20R,2.100000X2.100000*%
%ADD21C,2.100000*%
%ADD22C,1.600000*%
%ADD23O,1.600000X1.600000*%
%ADD24RoundRect,0.237500X0.300000X0.237500X-0.300000X0.237500X-0.300000X-0.237500X0.300000X-0.237500X0*%
%ADD25RoundRect,0.250000X-0.275000X-0.350000X0.275000X-0.350000X0.275000X0.350000X-0.275000X0.350000X0*%
%ADD26RoundRect,0.237500X-0.237500X0.300000X-0.237500X-0.300000X0.237500X-0.300000X0.237500X0.300000X0*%
%ADD27C,2.700000*%
%ADD28R,1.700000X1.700000*%
%ADD29O,1.700000X1.700000*%
%ADD30RoundRect,0.250000X0.275000X0.350000X-0.275000X0.350000X-0.275000X-0.350000X0.275000X-0.350000X0*%
%ADD31R,2.000000X1.500000*%
%ADD32O,2.000000X1.500000*%
%ADD33RoundRect,0.237500X-0.300000X-0.237500X0.300000X-0.237500X0.300000X0.237500X-0.300000X0.237500X0*%
%ADD34RoundRect,0.150000X0.512500X0.150000X-0.512500X0.150000X-0.512500X-0.150000X0.512500X-0.150000X0*%
%ADD35R,0.950000X0.400000*%
%ADD36R,2.500000X2.500000*%
%ADD37C,2.500000*%
%ADD38RoundRect,0.150000X-0.512500X-0.150000X0.512500X-0.150000X0.512500X0.150000X-0.512500X0.150000X0*%
%ADD39R,0.600000X2.000000*%
G04 APERTURE END LIST*
D10*
%TO.C,R35*%
X71600000Y-88425000D03*
X71600000Y-86600000D03*
%TD*%
D11*
%TO.C,R34*%
X63800000Y-88600000D03*
X65625000Y-88600000D03*
%TD*%
D12*
%TO.C,R33*%
X71600000Y-81200000D03*
X71600000Y-83025000D03*
%TD*%
D13*
%TO.C,R32*%
X67425000Y-79600000D03*
X65600000Y-79600000D03*
%TD*%
D11*
%TO.C,R31*%
X60775000Y-79600000D03*
X62600000Y-79600000D03*
%TD*%
D10*
%TO.C,R30*%
X93000000Y-77000000D03*
X93000000Y-78825000D03*
%TD*%
D12*
%TO.C,R29*%
X95000000Y-77000000D03*
X95000000Y-78825000D03*
%TD*%
%TO.C,R28*%
X105800000Y-80975000D03*
X105800000Y-82800000D03*
%TD*%
D14*
%TO.C,C23*%
X78000000Y-111185000D03*
X78000000Y-109110000D03*
%TD*%
%TO.C,C22*%
X86870000Y-111085000D03*
X86870000Y-109010000D03*
%TD*%
%TO.C,C21*%
X103000000Y-110837500D03*
X103000000Y-108762500D03*
%TD*%
%TO.C,C20*%
X111800000Y-111110000D03*
X111800000Y-109035000D03*
%TD*%
D15*
%TO.C,C1*%
X62700000Y-123000000D03*
X65825000Y-123000000D03*
%TD*%
D12*
%TO.C,R2*%
X41000000Y-118775000D03*
X41000000Y-120600000D03*
%TD*%
D16*
%TO.C,C31*%
X105400000Y-88200000D03*
X105400000Y-86475000D03*
%TD*%
D17*
%TO.C,IC5*%
X92540000Y-105435000D03*
X91270000Y-105435000D03*
X90000000Y-105435000D03*
X88730000Y-105435000D03*
X88730000Y-110835000D03*
X90000000Y-110835000D03*
X91270000Y-110835000D03*
X92540000Y-110835000D03*
D18*
X90635000Y-108135000D03*
%TD*%
D19*
%TO.C,U4*%
X69670000Y-51250000D03*
X68400000Y-51250000D03*
X67130000Y-51250000D03*
X65860000Y-51250000D03*
X65860000Y-56200000D03*
X67130000Y-56200000D03*
X68400000Y-56200000D03*
X69670000Y-56200000D03*
%TD*%
D20*
%TO.C,J10*%
X116800000Y-86800000D03*
D21*
X116800000Y-84260000D03*
%TD*%
D22*
%TO.C,L1*%
X120200000Y-125075000D03*
D23*
X120200000Y-135235000D03*
%TD*%
D11*
%TO.C,R3*%
X43575000Y-117175000D03*
X45400000Y-117175000D03*
%TD*%
D10*
%TO.C,R12*%
X116415000Y-103060000D03*
X116415000Y-101235000D03*
%TD*%
D22*
%TO.C,C27*%
X79570000Y-117435000D03*
X83070000Y-117435000D03*
%TD*%
%TO.C,L3*%
X94670000Y-124955000D03*
D23*
X94670000Y-135115000D03*
%TD*%
D20*
%TO.C,J8*%
X113800000Y-132435000D03*
D21*
X111260000Y-132435000D03*
X108720000Y-132435000D03*
%TD*%
D24*
%TO.C,C15*%
X59400000Y-46400000D03*
X57675000Y-46400000D03*
%TD*%
D10*
%TO.C,R17*%
X80870000Y-103035000D03*
X80870000Y-101210000D03*
%TD*%
D25*
%TO.C,FB5*%
X98950000Y-39000000D03*
X96650000Y-39000000D03*
%TD*%
D26*
%TO.C,C19*%
X71400000Y-36675000D03*
X71400000Y-38400000D03*
%TD*%
D11*
%TO.C,R24*%
X53575000Y-123200000D03*
X55400000Y-123200000D03*
%TD*%
D12*
%TO.C,R7*%
X64800000Y-44575000D03*
X64800000Y-46400000D03*
%TD*%
D16*
%TO.C,C13*%
X54800000Y-111400000D03*
X54800000Y-109675000D03*
%TD*%
D22*
%TO.C,C24*%
X113745000Y-117035000D03*
X117245000Y-117035000D03*
%TD*%
D16*
%TO.C,C10*%
X53000000Y-111400000D03*
X53000000Y-109675000D03*
%TD*%
D20*
%TO.C,J9*%
X88270000Y-132435000D03*
D21*
X85730000Y-132435000D03*
X83190000Y-132435000D03*
%TD*%
D22*
%TO.C,L2*%
X102400000Y-135235000D03*
D23*
X102400000Y-125075000D03*
%TD*%
D27*
%TO.C,H4*%
X37200000Y-38800000D03*
%TD*%
D10*
%TO.C,R19*%
X79070000Y-103035000D03*
X79070000Y-101210000D03*
%TD*%
D20*
%TO.C,J6*%
X64700000Y-39357500D03*
D21*
X62160000Y-39357500D03*
X59620000Y-39357500D03*
%TD*%
D28*
%TO.C,J4*%
X105200000Y-38920000D03*
D29*
X105200000Y-41460000D03*
X105200000Y-44000000D03*
X105200000Y-46540000D03*
%TD*%
D30*
%TO.C,FB2*%
X85400000Y-54000000D03*
X83100000Y-54000000D03*
%TD*%
D28*
%TO.C,J3*%
X102400000Y-73512500D03*
D29*
X102400000Y-70972500D03*
X102400000Y-68432500D03*
X102400000Y-65892500D03*
X102400000Y-63352500D03*
X102400000Y-60812500D03*
X102400000Y-58272500D03*
X102400000Y-55732500D03*
%TD*%
D12*
%TO.C,R6*%
X76937500Y-44625000D03*
X76937500Y-46450000D03*
%TD*%
D26*
%TO.C,C5*%
X96860000Y-69280000D03*
X96860000Y-71005000D03*
%TD*%
D16*
%TO.C,C32*%
X83000000Y-88000000D03*
X83000000Y-86275000D03*
%TD*%
D26*
%TO.C,C8*%
X54800000Y-103075000D03*
X54800000Y-104800000D03*
%TD*%
D22*
%TO.C,C26*%
X88370000Y-117435000D03*
X91870000Y-117435000D03*
%TD*%
D17*
%TO.C,U5*%
X103610000Y-82900000D03*
X102340000Y-82900000D03*
X101070000Y-82900000D03*
X99800000Y-82900000D03*
X98530000Y-82900000D03*
X97260000Y-82900000D03*
X95990000Y-82900000D03*
X95990000Y-88300000D03*
X97260000Y-88300000D03*
X98530000Y-88300000D03*
X99800000Y-88300000D03*
X101070000Y-88300000D03*
X102340000Y-88300000D03*
X103610000Y-88300000D03*
%TD*%
D31*
%TO.C,U3*%
X70000000Y-118000000D03*
D32*
X70000000Y-100220000D03*
X59840000Y-100220000D03*
X59840000Y-102760000D03*
X59840000Y-118000000D03*
%TD*%
D22*
%TO.C,C25*%
X104700000Y-117035000D03*
X108200000Y-117035000D03*
%TD*%
D17*
%TO.C,IC3*%
X117470000Y-105435000D03*
X116200000Y-105435000D03*
X114930000Y-105435000D03*
X113660000Y-105435000D03*
X113660000Y-110835000D03*
X114930000Y-110835000D03*
X116200000Y-110835000D03*
X117470000Y-110835000D03*
D18*
X115565000Y-108135000D03*
%TD*%
D11*
%TO.C,R10*%
X72612500Y-44650000D03*
X74437500Y-44650000D03*
%TD*%
D10*
%TO.C,R18*%
X82670000Y-103035000D03*
X82670000Y-101210000D03*
%TD*%
%TO.C,R16*%
X91470000Y-103035000D03*
X91470000Y-101210000D03*
%TD*%
D33*
%TO.C,C9*%
X99300000Y-51000000D03*
X101025000Y-51000000D03*
%TD*%
%TO.C,C12*%
X43675000Y-115575000D03*
X45400000Y-115575000D03*
%TD*%
D34*
%TO.C,U1*%
X78768750Y-55356250D03*
X78768750Y-54406250D03*
X78768750Y-53456250D03*
X76493750Y-53456250D03*
X76493750Y-55356250D03*
%TD*%
D10*
%TO.C,R20*%
X76670000Y-103060000D03*
X76670000Y-101235000D03*
%TD*%
D33*
%TO.C,C6*%
X61537500Y-95925000D03*
X63262500Y-95925000D03*
%TD*%
D11*
%TO.C,R23*%
X51800000Y-117175000D03*
X53625000Y-117175000D03*
%TD*%
D22*
%TO.C,L6*%
X105200000Y-135235000D03*
D23*
X105200000Y-125075000D03*
%TD*%
D24*
%TO.C,C29*%
X50000000Y-115575000D03*
X48275000Y-115575000D03*
%TD*%
%TO.C,C16*%
X74400000Y-46400000D03*
X72675000Y-46400000D03*
%TD*%
D26*
%TO.C,C3*%
X90110000Y-68730000D03*
X90110000Y-70455000D03*
%TD*%
D22*
%TO.C,L8*%
X79670000Y-135115000D03*
D23*
X79670000Y-124955000D03*
%TD*%
D16*
%TO.C,C4*%
X74293750Y-55656250D03*
X74293750Y-53931250D03*
%TD*%
D25*
%TO.C,FB3*%
X86000000Y-68600000D03*
X88300000Y-68600000D03*
%TD*%
D17*
%TO.C,IC6*%
X83670000Y-105435000D03*
X82400000Y-105435000D03*
X81130000Y-105435000D03*
X79860000Y-105435000D03*
X79860000Y-110835000D03*
X81130000Y-110835000D03*
X82400000Y-110835000D03*
X83670000Y-110835000D03*
D18*
X81765000Y-108135000D03*
%TD*%
D17*
%TO.C,U6*%
X81210000Y-82700000D03*
X79940000Y-82700000D03*
X78670000Y-82700000D03*
X77400000Y-82700000D03*
X76130000Y-82700000D03*
X74860000Y-82700000D03*
X73590000Y-82700000D03*
X73590000Y-88100000D03*
X74860000Y-88100000D03*
X76130000Y-88100000D03*
X77400000Y-88100000D03*
X78670000Y-88100000D03*
X79940000Y-88100000D03*
X81210000Y-88100000D03*
%TD*%
D10*
%TO.C,R11*%
X114615000Y-103060000D03*
X114615000Y-101235000D03*
%TD*%
D12*
%TO.C,R4*%
X45400000Y-118775000D03*
X45400000Y-120600000D03*
%TD*%
D13*
%TO.C,R25*%
X99312500Y-46400000D03*
X97487500Y-46400000D03*
%TD*%
D35*
%TO.C,IC2*%
X100100000Y-48150000D03*
X100100000Y-48800000D03*
X100100000Y-49450000D03*
X102300000Y-49450000D03*
X102300000Y-48800000D03*
X102300000Y-48150000D03*
%TD*%
D11*
%TO.C,R1*%
X39175000Y-117175000D03*
X41000000Y-117175000D03*
%TD*%
D36*
%TO.C,J1*%
X66800000Y-130200000D03*
D37*
X61720000Y-130200000D03*
%TD*%
D38*
%TO.C,U2*%
X92460000Y-69230000D03*
X92460000Y-70180000D03*
X92460000Y-71130000D03*
X94735000Y-71130000D03*
X94735000Y-69230000D03*
%TD*%
D10*
%TO.C,R15*%
X89670000Y-103035000D03*
X89670000Y-101210000D03*
%TD*%
D30*
%TO.C,FB1*%
X85400000Y-56162500D03*
X83100000Y-56162500D03*
%TD*%
D27*
%TO.C,H1*%
X86200000Y-96800000D03*
%TD*%
D11*
%TO.C,R8*%
X57625000Y-44600000D03*
X59450000Y-44600000D03*
%TD*%
D26*
%TO.C,C18*%
X56400000Y-36675000D03*
X56400000Y-38400000D03*
%TD*%
D10*
%TO.C,R14*%
X107615000Y-103060000D03*
X107615000Y-101235000D03*
%TD*%
D13*
%TO.C,R26*%
X99112500Y-43400000D03*
X97287500Y-43400000D03*
%TD*%
D27*
%TO.C,H3*%
X86200000Y-38800000D03*
%TD*%
D12*
%TO.C,R9*%
X80035000Y-44587500D03*
X80035000Y-46412500D03*
%TD*%
D10*
%TO.C,R13*%
X105815000Y-103060000D03*
X105815000Y-101235000D03*
%TD*%
D11*
%TO.C,R22*%
X53600000Y-120175000D03*
X55425000Y-120175000D03*
%TD*%
D16*
%TO.C,C28*%
X71400000Y-55800000D03*
X71400000Y-54075000D03*
%TD*%
D12*
%TO.C,R27*%
X107400000Y-88175000D03*
X107400000Y-90000000D03*
%TD*%
D17*
%TO.C,IC4*%
X108670000Y-105435000D03*
X107400000Y-105435000D03*
X106130000Y-105435000D03*
X104860000Y-105435000D03*
X104860000Y-110835000D03*
X106130000Y-110835000D03*
X107400000Y-110835000D03*
X108670000Y-110835000D03*
D18*
X106765000Y-108135000D03*
%TD*%
D27*
%TO.C,H2*%
X37200000Y-96800000D03*
%TD*%
D39*
%TO.C,IC1*%
X41920000Y-112000000D03*
X43190000Y-112000000D03*
X44460000Y-112000000D03*
X45730000Y-112000000D03*
X47000000Y-112000000D03*
X48270000Y-112000000D03*
X49540000Y-112000000D03*
X50810000Y-112000000D03*
X50810000Y-102700000D03*
X49540000Y-102700000D03*
X48270000Y-102700000D03*
X47000000Y-102700000D03*
X45730000Y-102700000D03*
X44460000Y-102700000D03*
X43190000Y-102700000D03*
X41920000Y-102700000D03*
%TD*%
D12*
%TO.C,R5*%
X61800000Y-44575000D03*
X61800000Y-46400000D03*
%TD*%
D26*
%TO.C,C14*%
X39800000Y-109675000D03*
X39800000Y-111400000D03*
%TD*%
D33*
%TO.C,C30*%
X51800000Y-115575000D03*
X53525000Y-115575000D03*
%TD*%
D22*
%TO.C,L7*%
X91870000Y-124955000D03*
D23*
X91870000Y-135115000D03*
%TD*%
D33*
%TO.C,C11*%
X39275000Y-115575000D03*
X41000000Y-115575000D03*
%TD*%
D26*
%TO.C,C7*%
X53000000Y-103075000D03*
X53000000Y-104800000D03*
%TD*%
D22*
%TO.C,L4*%
X76870000Y-135115000D03*
D23*
X76870000Y-124955000D03*
%TD*%
D16*
%TO.C,C2*%
X80843750Y-55843750D03*
X80843750Y-54118750D03*
%TD*%
D13*
%TO.C,R21*%
X50025000Y-117175000D03*
X48200000Y-117175000D03*
%TD*%
D20*
%TO.C,J7*%
X79652500Y-39257500D03*
D21*
X77112500Y-39257500D03*
X74572500Y-39257500D03*
%TD*%
D26*
%TO.C,C17*%
X38250000Y-109675000D03*
X38250000Y-111400000D03*
%TD*%
D22*
%TO.C,L5*%
X117400000Y-125075000D03*
D23*
X117400000Y-135235000D03*
%TD*%
D28*
%TO.C,J5*%
X49340000Y-123800000D03*
D29*
X46800000Y-123800000D03*
X44260000Y-123800000D03*
%TD*%
D25*
%TO.C,FB4*%
X85985000Y-70630000D03*
X88285000Y-70630000D03*
%TD*%
D28*
%TO.C,J2*%
X44800000Y-43680000D03*
D29*
X47340000Y-43680000D03*
X44800000Y-46220000D03*
X47340000Y-46220000D03*
X44800000Y-48760000D03*
X47340000Y-48760000D03*
X44800000Y-51300000D03*
X47340000Y-51300000D03*
X44800000Y-53840000D03*
X47340000Y-53840000D03*
X44800000Y-56380000D03*
X47340000Y-56380000D03*
X44800000Y-58920000D03*
X47340000Y-58920000D03*
X44800000Y-61460000D03*
X47340000Y-61460000D03*
X44800000Y-64000000D03*
X47340000Y-64000000D03*
X44800000Y-66540000D03*
X47340000Y-66540000D03*
X44800000Y-69080000D03*
X47340000Y-69080000D03*
X44800000Y-71620000D03*
X47340000Y-71620000D03*
X44800000Y-74160000D03*
X47340000Y-74160000D03*
X44800000Y-76700000D03*
X47340000Y-76700000D03*
X44800000Y-79240000D03*
X47340000Y-79240000D03*
X44800000Y-81780000D03*
X47340000Y-81780000D03*
X44800000Y-84320000D03*
X47340000Y-84320000D03*
X44800000Y-86860000D03*
X47340000Y-86860000D03*
X44800000Y-89400000D03*
X47340000Y-89400000D03*
X44800000Y-91940000D03*
X47340000Y-91940000D03*
%TD*%
G36*
X101708059Y-103401061D02*
G01*
X101813223Y-103414906D01*
X101844491Y-103423284D01*
X101934918Y-103460740D01*
X101962951Y-103476925D01*
X102040601Y-103536508D01*
X102063491Y-103559398D01*
X102123074Y-103637048D01*
X102139259Y-103665081D01*
X102176715Y-103755508D01*
X102185093Y-103786775D01*
X102198939Y-103891939D01*
X102200000Y-103908125D01*
X102200000Y-105992886D01*
X102200001Y-105992902D01*
X102217036Y-106122301D01*
X102217038Y-106122306D01*
X102266984Y-106242888D01*
X102266987Y-106242893D01*
X102346445Y-106346445D01*
X102346451Y-106346452D01*
X102453547Y-106453548D01*
X102453554Y-106453554D01*
X102557106Y-106533012D01*
X102557111Y-106533015D01*
X102677693Y-106582961D01*
X102677698Y-106582963D01*
X102807097Y-106599998D01*
X102807114Y-106600000D01*
X103639479Y-106600000D01*
X103657642Y-106601337D01*
X103775343Y-106618765D01*
X103810109Y-106629292D01*
X103917704Y-106680077D01*
X103933558Y-106689039D01*
X104168879Y-106845919D01*
X104184783Y-106858516D01*
X104281495Y-106948939D01*
X104306135Y-106981005D01*
X104363738Y-107088636D01*
X104376751Y-107126927D01*
X104398340Y-107257548D01*
X104400000Y-107277768D01*
X104400000Y-109384767D01*
X104398939Y-109400953D01*
X104385093Y-109506117D01*
X104376715Y-109537383D01*
X104339260Y-109627808D01*
X104323075Y-109655842D01*
X104258496Y-109740003D01*
X104247801Y-109752198D01*
X104146451Y-109853547D01*
X104146445Y-109853554D01*
X104066987Y-109957106D01*
X104066984Y-109957111D01*
X104017038Y-110077693D01*
X104017036Y-110077698D01*
X104000001Y-110207097D01*
X104000000Y-110207113D01*
X104000000Y-113291874D01*
X103998939Y-113308060D01*
X103985093Y-113413224D01*
X103976715Y-113444491D01*
X103939259Y-113534918D01*
X103923074Y-113562951D01*
X103863491Y-113640601D01*
X103840601Y-113663491D01*
X103762951Y-113723074D01*
X103734918Y-113739259D01*
X103644491Y-113776715D01*
X103613224Y-113785093D01*
X103508060Y-113798939D01*
X103491874Y-113800000D01*
X93708126Y-113800000D01*
X93691940Y-113798939D01*
X93586775Y-113785093D01*
X93555508Y-113776715D01*
X93465081Y-113739259D01*
X93437048Y-113723074D01*
X93359398Y-113663491D01*
X93336508Y-113640601D01*
X93276925Y-113562951D01*
X93260740Y-113534918D01*
X93223284Y-113444491D01*
X93214906Y-113413223D01*
X93201061Y-113308059D01*
X93200000Y-113291874D01*
X93200000Y-110118032D01*
X93186624Y-110003159D01*
X93186623Y-110003158D01*
X93147215Y-109894431D01*
X93056003Y-109712008D01*
X93050333Y-109698806D01*
X93018295Y-109610412D01*
X93011706Y-109582500D01*
X93000832Y-109489111D01*
X93000000Y-109474770D01*
X93000000Y-107415232D01*
X93001061Y-107399047D01*
X93014906Y-107293883D01*
X93023284Y-107262616D01*
X93060739Y-107172191D01*
X93076924Y-107144157D01*
X93141503Y-107059996D01*
X93152198Y-107047801D01*
X93853554Y-106346445D01*
X93933012Y-106242893D01*
X93933015Y-106242888D01*
X93982961Y-106122306D01*
X93982963Y-106122301D01*
X93999998Y-105992902D01*
X94000000Y-105992886D01*
X94000000Y-103908125D01*
X94001061Y-103891940D01*
X94014906Y-103786776D01*
X94023284Y-103755508D01*
X94060740Y-103665081D01*
X94076925Y-103637048D01*
X94136508Y-103559398D01*
X94159398Y-103536508D01*
X94237048Y-103476925D01*
X94265081Y-103460740D01*
X94355508Y-103423284D01*
X94386776Y-103414906D01*
X94491941Y-103401061D01*
X94508126Y-103400000D01*
X101691874Y-103400000D01*
X101708059Y-103401061D01*
G37*
G36*
X110508059Y-103001061D02*
G01*
X110613223Y-103014906D01*
X110644491Y-103023284D01*
X110734918Y-103060740D01*
X110762951Y-103076925D01*
X110840601Y-103136508D01*
X110863491Y-103159398D01*
X110923074Y-103237048D01*
X110939259Y-103265081D01*
X110976715Y-103355508D01*
X110985093Y-103386775D01*
X110998939Y-103491939D01*
X111000000Y-103508125D01*
X111000000Y-105792886D01*
X111000001Y-105792902D01*
X111017036Y-105922301D01*
X111017038Y-105922306D01*
X111066984Y-106042888D01*
X111066987Y-106042893D01*
X111146445Y-106146445D01*
X111146451Y-106146452D01*
X111453547Y-106453548D01*
X111453554Y-106453554D01*
X111557106Y-106533012D01*
X111557111Y-106533015D01*
X111677693Y-106582961D01*
X111677698Y-106582963D01*
X111807097Y-106599998D01*
X111807114Y-106600000D01*
X112439479Y-106600000D01*
X112457642Y-106601337D01*
X112575343Y-106618765D01*
X112610109Y-106629292D01*
X112717704Y-106680077D01*
X112733558Y-106689039D01*
X112968879Y-106845919D01*
X112984783Y-106858516D01*
X113081495Y-106948939D01*
X113106135Y-106981005D01*
X113163738Y-107088636D01*
X113176751Y-107126927D01*
X113198340Y-107257548D01*
X113200000Y-107277768D01*
X113200000Y-109474770D01*
X113199168Y-109489113D01*
X113188293Y-109582502D01*
X113181704Y-109610412D01*
X113149666Y-109698806D01*
X113143996Y-109712007D01*
X112852785Y-110294427D01*
X112813376Y-110403158D01*
X112813375Y-110403159D01*
X112800000Y-110518032D01*
X112800000Y-112691874D01*
X112798939Y-112708060D01*
X112785093Y-112813224D01*
X112776715Y-112844491D01*
X112739259Y-112934918D01*
X112723074Y-112962951D01*
X112663491Y-113040601D01*
X112640601Y-113063491D01*
X112562951Y-113123074D01*
X112534918Y-113139259D01*
X112444491Y-113176715D01*
X112413224Y-113185093D01*
X112308060Y-113198939D01*
X112291874Y-113200000D01*
X109908126Y-113200000D01*
X109891940Y-113198939D01*
X109786775Y-113185093D01*
X109755508Y-113176715D01*
X109665081Y-113139259D01*
X109637048Y-113123074D01*
X109559398Y-113063491D01*
X109536508Y-113040601D01*
X109476925Y-112962951D01*
X109460740Y-112934918D01*
X109423284Y-112844491D01*
X109414906Y-112813223D01*
X109401061Y-112708059D01*
X109400000Y-112691874D01*
X109400000Y-110118032D01*
X109386624Y-110003159D01*
X109386623Y-110003158D01*
X109347215Y-109894431D01*
X109256003Y-109712008D01*
X109250333Y-109698806D01*
X109218295Y-109610412D01*
X109211706Y-109582500D01*
X109200832Y-109489111D01*
X109200000Y-109474770D01*
X109200000Y-107277768D01*
X109201660Y-107257549D01*
X109223248Y-107126928D01*
X109236261Y-107088636D01*
X109293864Y-106981005D01*
X109318504Y-106948939D01*
X109415216Y-106858516D01*
X109431120Y-106845919D01*
X109577351Y-106748432D01*
X109696464Y-106637063D01*
X109773407Y-106493295D01*
X109773409Y-106493290D01*
X109799999Y-106332415D01*
X109800000Y-106332405D01*
X109800000Y-103508125D01*
X109801061Y-103491940D01*
X109814906Y-103386776D01*
X109823284Y-103355508D01*
X109860740Y-103265081D01*
X109876925Y-103237048D01*
X109936508Y-103159398D01*
X109959398Y-103136508D01*
X110037048Y-103076925D01*
X110065081Y-103060740D01*
X110155508Y-103023284D01*
X110186776Y-103014906D01*
X110291941Y-103001061D01*
X110308126Y-103000000D01*
X110491874Y-103000000D01*
X110508059Y-103001061D01*
G37*
G36*
X122508059Y-103001061D02*
G01*
X122613223Y-103014906D01*
X122644491Y-103023284D01*
X122734918Y-103060740D01*
X122762951Y-103076925D01*
X122840601Y-103136508D01*
X122863491Y-103159398D01*
X122923074Y-103237048D01*
X122939259Y-103265081D01*
X122976715Y-103355508D01*
X122985093Y-103386775D01*
X122998939Y-103491939D01*
X123000000Y-103508125D01*
X123000000Y-113491874D01*
X122998939Y-113508060D01*
X122985093Y-113613224D01*
X122976715Y-113644491D01*
X122939259Y-113734918D01*
X122923074Y-113762951D01*
X122863491Y-113840601D01*
X122840601Y-113863491D01*
X122762951Y-113923074D01*
X122734918Y-113939259D01*
X122644491Y-113976715D01*
X122613224Y-113985093D01*
X122508060Y-113998939D01*
X122491874Y-114000000D01*
X120815233Y-114000000D01*
X120799047Y-113998939D01*
X120693882Y-113985093D01*
X120662616Y-113976715D01*
X120572191Y-113939260D01*
X120544157Y-113923075D01*
X120459996Y-113858496D01*
X120447801Y-113847801D01*
X119152198Y-112552198D01*
X119141503Y-112540003D01*
X119076924Y-112455842D01*
X119060739Y-112427808D01*
X119023284Y-112337383D01*
X119014906Y-112306116D01*
X119001061Y-112200952D01*
X119000000Y-112184767D01*
X119000000Y-110407113D01*
X118999998Y-110407097D01*
X118982963Y-110277698D01*
X118982961Y-110277693D01*
X118933015Y-110157111D01*
X118933012Y-110157106D01*
X118853554Y-110053554D01*
X118853548Y-110053547D01*
X118152198Y-109352198D01*
X118141503Y-109340003D01*
X118076924Y-109255842D01*
X118060739Y-109227808D01*
X118023284Y-109137383D01*
X118014906Y-109106116D01*
X118001061Y-109000952D01*
X118000000Y-108984767D01*
X118000000Y-107415232D01*
X118001061Y-107399047D01*
X118014906Y-107293883D01*
X118023284Y-107262616D01*
X118060739Y-107172191D01*
X118076924Y-107144157D01*
X118141503Y-107059996D01*
X118152198Y-107047801D01*
X118653549Y-106546451D01*
X118653554Y-106546445D01*
X118733012Y-106442893D01*
X118733015Y-106442888D01*
X118782961Y-106322306D01*
X118782963Y-106322301D01*
X118799998Y-106192902D01*
X118800000Y-106192886D01*
X118800000Y-103508125D01*
X118801061Y-103491940D01*
X118814906Y-103386776D01*
X118823284Y-103355508D01*
X118860740Y-103265081D01*
X118876925Y-103237048D01*
X118936508Y-103159398D01*
X118959398Y-103136508D01*
X119037048Y-103076925D01*
X119065081Y-103060740D01*
X119155508Y-103023284D01*
X119186776Y-103014906D01*
X119291941Y-103001061D01*
X119308126Y-103000000D01*
X122491874Y-103000000D01*
X122508059Y-103001061D01*
G37*
G36*
X85708059Y-103001061D02*
G01*
X85813223Y-103014906D01*
X85844491Y-103023284D01*
X85934918Y-103060740D01*
X85962951Y-103076925D01*
X86040601Y-103136508D01*
X86063491Y-103159398D01*
X86123074Y-103237048D01*
X86139259Y-103265081D01*
X86176715Y-103355508D01*
X86185093Y-103386775D01*
X86198939Y-103491939D01*
X86200000Y-103508125D01*
X86200000Y-105792886D01*
X86200001Y-105792902D01*
X86217036Y-105922301D01*
X86217038Y-105922306D01*
X86266984Y-106042888D01*
X86266987Y-106042893D01*
X86346445Y-106146445D01*
X86346451Y-106146452D01*
X86653547Y-106453548D01*
X86653554Y-106453554D01*
X86757106Y-106533012D01*
X86757111Y-106533015D01*
X86877693Y-106582961D01*
X86877698Y-106582963D01*
X87007097Y-106599998D01*
X87007114Y-106600000D01*
X87674770Y-106600000D01*
X87689111Y-106600832D01*
X87782500Y-106611706D01*
X87810412Y-106618295D01*
X87898806Y-106650333D01*
X87912009Y-106656004D01*
X87989743Y-106694872D01*
X88009149Y-106706928D01*
X88087387Y-106766179D01*
X88118006Y-106799841D01*
X88163472Y-106873408D01*
X88179886Y-106915846D01*
X88197895Y-107012328D01*
X88200000Y-107035080D01*
X88200000Y-109474770D01*
X88199168Y-109489113D01*
X88188293Y-109582502D01*
X88181704Y-109610412D01*
X88149666Y-109698806D01*
X88143996Y-109712007D01*
X87852785Y-110294427D01*
X87813376Y-110403158D01*
X87813375Y-110403159D01*
X87800000Y-110518032D01*
X87800000Y-113491874D01*
X87798939Y-113508060D01*
X87785093Y-113613224D01*
X87776715Y-113644491D01*
X87739259Y-113734918D01*
X87723074Y-113762951D01*
X87663491Y-113840601D01*
X87640601Y-113863491D01*
X87562951Y-113923074D01*
X87534918Y-113939259D01*
X87444491Y-113976715D01*
X87413224Y-113985093D01*
X87308060Y-113998939D01*
X87291874Y-114000000D01*
X85108126Y-114000000D01*
X85091940Y-113998939D01*
X84986775Y-113985093D01*
X84955508Y-113976715D01*
X84865081Y-113939259D01*
X84837048Y-113923074D01*
X84759398Y-113863491D01*
X84736508Y-113840601D01*
X84676925Y-113762951D01*
X84660740Y-113734918D01*
X84623284Y-113644491D01*
X84614906Y-113613223D01*
X84601061Y-113508059D01*
X84600000Y-113491874D01*
X84600000Y-109623608D01*
X84575640Y-109493094D01*
X84505839Y-109380155D01*
X84505837Y-109380153D01*
X84400000Y-109300001D01*
X84399999Y-109300000D01*
X84312611Y-109233819D01*
X84281993Y-109200158D01*
X84236527Y-109126591D01*
X84220113Y-109084152D01*
X84202105Y-108987670D01*
X84200000Y-108964919D01*
X84200000Y-107415232D01*
X84201061Y-107399047D01*
X84214906Y-107293883D01*
X84223284Y-107262616D01*
X84260739Y-107172191D01*
X84276924Y-107144157D01*
X84341503Y-107059996D01*
X84352198Y-107047800D01*
X84653555Y-106746444D01*
X84733012Y-106642893D01*
X84733015Y-106642888D01*
X84782961Y-106522306D01*
X84782963Y-106522301D01*
X84799998Y-106392902D01*
X84800000Y-106392886D01*
X84800000Y-103508125D01*
X84801061Y-103491940D01*
X84814906Y-103386776D01*
X84823284Y-103355508D01*
X84860740Y-103265081D01*
X84876925Y-103237048D01*
X84936508Y-103159398D01*
X84959398Y-103136508D01*
X85037048Y-103076925D01*
X85065081Y-103060740D01*
X85155508Y-103023284D01*
X85186776Y-103014906D01*
X85291941Y-103001061D01*
X85308126Y-103000000D01*
X85691874Y-103000000D01*
X85708059Y-103001061D01*
G37*
G36*
X74908059Y-103001061D02*
G01*
X75013223Y-103014906D01*
X75044491Y-103023284D01*
X75134918Y-103060740D01*
X75162951Y-103076925D01*
X75240601Y-103136508D01*
X75263491Y-103159398D01*
X75323074Y-103237048D01*
X75339259Y-103265081D01*
X75376715Y-103355508D01*
X75385093Y-103386775D01*
X75398939Y-103491939D01*
X75400000Y-103508125D01*
X75400000Y-103792886D01*
X75400001Y-103792902D01*
X75417036Y-103922301D01*
X75417038Y-103922306D01*
X75466984Y-104042888D01*
X75466987Y-104042893D01*
X75546445Y-104146445D01*
X75546451Y-104146452D01*
X75853547Y-104453548D01*
X75853554Y-104453554D01*
X75957106Y-104533012D01*
X75957111Y-104533015D01*
X76077693Y-104582961D01*
X76077698Y-104582963D01*
X76207097Y-104599998D01*
X76207114Y-104600000D01*
X76691874Y-104600000D01*
X76708059Y-104601061D01*
X76813223Y-104614906D01*
X76844491Y-104623284D01*
X76934918Y-104660740D01*
X76962951Y-104676925D01*
X77040601Y-104736508D01*
X77063491Y-104759398D01*
X77123074Y-104837048D01*
X77139259Y-104865081D01*
X77176715Y-104955508D01*
X77185093Y-104986775D01*
X77198939Y-105091939D01*
X77200000Y-105108125D01*
X77200000Y-105992886D01*
X77200001Y-105992902D01*
X77217036Y-106122301D01*
X77217038Y-106122306D01*
X77266984Y-106242888D01*
X77266987Y-106242893D01*
X77346445Y-106346445D01*
X77346451Y-106346452D01*
X77453547Y-106453548D01*
X77453554Y-106453554D01*
X77557106Y-106533012D01*
X77557111Y-106533015D01*
X77677693Y-106582961D01*
X77677698Y-106582963D01*
X77807097Y-106599998D01*
X77807114Y-106600000D01*
X78639479Y-106600000D01*
X78657642Y-106601337D01*
X78775343Y-106618765D01*
X78810109Y-106629292D01*
X78917704Y-106680077D01*
X78933558Y-106689039D01*
X79168879Y-106845919D01*
X79184783Y-106858516D01*
X79281495Y-106948939D01*
X79306135Y-106981005D01*
X79363738Y-107088636D01*
X79376751Y-107126927D01*
X79398340Y-107257548D01*
X79400000Y-107277768D01*
X79400000Y-109691874D01*
X79398939Y-109708060D01*
X79385093Y-109813224D01*
X79376715Y-109844491D01*
X79339259Y-109934918D01*
X79323074Y-109962951D01*
X79263491Y-110040601D01*
X79240601Y-110063491D01*
X79162951Y-110123074D01*
X79134918Y-110139259D01*
X79044491Y-110176715D01*
X79013224Y-110185093D01*
X78908060Y-110198939D01*
X78891874Y-110200000D01*
X77100007Y-110200000D01*
X77099990Y-110200001D01*
X76970591Y-110217036D01*
X76970586Y-110217038D01*
X76850004Y-110266984D01*
X76850003Y-110266984D01*
X76746447Y-110346447D01*
X76666984Y-110450003D01*
X76666984Y-110450004D01*
X76617038Y-110570586D01*
X76617036Y-110570591D01*
X76600001Y-110699990D01*
X76600000Y-110700006D01*
X76600000Y-111932415D01*
X76626590Y-112093290D01*
X76626592Y-112093295D01*
X76703534Y-112237063D01*
X76822652Y-112348434D01*
X77074036Y-112516023D01*
X77074044Y-112516028D01*
X77206491Y-112578544D01*
X77206493Y-112578545D01*
X77351391Y-112599999D01*
X77351393Y-112600000D01*
X77590244Y-112600000D01*
X77609641Y-112601527D01*
X77704206Y-112616504D01*
X77741104Y-112628492D01*
X77817616Y-112667477D01*
X77849002Y-112690281D01*
X77909718Y-112750997D01*
X77932522Y-112782383D01*
X77971507Y-112858895D01*
X77983495Y-112895792D01*
X77998473Y-112990357D01*
X78000000Y-113009755D01*
X78000000Y-113691874D01*
X77998939Y-113708060D01*
X77985093Y-113813224D01*
X77976715Y-113844491D01*
X77939259Y-113934918D01*
X77923074Y-113962951D01*
X77863491Y-114040601D01*
X77840601Y-114063491D01*
X77762951Y-114123074D01*
X77734918Y-114139259D01*
X77644491Y-114176715D01*
X77613224Y-114185093D01*
X77508060Y-114198939D01*
X77491874Y-114200000D01*
X73708126Y-114200000D01*
X73691940Y-114198939D01*
X73586775Y-114185093D01*
X73555508Y-114176715D01*
X73465081Y-114139259D01*
X73437048Y-114123074D01*
X73359398Y-114063491D01*
X73336508Y-114040601D01*
X73276925Y-113962951D01*
X73260740Y-113934918D01*
X73223284Y-113844491D01*
X73214906Y-113813223D01*
X73201061Y-113708059D01*
X73200000Y-113691874D01*
X73200000Y-103508125D01*
X73201061Y-103491940D01*
X73214906Y-103386776D01*
X73223284Y-103355508D01*
X73260740Y-103265081D01*
X73276925Y-103237048D01*
X73336508Y-103159398D01*
X73359398Y-103136508D01*
X73437048Y-103076925D01*
X73465081Y-103060740D01*
X73555508Y-103023284D01*
X73586776Y-103014906D01*
X73691941Y-103001061D01*
X73708126Y-103000000D01*
X74891874Y-103000000D01*
X74908059Y-103001061D01*
G37*
M02*
