M48
; DRILL file {KiCad 8.0.1-8.0.1-0~ubuntu23.10.1} date 2024-04-25T23:44:31+0100
; FORMAT={-:-/ absolute / inch / decimal}
; #@! TF.CreationDate,2024-04-25T23:44:31+01:00
; #@! TF.GenerationSoftware,Kicad,Pcbnew,8.0.1-8.0.1-0~ubuntu23.10.1
; #@! TF.FileFunction,Plated,1,2,PTH
FMAT,2
INCH
; #@! TA.AperFunction,Plated,PTH,ViaDrill
T1C0.0118
; #@! TA.AperFunction,Plated,PTH,ComponentDrill
T2C0.0118
; #@! TA.AperFunction,Plated,PTH,ComponentDrill
T3C0.0276
; #@! TA.AperFunction,Plated,PTH,ComponentDrill
T4C0.0315
; #@! TA.AperFunction,Plated,PTH,ComponentDrill
T5C0.0394
; #@! TA.AperFunction,Plated,PTH,ComponentDrill
T6C0.0433
; #@! TA.AperFunction,Plated,PTH,ComponentDrill
T7C0.0512
%
G90
G05
T1
X1.4961Y-4.685
X1.7165Y-4.685
X1.748Y-3.8346
X1.748Y-4.315
X1.8504Y-3.937
X1.9291Y-3.9449
X2.0236Y-4.685
X2.1496Y-2.7717
X2.1496Y-2.8268
X2.1575Y-2.622
X2.1575Y-2.6693
X2.2677Y-4.8425
X2.5276Y-3.1339
X2.5906Y-2.315
X2.6063Y-1.8504
X2.6457Y-2.315
X2.6535Y-3.3543
X2.6535Y-3.4882
X2.6929Y-2.315
X2.7402Y-2.0866
X2.811Y-1.9764
X2.811Y-2.063
X2.8583Y-1.8819
X2.8976Y-3.5433
X2.9213Y-2.063
X2.9528Y-3.1811
X2.9528Y-3.3228
X2.9528Y-3.4016
X3.0315Y-3.8583
X3.0472Y-3.5433
X3.0894Y-4.151
X3.1024Y-3.1811
X3.1218Y-2.0495
X3.1218Y-2.2384
X3.1811Y-3.8189
X3.2441Y-3.7717
X3.2598Y-3.1024
X3.2598Y-3.1496
X3.3071Y-2.7008
X3.3094Y-2.7807
X3.4173Y-3.4646
X3.4237Y-2.2111
X3.4331Y-3.3701
X3.4437Y-4.151
X3.5984Y-2.126
X3.6062Y-2.6685
X3.6062Y-2.8496
X3.7402Y-1.5354
X3.7791Y-3.5508
X3.7795Y-1.7008
X3.7795Y-3.3701
X3.8268Y-3.1732
X3.8268Y-3.3307
X3.8268Y-3.4094
X3.8346Y-1.7795
X3.9153Y-2.732
X3.9291Y-3.5512
X3.9764Y-3.1732
X4.0709Y-4.151
X4.0791Y-3.4098
X4.1659Y-3.7959
X4.2362Y-3.7953
X4.4173Y-4.151
X4.5118Y-3.6929
X4.5833Y-3.7959
T2
X3.1817Y-4.2386
X3.1817Y-4.276
X3.2191Y-4.2386
X3.2191Y-4.276
X3.2565Y-4.2386
X3.2565Y-4.276
X3.5309Y-4.2386
X3.5309Y-4.276
X3.5683Y-4.2386
X3.5683Y-4.276
X3.6057Y-4.2386
X3.6057Y-4.276
X4.1659Y-4.2386
X4.1659Y-4.276
X4.2033Y-4.2386
X4.2033Y-4.276
X4.2407Y-4.2386
X4.2407Y-4.276
X4.5124Y-4.2386
X4.5124Y-4.276
X4.5498Y-4.2386
X4.5498Y-4.276
X4.5872Y-4.2386
X4.5872Y-4.276
T3
X2.3559Y-3.9457
X2.3559Y-4.0457
X2.3559Y-4.6457
X2.7559Y-3.9457
X2.7559Y-4.6457
T4
X3.0264Y-4.9195
X3.0264Y-5.3195
X3.1327Y-4.6234
X3.1366Y-4.9195
X3.1366Y-5.3195
X3.2705Y-4.6234
X3.4791Y-4.6234
X3.6169Y-4.6234
X3.6169Y-4.9195
X3.6169Y-5.3195
X3.7272Y-4.9195
X3.7272Y-5.3195
X4.0315Y-4.9242
X4.0315Y-5.3242
X4.122Y-4.6077
X4.1417Y-4.9242
X4.1417Y-5.3242
X4.2598Y-4.6077
X4.4781Y-4.6077
X4.6159Y-4.6077
X4.622Y-4.9242
X4.622Y-5.3242
X4.7323Y-4.9242
X4.7323Y-5.3242
T5
X1.7425Y-4.874
X1.7638Y-1.7197
X1.7638Y-1.8197
X1.7638Y-1.9197
X1.7638Y-2.0197
X1.7638Y-2.1197
X1.7638Y-2.2197
X1.7638Y-2.3197
X1.7638Y-2.4197
X1.7638Y-2.5197
X1.7638Y-2.6197
X1.7638Y-2.7197
X1.7638Y-2.8197
X1.7638Y-2.9197
X1.7638Y-3.0197
X1.7638Y-3.1197
X1.7638Y-3.2197
X1.7638Y-3.3197
X1.7638Y-3.4197
X1.7638Y-3.5197
X1.7638Y-3.6197
X1.8425Y-4.874
X1.8638Y-1.7197
X1.8638Y-1.8197
X1.8638Y-1.9197
X1.8638Y-2.0197
X1.8638Y-2.1197
X1.8638Y-2.2197
X1.8638Y-2.3197
X1.8638Y-2.4197
X1.8638Y-2.5197
X1.8638Y-2.6197
X1.8638Y-2.7197
X1.8638Y-2.8197
X1.8638Y-2.9197
X1.8638Y-3.0197
X1.8638Y-3.1197
X1.8638Y-3.2197
X1.8638Y-3.3197
X1.8638Y-3.4197
X1.8638Y-3.5197
X1.8638Y-3.6197
X1.9425Y-4.874
X4.0315Y-2.1942
X4.0315Y-2.2942
X4.0315Y-2.3942
X4.0315Y-2.4942
X4.0315Y-2.5942
X4.0315Y-2.6942
X4.0315Y-2.7942
X4.0315Y-2.8942
X4.1417Y-1.5323
X4.1417Y-1.6323
X4.1417Y-1.7323
X4.1417Y-1.8323
T6
X2.3472Y-1.5495
X2.4472Y-1.5495
X2.5472Y-1.5495
X2.9359Y-1.5456
X3.0359Y-1.5456
X3.1359Y-1.5456
X3.2752Y-5.214
X3.3752Y-5.214
X3.4752Y-5.214
X4.2803Y-5.214
X4.3803Y-5.214
X4.4803Y-5.214
X4.5984Y-3.3173
X4.5984Y-3.4173
T7
X2.4299Y-5.126
X2.6299Y-5.126
M30
